<mxfile host="Electron" modified="2023-06-24T07:55:58.159Z" agent="Mozilla/5.0 (Windows NT 10.0; Win64; x64) AppleWebKit/537.36 (KHTML, like Gecko) draw.io/21.5.0 Chrome/112.0.5615.204 Electron/24.5.1 Safari/537.36" etag="uAxJ26mKvZa5kNznnipH" version="21.5.0" type="device">
  <diagram name="Страница 1" id="trXoEVptYs4VV4olKbiF">
    <mxGraphModel dx="6810" dy="2015" grid="1" gridSize="10" guides="1" tooltips="1" connect="1" arrows="1" fold="1" page="1" pageScale="1" pageWidth="3300" pageHeight="2339" math="0" shadow="0">
      <root>
        <mxCell id="0" />
        <mxCell id="1" parent="0" />
        <mxCell id="eEPNA-gmXamEzi0rjirp-1" value="" style="group" vertex="1" connectable="0" parent="1">
          <mxGeometry x="-3140" y="160" width="2960" height="1710" as="geometry" />
        </mxCell>
        <mxCell id="G5YHtdSnVFfNY6eWmLNl-1" value="&lt;font style=&quot;font-size: 8px;&quot; face=&quot;isocpeur&quot;&gt;Начало&lt;/font&gt;" style="ellipse;whiteSpace=wrap;html=1;" parent="eEPNA-gmXamEzi0rjirp-1" vertex="1">
          <mxGeometry x="647.0697674418604" width="41.30232558139535" height="47.23756906077348" as="geometry" />
        </mxCell>
        <mxCell id="G5YHtdSnVFfNY6eWmLNl-2" value="&lt;font style=&quot;font-size: 8px;&quot; data-font-src=&quot;https://fonts.googleapis.com/css?family=isocpeur&quot; face=&quot;isocpeur&quot;&gt;Загрузочный экран&lt;/font&gt;" style="shape=display;whiteSpace=wrap;html=1;" parent="eEPNA-gmXamEzi0rjirp-1" vertex="1">
          <mxGeometry x="644.7751937984495" y="85.02762430939227" width="45.89147286821705" height="37.790055248618785" as="geometry" />
        </mxCell>
        <mxCell id="G5YHtdSnVFfNY6eWmLNl-3" value="&lt;font style=&quot;font-size: 8px;&quot; data-font-src=&quot;https://fonts.googleapis.com/css?family=isocpeur&quot; face=&quot;isocpeur&quot;&gt;Главный экран&lt;/font&gt;" style="shape=display;whiteSpace=wrap;html=1;" parent="eEPNA-gmXamEzi0rjirp-1" vertex="1">
          <mxGeometry x="644.7751937984495" y="160.60773480662985" width="45.89147286821705" height="37.790055248618785" as="geometry" />
        </mxCell>
        <mxCell id="G5YHtdSnVFfNY6eWmLNl-4" value="" style="endArrow=none;html=1;rounded=0;" parent="eEPNA-gmXamEzi0rjirp-1" edge="1">
          <mxGeometry width="50" height="50" relative="1" as="geometry">
            <mxPoint x="667.3033178294573" y="85.97237569060773" as="sourcePoint" />
            <mxPoint x="667.3033178294573" y="48.18232044198895" as="targetPoint" />
          </mxGeometry>
        </mxCell>
        <mxCell id="G5YHtdSnVFfNY6eWmLNl-7" value="" style="endArrow=none;html=1;rounded=0;" parent="eEPNA-gmXamEzi0rjirp-1" edge="1">
          <mxGeometry width="50" height="50" relative="1" as="geometry">
            <mxPoint x="667.5235968992248" y="160.60773480662985" as="sourcePoint" />
            <mxPoint x="667.5235968992248" y="122.81767955801105" as="targetPoint" />
          </mxGeometry>
        </mxCell>
        <mxCell id="G5YHtdSnVFfNY6eWmLNl-8" value="" style="endArrow=none;html=1;rounded=0;entryX=0.511;entryY=1.042;entryDx=0;entryDy=0;entryPerimeter=0;" parent="eEPNA-gmXamEzi0rjirp-1" edge="1" target="G5YHtdSnVFfNY6eWmLNl-3">
          <mxGeometry width="50" height="50" relative="1" as="geometry">
            <mxPoint x="668.2211472868216" y="238.18784530386742" as="sourcePoint" />
            <mxPoint x="668.2211472868216" y="200.39779005524863" as="targetPoint" />
          </mxGeometry>
        </mxCell>
        <mxCell id="G5YHtdSnVFfNY6eWmLNl-9" value="" style="endArrow=none;html=1;rounded=0;" parent="eEPNA-gmXamEzi0rjirp-1" edge="1">
          <mxGeometry width="50" height="50" relative="1" as="geometry">
            <mxPoint x="82.6046511627907" y="235.18784530386742" as="sourcePoint" />
            <mxPoint x="2937.0542635658912" y="244.6353591160221" as="targetPoint" />
          </mxGeometry>
        </mxCell>
        <mxCell id="G5YHtdSnVFfNY6eWmLNl-10" value="" style="endArrow=none;html=1;rounded=0;" parent="eEPNA-gmXamEzi0rjirp-1" edge="1">
          <mxGeometry width="50" height="50" relative="1" as="geometry">
            <mxPoint x="82.6046511627907" y="264.5303867403315" as="sourcePoint" />
            <mxPoint x="82.68266666666662" y="236.18784530386742" as="targetPoint" />
          </mxGeometry>
        </mxCell>
        <mxCell id="G5YHtdSnVFfNY6eWmLNl-11" value="" style="endArrow=none;html=1;rounded=0;" parent="eEPNA-gmXamEzi0rjirp-1" edge="1">
          <mxGeometry width="50" height="50" relative="1" as="geometry">
            <mxPoint x="27.53488372093023" y="264.5303867403315" as="sourcePoint" />
            <mxPoint x="146.85271317829458" y="264.5303867403315" as="targetPoint" />
          </mxGeometry>
        </mxCell>
        <mxCell id="G5YHtdSnVFfNY6eWmLNl-12" value="" style="endArrow=none;html=1;rounded=0;" parent="eEPNA-gmXamEzi0rjirp-1" edge="1">
          <mxGeometry width="50" height="50" relative="1" as="geometry">
            <mxPoint x="27.53488372093023" y="292.8729281767956" as="sourcePoint" />
            <mxPoint x="27.438511627906934" y="264.5303867403315" as="targetPoint" />
          </mxGeometry>
        </mxCell>
        <mxCell id="G5YHtdSnVFfNY6eWmLNl-13" value="&lt;font style=&quot;font-size: 9px;&quot; data-font-src=&quot;https://fonts.googleapis.com/css?family=isocpeur&quot; face=&quot;isocpeur&quot;&gt;Выход&lt;/font&gt;" style="shape=display;whiteSpace=wrap;html=1;" parent="eEPNA-gmXamEzi0rjirp-1" vertex="1">
          <mxGeometry x="4.589147286821706" y="292.8729281767956" width="45.89147286821705" height="37.790055248618785" as="geometry" />
        </mxCell>
        <mxCell id="G5YHtdSnVFfNY6eWmLNl-14" value="" style="endArrow=none;html=1;rounded=0;" parent="eEPNA-gmXamEzi0rjirp-1" edge="1">
          <mxGeometry width="50" height="50" relative="1" as="geometry">
            <mxPoint x="82.6046511627907" y="292.8729281767956" as="sourcePoint" />
            <mxPoint x="82.5082790697674" y="264.5303867403315" as="targetPoint" />
          </mxGeometry>
        </mxCell>
        <mxCell id="G5YHtdSnVFfNY6eWmLNl-15" value="&lt;font style=&quot;font-size: 9px;&quot; data-font-src=&quot;https://fonts.googleapis.com/css?family=isocpeur&quot; face=&quot;isocpeur&quot;&gt;Справка&lt;/font&gt;" style="shape=display;whiteSpace=wrap;html=1;" parent="eEPNA-gmXamEzi0rjirp-1" vertex="1">
          <mxGeometry x="59.65891472868217" y="292.8729281767956" width="45.89147286821705" height="37.790055248618785" as="geometry" />
        </mxCell>
        <mxCell id="G5YHtdSnVFfNY6eWmLNl-16" value="" style="endArrow=none;html=1;rounded=0;" parent="eEPNA-gmXamEzi0rjirp-1" edge="1">
          <mxGeometry width="50" height="50" relative="1" as="geometry">
            <mxPoint x="82.6046511627907" y="359.0055248618785" as="sourcePoint" />
            <mxPoint x="82.5082790697674" y="330.6629834254144" as="targetPoint" />
            <Array as="points" />
          </mxGeometry>
        </mxCell>
        <mxCell id="G5YHtdSnVFfNY6eWmLNl-17" value="&lt;font style=&quot;font-size: 8px;&quot; data-font-src=&quot;https://fonts.googleapis.com/css?family=isocpeur&quot; face=&quot;isocpeur&quot;&gt;Отбражение справки&lt;/font&gt;" style="rounded=0;whiteSpace=wrap;html=1;" parent="eEPNA-gmXamEzi0rjirp-1" vertex="1">
          <mxGeometry x="59.65891472868217" y="359.0055248618785" width="45.89147286821705" height="37.790055248618785" as="geometry" />
        </mxCell>
        <mxCell id="G5YHtdSnVFfNY6eWmLNl-18" value="" style="endArrow=none;html=1;rounded=0;" parent="eEPNA-gmXamEzi0rjirp-1" edge="1">
          <mxGeometry width="50" height="50" relative="1" as="geometry">
            <mxPoint x="82.5082790697674" y="434.58563535911605" as="sourcePoint" />
            <mxPoint x="82.5082790697674" y="396.79558011049727" as="targetPoint" />
            <Array as="points">
              <mxPoint x="82.50827906976745" y="434.58563535911605" />
            </Array>
          </mxGeometry>
        </mxCell>
        <mxCell id="G5YHtdSnVFfNY6eWmLNl-19" value="&lt;font style=&quot;font-size: 9px;&quot; data-font-src=&quot;https://fonts.googleapis.com/css?family=isocpeur&quot; face=&quot;isocpeur&quot;&gt;справка&lt;br&gt;.chm&lt;/font&gt;" style="strokeWidth=1;html=1;shape=mxgraph.flowchart.direct_data;whiteSpace=wrap;" parent="eEPNA-gmXamEzi0rjirp-1" vertex="1">
          <mxGeometry x="59.65891472868217" y="434.58563535911605" width="45.89147286821705" height="37.790055248618785" as="geometry" />
        </mxCell>
        <mxCell id="G5YHtdSnVFfNY6eWmLNl-20" value="" style="endArrow=none;html=1;rounded=0;" parent="eEPNA-gmXamEzi0rjirp-1" edge="1">
          <mxGeometry width="50" height="50" relative="1" as="geometry">
            <mxPoint x="82.46697674418604" y="510.1657458563536" as="sourcePoint" />
            <mxPoint x="82.46697674418604" y="472.37569060773484" as="targetPoint" />
            <Array as="points">
              <mxPoint x="82.65513178294572" y="510.1657458563536" />
            </Array>
          </mxGeometry>
        </mxCell>
        <mxCell id="G5YHtdSnVFfNY6eWmLNl-22" value="" style="endArrow=classic;html=1;rounded=0;" parent="eEPNA-gmXamEzi0rjirp-1" edge="1">
          <mxGeometry width="50" height="50" relative="1" as="geometry">
            <mxPoint x="82.6046511627907" y="510.1657458563536" as="sourcePoint" />
            <mxPoint y="510.1657458563536" as="targetPoint" />
          </mxGeometry>
        </mxCell>
        <mxCell id="G5YHtdSnVFfNY6eWmLNl-24" value="" style="endArrow=none;html=1;rounded=0;" parent="eEPNA-gmXamEzi0rjirp-1" edge="1">
          <mxGeometry width="50" height="50" relative="1" as="geometry">
            <mxPoint y="151.16022099447514" as="sourcePoint" />
            <mxPoint x="667.262015503876" y="151.16022099447514" as="targetPoint" />
          </mxGeometry>
        </mxCell>
        <mxCell id="G5YHtdSnVFfNY6eWmLNl-26" value="" style="endArrow=none;html=1;rounded=0;" parent="eEPNA-gmXamEzi0rjirp-1" edge="1">
          <mxGeometry width="50" height="50" relative="1" as="geometry">
            <mxPoint x="146.85271317829458" y="292.8729281767956" as="sourcePoint" />
            <mxPoint x="146.75634108527126" y="264.5303867403315" as="targetPoint" />
          </mxGeometry>
        </mxCell>
        <mxCell id="G5YHtdSnVFfNY6eWmLNl-27" value="" style="endArrow=none;html=1;rounded=0;" parent="eEPNA-gmXamEzi0rjirp-1" edge="1">
          <mxGeometry width="50" height="50" relative="1" as="geometry">
            <mxPoint x="133.08527131782947" y="359.0055248618785" as="sourcePoint" />
            <mxPoint x="284.52713178294573" y="359.0055248618785" as="targetPoint" />
          </mxGeometry>
        </mxCell>
        <mxCell id="G5YHtdSnVFfNY6eWmLNl-28" value="&lt;font style=&quot;font-size: 9px;&quot; face=&quot;isocpeur&quot;&gt;Приложение&lt;/font&gt;" style="shape=display;whiteSpace=wrap;html=1;" parent="eEPNA-gmXamEzi0rjirp-1" vertex="1">
          <mxGeometry x="123.90697674418604" y="292.8729281767956" width="45.89147286821705" height="37.790055248618785" as="geometry" />
        </mxCell>
        <mxCell id="G5YHtdSnVFfNY6eWmLNl-29" value="" style="endArrow=none;html=1;rounded=0;" parent="eEPNA-gmXamEzi0rjirp-1" edge="1">
          <mxGeometry width="50" height="50" relative="1" as="geometry">
            <mxPoint x="146.85271317829458" y="359.0055248618785" as="sourcePoint" />
            <mxPoint x="146.75634108527126" y="330.6629834254144" as="targetPoint" />
          </mxGeometry>
        </mxCell>
        <mxCell id="G5YHtdSnVFfNY6eWmLNl-30" value="&lt;font style=&quot;font-size: 9px;&quot; face=&quot;isocpeur&quot;&gt;Тест&lt;/font&gt;" style="shape=display;whiteSpace=wrap;html=1;" parent="eEPNA-gmXamEzi0rjirp-1" vertex="1">
          <mxGeometry x="110.13953488372093" y="434.58563535911605" width="45.89147286821705" height="47.23756906077348" as="geometry" />
        </mxCell>
        <mxCell id="G5YHtdSnVFfNY6eWmLNl-31" value="&lt;font style=&quot;font-size: 9px;&quot; face=&quot;isocpeur&quot;&gt;Как развивать ЭИ&lt;/font&gt;" style="shape=display;whiteSpace=wrap;html=1;" parent="eEPNA-gmXamEzi0rjirp-1" vertex="1">
          <mxGeometry x="160.6201550387597" y="433.64088397790056" width="45.89147286821705" height="48.18232044198895" as="geometry" />
        </mxCell>
        <mxCell id="G5YHtdSnVFfNY6eWmLNl-32" value="&lt;font style=&quot;font-size: 9px;&quot; face=&quot;isocpeur&quot;&gt;Элементы ЭИ&lt;/font&gt;" style="shape=display;whiteSpace=wrap;html=1;" parent="eEPNA-gmXamEzi0rjirp-1" vertex="1">
          <mxGeometry x="211.10077519379846" y="433.64088397790056" width="45.89147286821705" height="47.23756906077348" as="geometry" />
        </mxCell>
        <mxCell id="G5YHtdSnVFfNY6eWmLNl-33" value="&lt;font style=&quot;font-size: 8px;&quot; face=&quot;isocpeur&quot;&gt;Игры&lt;/font&gt;" style="shape=display;whiteSpace=wrap;html=1;" parent="eEPNA-gmXamEzi0rjirp-1" vertex="1">
          <mxGeometry x="261.5813953488372" y="433.64088397790056" width="45.89147286821705" height="47.23756906077348" as="geometry" />
        </mxCell>
        <mxCell id="G5YHtdSnVFfNY6eWmLNl-35" value="" style="endArrow=none;html=1;rounded=0;" parent="eEPNA-gmXamEzi0rjirp-1" edge="1">
          <mxGeometry width="50" height="50" relative="1" as="geometry">
            <mxPoint x="132.9475968992248" y="359.0055248618785" as="sourcePoint" />
            <mxPoint x="133.08527131782947" y="434.58563535911605" as="targetPoint" />
          </mxGeometry>
        </mxCell>
        <mxCell id="G5YHtdSnVFfNY6eWmLNl-36" value="" style="endArrow=none;html=1;rounded=0;" parent="eEPNA-gmXamEzi0rjirp-1" edge="1">
          <mxGeometry width="50" height="50" relative="1" as="geometry">
            <mxPoint x="183.5658914728682" y="359.0055248618785" as="sourcePoint" />
            <mxPoint x="183.5613023255814" y="433.64088397790056" as="targetPoint" />
          </mxGeometry>
        </mxCell>
        <mxCell id="G5YHtdSnVFfNY6eWmLNl-37" value="" style="endArrow=none;html=1;rounded=0;" parent="eEPNA-gmXamEzi0rjirp-1" edge="1">
          <mxGeometry width="50" height="50" relative="1" as="geometry">
            <mxPoint x="234.04651162790697" y="359.0055248618785" as="sourcePoint" />
            <mxPoint x="233.90883720930233" y="433.64088397790056" as="targetPoint" />
          </mxGeometry>
        </mxCell>
        <mxCell id="G5YHtdSnVFfNY6eWmLNl-38" value="" style="endArrow=none;html=1;rounded=0;" parent="eEPNA-gmXamEzi0rjirp-1" edge="1">
          <mxGeometry width="50" height="50" relative="1" as="geometry">
            <mxPoint x="284.52713178294573" y="359.0055248618785" as="sourcePoint" />
            <mxPoint x="284.3894573643411" y="433.64088397790056" as="targetPoint" />
          </mxGeometry>
        </mxCell>
        <mxCell id="G5YHtdSnVFfNY6eWmLNl-39" value="" style="endArrow=none;html=1;rounded=0;" parent="eEPNA-gmXamEzi0rjirp-1" edge="1">
          <mxGeometry width="50" height="50" relative="1" as="geometry">
            <mxPoint x="435.968992248062" y="359.0055248618785" as="sourcePoint" />
            <mxPoint x="435.968992248062" y="329.7182320441989" as="targetPoint" />
          </mxGeometry>
        </mxCell>
        <mxCell id="G5YHtdSnVFfNY6eWmLNl-40" value="" style="endArrow=none;html=1;rounded=0;" parent="eEPNA-gmXamEzi0rjirp-1" edge="1">
          <mxGeometry width="50" height="50" relative="1" as="geometry">
            <mxPoint x="393.28992248062013" y="359.0055248618785" as="sourcePoint" />
            <mxPoint x="651.6589147286821" y="359.0055248618785" as="targetPoint" />
          </mxGeometry>
        </mxCell>
        <mxCell id="G5YHtdSnVFfNY6eWmLNl-41" value="" style="endArrow=none;html=1;rounded=0;" parent="eEPNA-gmXamEzi0rjirp-1" edge="1">
          <mxGeometry width="50" height="50" relative="1" as="geometry">
            <mxPoint x="393.28992248062013" y="396.79558011049727" as="sourcePoint" />
            <mxPoint x="393.28992248062013" y="359.0055248618785" as="targetPoint" />
          </mxGeometry>
        </mxCell>
        <mxCell id="G5YHtdSnVFfNY6eWmLNl-44" value="" style="endArrow=none;html=1;rounded=0;" parent="eEPNA-gmXamEzi0rjirp-1" edge="1">
          <mxGeometry width="50" height="50" relative="1" as="geometry">
            <mxPoint x="433.0778294573644" y="290.98342541436466" as="sourcePoint" />
            <mxPoint x="433.0778294573644" y="236.18784530386742" as="targetPoint" />
          </mxGeometry>
        </mxCell>
        <mxCell id="G5YHtdSnVFfNY6eWmLNl-45" value="" style="endArrow=none;html=1;rounded=0;" parent="eEPNA-gmXamEzi0rjirp-1" edge="1">
          <mxGeometry width="50" height="50" relative="1" as="geometry">
            <mxPoint x="362.0837209302326" y="396.79558011049727" as="sourcePoint" />
            <mxPoint x="435.968992248062" y="396.79558011049727" as="targetPoint" />
          </mxGeometry>
        </mxCell>
        <mxCell id="G5YHtdSnVFfNY6eWmLNl-55" value="" style="endArrow=classic;html=1;rounded=0;" parent="eEPNA-gmXamEzi0rjirp-1" edge="1">
          <mxGeometry width="50" height="50" relative="1" as="geometry">
            <mxPoint x="362.5426356589147" y="661.3259668508288" as="sourcePoint" />
            <mxPoint x="312.06201550387595" y="661.3259668508288" as="targetPoint" />
          </mxGeometry>
        </mxCell>
        <mxCell id="G5YHtdSnVFfNY6eWmLNl-56" value="" style="endArrow=classic;html=1;rounded=0;" parent="eEPNA-gmXamEzi0rjirp-1" edge="1">
          <mxGeometry width="50" height="50" relative="1" as="geometry">
            <mxPoint x="312.06201550387595" y="661.3259668508288" as="sourcePoint" />
            <mxPoint x="312.06201550387595" y="255.0828729281768" as="targetPoint" />
          </mxGeometry>
        </mxCell>
        <mxCell id="G5YHtdSnVFfNY6eWmLNl-60" value="" style="endArrow=none;html=1;rounded=0;" parent="eEPNA-gmXamEzi0rjirp-1" edge="1">
          <mxGeometry width="50" height="50" relative="1" as="geometry">
            <mxPoint x="435.968992248062" y="434.58563535911605" as="sourcePoint" />
            <mxPoint x="435.968992248062" y="396.79558011049727" as="targetPoint" />
          </mxGeometry>
        </mxCell>
        <mxCell id="G5YHtdSnVFfNY6eWmLNl-62" value="&lt;font style=&quot;font-size: 9px;&quot; face=&quot;isocpeur&quot;&gt;Приложение&lt;/font&gt;" style="shape=display;whiteSpace=wrap;html=1;" parent="eEPNA-gmXamEzi0rjirp-1" vertex="1">
          <mxGeometry x="413.0232558139535" y="434.58563535911605" width="45.89147286821705" height="37.790055248618785" as="geometry" />
        </mxCell>
        <mxCell id="G5YHtdSnVFfNY6eWmLNl-71" value="" style="endArrow=none;html=1;rounded=0;" parent="eEPNA-gmXamEzi0rjirp-1" edge="1">
          <mxGeometry width="50" height="50" relative="1" as="geometry">
            <mxPoint x="435.87262015503876" y="509.2209944751381" as="sourcePoint" />
            <mxPoint x="435.87262015503876" y="471.43093922651934" as="targetPoint" />
          </mxGeometry>
        </mxCell>
        <mxCell id="G5YHtdSnVFfNY6eWmLNl-5" value="&lt;font style=&quot;font-size: 9px;&quot; face=&quot;isocpeur&quot;&gt;Тест&lt;/font&gt;" style="shape=display;whiteSpace=wrap;html=1;" parent="eEPNA-gmXamEzi0rjirp-1" vertex="1">
          <mxGeometry x="408.4341085271318" y="291.9281767955801" width="45.89147286821705" height="37.790055248618785" as="geometry" />
        </mxCell>
        <mxCell id="G5YHtdSnVFfNY6eWmLNl-21" value="" style="endArrow=classic;html=1;rounded=0;" parent="eEPNA-gmXamEzi0rjirp-1" edge="1">
          <mxGeometry width="50" height="50" relative="1" as="geometry">
            <mxPoint y="1492.7071823204421" as="sourcePoint" />
            <mxPoint y="151.16022099447514" as="targetPoint" />
          </mxGeometry>
        </mxCell>
        <mxCell id="G5YHtdSnVFfNY6eWmLNl-83" value="" style="endArrow=none;html=1;rounded=0;" parent="eEPNA-gmXamEzi0rjirp-1" edge="1">
          <mxGeometry width="50" height="50" relative="1" as="geometry">
            <mxPoint x="362.4049612403101" y="661.3259668508288" as="sourcePoint" />
            <mxPoint x="362.4049612403101" y="623.5359116022099" as="targetPoint" />
            <Array as="points">
              <mxPoint x="362.59311627906976" y="661.3259668508288" />
            </Array>
          </mxGeometry>
        </mxCell>
        <mxCell id="G5YHtdSnVFfNY6eWmLNl-84" value="&lt;font style=&quot;font-size: 9px;&quot; data-font-src=&quot;https://fonts.googleapis.com/css?family=isocpeur&quot; face=&quot;isocpeur&quot;&gt;справка.&lt;br&gt;chm&lt;/font&gt;" style="strokeWidth=1;html=1;shape=mxgraph.flowchart.direct_data;whiteSpace=wrap;" parent="eEPNA-gmXamEzi0rjirp-1" vertex="1">
          <mxGeometry x="339.5968992248062" y="585.7458563535912" width="45.89147286821705" height="37.790055248618785" as="geometry" />
        </mxCell>
        <mxCell id="G5YHtdSnVFfNY6eWmLNl-85" value="" style="endArrow=none;html=1;rounded=0;" parent="eEPNA-gmXamEzi0rjirp-1" edge="1">
          <mxGeometry width="50" height="50" relative="1" as="geometry">
            <mxPoint x="362.40496124031006" y="585.7458563535912" as="sourcePoint" />
            <mxPoint x="362.40496124031006" y="547.9558011049724" as="targetPoint" />
            <Array as="points">
              <mxPoint x="362.4049612403101" y="585.7458563535912" />
            </Array>
          </mxGeometry>
        </mxCell>
        <mxCell id="G5YHtdSnVFfNY6eWmLNl-86" value="&lt;font style=&quot;font-size: 9px;&quot; data-font-src=&quot;https://fonts.googleapis.com/css?family=isocpeur&quot; face=&quot;isocpeur&quot;&gt;Отбражение справки&lt;/font&gt;" style="rounded=0;whiteSpace=wrap;html=1;" parent="eEPNA-gmXamEzi0rjirp-1" vertex="1">
          <mxGeometry x="339.5968992248062" y="509.2209944751381" width="45.89147286821705" height="37.790055248618785" as="geometry" />
        </mxCell>
        <mxCell id="G5YHtdSnVFfNY6eWmLNl-87" value="" style="endArrow=none;html=1;rounded=0;" parent="eEPNA-gmXamEzi0rjirp-1" edge="1">
          <mxGeometry width="50" height="50" relative="1" as="geometry">
            <mxPoint x="362.40496124031006" y="510.1657458563536" as="sourcePoint" />
            <mxPoint x="362.40496124031006" y="472.37569060773484" as="targetPoint" />
            <Array as="points" />
          </mxGeometry>
        </mxCell>
        <mxCell id="G5YHtdSnVFfNY6eWmLNl-88" value="&lt;font style=&quot;font-size: 9px;&quot; data-font-src=&quot;https://fonts.googleapis.com/css?family=isocpeur&quot; face=&quot;isocpeur&quot;&gt;Справка&lt;/font&gt;" style="shape=display;whiteSpace=wrap;html=1;" parent="eEPNA-gmXamEzi0rjirp-1" vertex="1">
          <mxGeometry x="339.5968992248062" y="434.58563535911605" width="45.89147286821705" height="37.790055248618785" as="geometry" />
        </mxCell>
        <mxCell id="G5YHtdSnVFfNY6eWmLNl-89" value="" style="endArrow=none;html=1;rounded=0;" parent="eEPNA-gmXamEzi0rjirp-1" edge="1">
          <mxGeometry width="50" height="50" relative="1" as="geometry">
            <mxPoint x="362.40496124031006" y="434.58563535911605" as="sourcePoint" />
            <mxPoint x="362.40496124031006" y="396.79558011049727" as="targetPoint" />
          </mxGeometry>
        </mxCell>
        <mxCell id="G5YHtdSnVFfNY6eWmLNl-92" value="" style="endArrow=none;html=1;rounded=0;" parent="eEPNA-gmXamEzi0rjirp-1" edge="1">
          <mxGeometry width="50" height="50" relative="1" as="geometry">
            <mxPoint x="413.0232558139535" y="509.2209944751381" as="sourcePoint" />
            <mxPoint x="564.4651162790698" y="509.2209944751381" as="targetPoint" />
          </mxGeometry>
        </mxCell>
        <mxCell id="G5YHtdSnVFfNY6eWmLNl-93" value="&lt;font style=&quot;font-size: 9px;&quot; face=&quot;isocpeur&quot;&gt;Главная&lt;/font&gt;" style="shape=display;whiteSpace=wrap;html=1;" parent="eEPNA-gmXamEzi0rjirp-1" vertex="1">
          <mxGeometry x="390.07751937984494" y="584.8011049723757" width="45.89147286821705" height="47.23756906077348" as="geometry" />
        </mxCell>
        <mxCell id="G5YHtdSnVFfNY6eWmLNl-94" value="&lt;font style=&quot;font-size: 9px;&quot; face=&quot;isocpeur&quot;&gt;Как развивать ЭИ&lt;/font&gt;" style="shape=display;whiteSpace=wrap;html=1;" parent="eEPNA-gmXamEzi0rjirp-1" vertex="1">
          <mxGeometry x="440.5581395348837" y="583.8563535911602" width="45.89147286821705" height="48.18232044198895" as="geometry" />
        </mxCell>
        <mxCell id="G5YHtdSnVFfNY6eWmLNl-95" value="&lt;font style=&quot;font-size: 9px;&quot; face=&quot;isocpeur&quot;&gt;Элементы ЭИ&lt;/font&gt;" style="shape=display;whiteSpace=wrap;html=1;" parent="eEPNA-gmXamEzi0rjirp-1" vertex="1">
          <mxGeometry x="491.0387596899225" y="583.8563535911602" width="45.89147286821705" height="47.23756906077348" as="geometry" />
        </mxCell>
        <mxCell id="G5YHtdSnVFfNY6eWmLNl-96" value="&lt;font style=&quot;font-size: 9px;&quot; face=&quot;isocpeur&quot;&gt;Игры&lt;/font&gt;" style="shape=display;whiteSpace=wrap;html=1;" parent="eEPNA-gmXamEzi0rjirp-1" vertex="1">
          <mxGeometry x="541.5193798449612" y="583.8563535911602" width="45.89147286821705" height="47.23756906077348" as="geometry" />
        </mxCell>
        <mxCell id="G5YHtdSnVFfNY6eWmLNl-97" value="" style="endArrow=none;html=1;rounded=0;" parent="eEPNA-gmXamEzi0rjirp-1" edge="1">
          <mxGeometry width="50" height="50" relative="1" as="geometry">
            <mxPoint x="412.8855813953489" y="509.2209944751381" as="sourcePoint" />
            <mxPoint x="413.0232558139535" y="584.8011049723757" as="targetPoint" />
          </mxGeometry>
        </mxCell>
        <mxCell id="G5YHtdSnVFfNY6eWmLNl-98" value="" style="endArrow=none;html=1;rounded=0;" parent="eEPNA-gmXamEzi0rjirp-1" edge="1">
          <mxGeometry width="50" height="50" relative="1" as="geometry">
            <mxPoint x="463.50387596899225" y="509.2209944751381" as="sourcePoint" />
            <mxPoint x="463.4992868217054" y="583.8563535911602" as="targetPoint" />
          </mxGeometry>
        </mxCell>
        <mxCell id="G5YHtdSnVFfNY6eWmLNl-99" value="" style="endArrow=none;html=1;rounded=0;" parent="eEPNA-gmXamEzi0rjirp-1" edge="1">
          <mxGeometry width="50" height="50" relative="1" as="geometry">
            <mxPoint x="513.984496124031" y="509.2209944751381" as="sourcePoint" />
            <mxPoint x="513.8468217054264" y="583.8563535911602" as="targetPoint" />
          </mxGeometry>
        </mxCell>
        <mxCell id="G5YHtdSnVFfNY6eWmLNl-100" value="" style="endArrow=none;html=1;rounded=0;" parent="eEPNA-gmXamEzi0rjirp-1" edge="1">
          <mxGeometry width="50" height="50" relative="1" as="geometry">
            <mxPoint x="564.4651162790698" y="509.2209944751381" as="sourcePoint" />
            <mxPoint x="564.3274418604651" y="583.8563535911602" as="targetPoint" />
          </mxGeometry>
        </mxCell>
        <mxCell id="G5YHtdSnVFfNY6eWmLNl-101" value="&lt;font style=&quot;font-size: 9px;&quot; face=&quot;isocpeur&quot;&gt;Начать тест&lt;/font&gt;" style="shape=display;whiteSpace=wrap;html=1;" parent="eEPNA-gmXamEzi0rjirp-1" vertex="1">
          <mxGeometry x="631.0077519379845" y="434.58563535911605" width="45.89147286821705" height="37.790055248618785" as="geometry" />
        </mxCell>
        <mxCell id="G5YHtdSnVFfNY6eWmLNl-102" value="" style="endArrow=none;html=1;rounded=0;" parent="eEPNA-gmXamEzi0rjirp-1" edge="1">
          <mxGeometry width="50" height="50" relative="1" as="geometry">
            <mxPoint x="653.4165581395348" y="435.5303867403315" as="sourcePoint" />
            <mxPoint x="653.4165581395348" y="359.9502762430939" as="targetPoint" />
          </mxGeometry>
        </mxCell>
        <mxCell id="G5YHtdSnVFfNY6eWmLNl-103" value="" style="endArrow=none;html=1;rounded=0;" parent="eEPNA-gmXamEzi0rjirp-1" edge="1">
          <mxGeometry width="50" height="50" relative="1" as="geometry">
            <mxPoint x="654.0085581395348" y="586.6906077348067" as="sourcePoint" />
            <mxPoint x="653.875472868217" y="473.3204419889503" as="targetPoint" />
          </mxGeometry>
        </mxCell>
        <mxCell id="G5YHtdSnVFfNY6eWmLNl-104" value="&lt;font style=&quot;font-size: 9px;&quot; data-font-src=&quot;https://fonts.googleapis.com/css?family=isocpeur&quot; face=&quot;isocpeur&quot;&gt;тест.txt&lt;/font&gt;" style="strokeWidth=1;html=1;shape=mxgraph.flowchart.direct_data;whiteSpace=wrap;" parent="eEPNA-gmXamEzi0rjirp-1" vertex="1">
          <mxGeometry x="631.0077519379845" y="586.6906077348067" width="45.89147286821705" height="37.790055248618785" as="geometry" />
        </mxCell>
        <mxCell id="G5YHtdSnVFfNY6eWmLNl-105" value="" style="endArrow=none;html=1;rounded=0;" parent="eEPNA-gmXamEzi0rjirp-1" edge="1">
          <mxGeometry width="50" height="50" relative="1" as="geometry">
            <mxPoint x="653.4945736434108" y="662.2707182320443" as="sourcePoint" />
            <mxPoint x="653.6827286821705" y="624.4806629834254" as="targetPoint" />
          </mxGeometry>
        </mxCell>
        <mxCell id="G5YHtdSnVFfNY6eWmLNl-106" value="&lt;font data-font-src=&quot;https://fonts.googleapis.com/css?family=isocpeur&quot; face=&quot;isocpeur&quot; style=&quot;font-size: 9px;&quot;&gt;&lt;br&gt;Выбор варианта ответа&lt;/font&gt;" style="shape=manualInput;whiteSpace=wrap;html=1;size=27;" parent="eEPNA-gmXamEzi0rjirp-1" vertex="1">
          <mxGeometry x="628.7131782945736" y="651.878453038674" width="45.89147286821705" height="56.68508287292818" as="geometry" />
        </mxCell>
        <mxCell id="G5YHtdSnVFfNY6eWmLNl-107" value="&lt;font style=&quot;font-size: 9px;&quot; face=&quot;isocpeur&quot;&gt;Далее&lt;/font&gt;" style="shape=display;whiteSpace=wrap;html=1;" parent="eEPNA-gmXamEzi0rjirp-1" vertex="1">
          <mxGeometry x="628.7131782945736" y="736.9060773480663" width="45.89147286821705" height="37.790055248618785" as="geometry" />
        </mxCell>
        <mxCell id="G5YHtdSnVFfNY6eWmLNl-108" value="" style="endArrow=none;html=1;rounded=0;" parent="eEPNA-gmXamEzi0rjirp-1" edge="1">
          <mxGeometry width="50" height="50" relative="1" as="geometry">
            <mxPoint x="651.5487751937984" y="736.9060773480663" as="sourcePoint" />
            <mxPoint x="651.736930232558" y="708.5635359116022" as="targetPoint" />
          </mxGeometry>
        </mxCell>
        <mxCell id="G5YHtdSnVFfNY6eWmLNl-110" value="&lt;font data-font-src=&quot;https://fonts.googleapis.com/css?family=isocpeur&quot; face=&quot;isocpeur&quot; style=&quot;font-size: 9px;&quot;&gt;Последний вопрос?&lt;/font&gt;" style="rhombus;whiteSpace=wrap;html=1;" parent="eEPNA-gmXamEzi0rjirp-1" vertex="1">
          <mxGeometry x="628.7131782945736" y="803.0386740331492" width="45.89147286821705" height="56.68508287292818" as="geometry" />
        </mxCell>
        <mxCell id="G5YHtdSnVFfNY6eWmLNl-111" value="" style="endArrow=none;html=1;rounded=0;" parent="eEPNA-gmXamEzi0rjirp-1" edge="1">
          <mxGeometry width="50" height="50" relative="1" as="geometry">
            <mxPoint x="651.5258294573644" y="803.0386740331492" as="sourcePoint" />
            <mxPoint x="651.713984496124" y="774.6961325966851" as="targetPoint" />
          </mxGeometry>
        </mxCell>
        <mxCell id="G5YHtdSnVFfNY6eWmLNl-112" value="" style="endArrow=classic;html=1;rounded=0;" parent="eEPNA-gmXamEzi0rjirp-1" edge="1">
          <mxGeometry width="50" height="50" relative="1" as="geometry">
            <mxPoint x="628.7131782945736" y="831.1072375690609" as="sourcePoint" />
            <mxPoint x="605.767441860465" y="831.3812154696133" as="targetPoint" />
          </mxGeometry>
        </mxCell>
        <mxCell id="G5YHtdSnVFfNY6eWmLNl-113" value="" style="endArrow=classic;html=1;rounded=0;" parent="eEPNA-gmXamEzi0rjirp-1" edge="1">
          <mxGeometry width="50" height="50" relative="1" as="geometry">
            <mxPoint x="605.767441860465" y="831.3812154696133" as="sourcePoint" />
            <mxPoint x="605.767441860465" y="642.4309392265194" as="targetPoint" />
          </mxGeometry>
        </mxCell>
        <mxCell id="G5YHtdSnVFfNY6eWmLNl-114" value="" style="endArrow=none;html=1;rounded=0;" parent="eEPNA-gmXamEzi0rjirp-1" edge="1">
          <mxGeometry width="50" height="50" relative="1" as="geometry">
            <mxPoint x="606.6852713178295" y="644.9061878453039" as="sourcePoint" />
            <mxPoint x="652.5767441860465" y="645.2651933701658" as="targetPoint" />
          </mxGeometry>
        </mxCell>
        <mxCell id="G5YHtdSnVFfNY6eWmLNl-115" value="&lt;font style=&quot;font-size: 9px;&quot; data-font-src=&quot;https://fonts.googleapis.com/css?family=isocpeur&quot; face=&quot;isocpeur&quot;&gt;Нет&lt;/font&gt;" style="text;html=1;align=center;verticalAlign=middle;resizable=0;points=[];autosize=1;strokeColor=none;fillColor=none;" parent="eEPNA-gmXamEzi0rjirp-1" vertex="1">
          <mxGeometry x="601.1765891472869" y="803.9086740331492" width="40" height="30" as="geometry" />
        </mxCell>
        <mxCell id="G5YHtdSnVFfNY6eWmLNl-116" value="" style="endArrow=none;html=1;rounded=0;" parent="eEPNA-gmXamEzi0rjirp-1" edge="1">
          <mxGeometry width="50" height="50" relative="1" as="geometry">
            <mxPoint x="674.6046511627907" y="831.3812154696133" as="sourcePoint" />
            <mxPoint x="697.5503875968992" y="831.3812154696133" as="targetPoint" />
          </mxGeometry>
        </mxCell>
        <mxCell id="G5YHtdSnVFfNY6eWmLNl-117" value="&lt;font style=&quot;font-size: 9px;&quot; data-font-src=&quot;https://fonts.googleapis.com/css?family=isocpeur&quot; face=&quot;isocpeur&quot;&gt;Да&lt;/font&gt;" style="text;html=1;align=center;verticalAlign=middle;resizable=0;points=[];autosize=1;strokeColor=none;fillColor=none;" parent="eEPNA-gmXamEzi0rjirp-1" vertex="1">
          <mxGeometry x="679.6046511627907" y="803.0386740331492" width="30" height="30" as="geometry" />
        </mxCell>
        <mxCell id="G5YHtdSnVFfNY6eWmLNl-118" value="" style="endArrow=none;html=1;rounded=0;" parent="eEPNA-gmXamEzi0rjirp-1" edge="1">
          <mxGeometry width="50" height="50" relative="1" as="geometry">
            <mxPoint x="697.5503875968992" y="878.6187845303867" as="sourcePoint" />
            <mxPoint x="697.7385426356589" y="831.3812154696133" as="targetPoint" />
          </mxGeometry>
        </mxCell>
        <mxCell id="G5YHtdSnVFfNY6eWmLNl-119" value="&lt;font style=&quot;font-size: 9px;&quot; face=&quot;isocpeur&quot;&gt;Узнать результаты&lt;/font&gt;" style="shape=display;whiteSpace=wrap;html=1;" parent="eEPNA-gmXamEzi0rjirp-1" vertex="1">
          <mxGeometry x="671.1500000000001" y="879.21" width="55.4" height="37.79" as="geometry" />
        </mxCell>
        <mxCell id="G5YHtdSnVFfNY6eWmLNl-120" value="" style="endArrow=none;html=1;rounded=0;" parent="eEPNA-gmXamEzi0rjirp-1" edge="1">
          <mxGeometry width="50" height="50" relative="1" as="geometry">
            <mxPoint x="697.5503875968992" y="954.1988950276243" as="sourcePoint" />
            <mxPoint x="697.5825116279069" y="916.4088397790056" as="targetPoint" />
          </mxGeometry>
        </mxCell>
        <mxCell id="G5YHtdSnVFfNY6eWmLNl-121" value="&lt;font style=&quot;font-size: 9px;&quot; face=&quot;isocpeur&quot;&gt;Форма Узнать результаты&lt;/font&gt;" style="shape=display;whiteSpace=wrap;html=1;size=0.3570075757575741;" parent="eEPNA-gmXamEzi0rjirp-1" vertex="1">
          <mxGeometry x="671.15" y="953" width="52.8" height="75" as="geometry" />
        </mxCell>
        <mxCell id="G5YHtdSnVFfNY6eWmLNl-122" value="" style="endArrow=none;html=1;rounded=0;" parent="eEPNA-gmXamEzi0rjirp-1" edge="1">
          <mxGeometry width="50" height="50" relative="1" as="geometry">
            <mxPoint x="698" y="1037" as="sourcePoint" />
            <mxPoint x="698" y="1027" as="targetPoint" />
          </mxGeometry>
        </mxCell>
        <mxCell id="G5YHtdSnVFfNY6eWmLNl-123" value="" style="endArrow=none;html=1;rounded=0;" parent="eEPNA-gmXamEzi0rjirp-1" edge="1">
          <mxGeometry width="50" height="50" relative="1" as="geometry">
            <mxPoint x="654.8713178294573" y="1037.3370165745857" as="sourcePoint" />
            <mxPoint x="876.5271317829457" y="1037.3370165745857" as="targetPoint" />
          </mxGeometry>
        </mxCell>
        <mxCell id="G5YHtdSnVFfNY6eWmLNl-124" value="" style="endArrow=none;html=1;rounded=0;" parent="eEPNA-gmXamEzi0rjirp-1" edge="1">
          <mxGeometry width="50" height="50" relative="1" as="geometry">
            <mxPoint x="654.8713178294573" y="1075.1270718232045" as="sourcePoint" />
            <mxPoint x="654.8713178294573" y="1037.3370165745857" as="targetPoint" />
          </mxGeometry>
        </mxCell>
        <mxCell id="G5YHtdSnVFfNY6eWmLNl-125" value="" style="endArrow=none;html=1;rounded=0;" parent="eEPNA-gmXamEzi0rjirp-1" edge="1">
          <mxGeometry width="50" height="50" relative="1" as="geometry">
            <mxPoint x="623.6651162790697" y="1075.1270718232045" as="sourcePoint" />
            <mxPoint x="697.5503875968992" y="1075.1270718232045" as="targetPoint" />
          </mxGeometry>
        </mxCell>
        <mxCell id="G5YHtdSnVFfNY6eWmLNl-126" value="" style="endArrow=classic;html=1;rounded=0;" parent="eEPNA-gmXamEzi0rjirp-1" edge="1">
          <mxGeometry width="50" height="50" relative="1" as="geometry">
            <mxPoint x="624" y="1340" as="sourcePoint" />
            <mxPoint x="595" y="1340" as="targetPoint" />
          </mxGeometry>
        </mxCell>
        <mxCell id="G5YHtdSnVFfNY6eWmLNl-127" value="" style="endArrow=classic;html=1;rounded=0;" parent="eEPNA-gmXamEzi0rjirp-1" edge="1">
          <mxGeometry width="50" height="50" relative="1" as="geometry">
            <mxPoint x="596.5891472868217" y="1341.1690607734806" as="sourcePoint" />
            <mxPoint x="596.5891472868217" y="934.9259668508287" as="targetPoint" />
          </mxGeometry>
        </mxCell>
        <mxCell id="G5YHtdSnVFfNY6eWmLNl-128" value="" style="endArrow=none;html=1;rounded=0;" parent="eEPNA-gmXamEzi0rjirp-1" edge="1">
          <mxGeometry width="50" height="50" relative="1" as="geometry">
            <mxPoint x="697.5503875968992" y="1112.9171270718232" as="sourcePoint" />
            <mxPoint x="697.5503875968992" y="1075.1270718232045" as="targetPoint" />
          </mxGeometry>
        </mxCell>
        <mxCell id="G5YHtdSnVFfNY6eWmLNl-129" value="&lt;font style=&quot;font-size: 9px;&quot; face=&quot;isocpeur&quot;&gt;Приложение&lt;/font&gt;" style="shape=display;whiteSpace=wrap;html=1;" parent="eEPNA-gmXamEzi0rjirp-1" vertex="1">
          <mxGeometry x="674.6046511627907" y="1112.9171270718232" width="45.89147286821705" height="37.790055248618785" as="geometry" />
        </mxCell>
        <mxCell id="G5YHtdSnVFfNY6eWmLNl-130" value="" style="endArrow=none;html=1;rounded=0;" parent="eEPNA-gmXamEzi0rjirp-1" edge="1">
          <mxGeometry width="50" height="50" relative="1" as="geometry">
            <mxPoint x="697.4540155038759" y="1187.5524861878453" as="sourcePoint" />
            <mxPoint x="697.4540155038759" y="1149.7624309392265" as="targetPoint" />
          </mxGeometry>
        </mxCell>
        <mxCell id="G5YHtdSnVFfNY6eWmLNl-131" value="" style="endArrow=none;html=1;rounded=0;" parent="eEPNA-gmXamEzi0rjirp-1" edge="1">
          <mxGeometry width="50" height="50" relative="1" as="geometry">
            <mxPoint x="623.9863565891472" y="1339.657458563536" as="sourcePoint" />
            <mxPoint x="623.9863565891472" y="1301.867403314917" as="targetPoint" />
            <Array as="points">
              <mxPoint x="624.174511627907" y="1339.657458563536" />
            </Array>
          </mxGeometry>
        </mxCell>
        <mxCell id="G5YHtdSnVFfNY6eWmLNl-132" value="&lt;font style=&quot;font-size: 9px;&quot; data-font-src=&quot;https://fonts.googleapis.com/css?family=isocpeur&quot; face=&quot;isocpeur&quot;&gt;справка.chm&lt;/font&gt;" style="strokeWidth=1;html=1;shape=mxgraph.flowchart.direct_data;whiteSpace=wrap;" parent="eEPNA-gmXamEzi0rjirp-1" vertex="1">
          <mxGeometry x="601.1782945736434" y="1264.0773480662983" width="45.89147286821705" height="37.790055248618785" as="geometry" />
        </mxCell>
        <mxCell id="G5YHtdSnVFfNY6eWmLNl-133" value="" style="endArrow=none;html=1;rounded=0;" parent="eEPNA-gmXamEzi0rjirp-1" edge="1">
          <mxGeometry width="50" height="50" relative="1" as="geometry">
            <mxPoint x="623.9863565891472" y="1264.0773480662983" as="sourcePoint" />
            <mxPoint x="623.9863565891472" y="1226.2872928176796" as="targetPoint" />
            <Array as="points">
              <mxPoint x="623.9863565891472" y="1264.0773480662983" />
            </Array>
          </mxGeometry>
        </mxCell>
        <mxCell id="G5YHtdSnVFfNY6eWmLNl-134" value="&lt;font style=&quot;font-size: 9px;&quot; data-font-src=&quot;https://fonts.googleapis.com/css?family=isocpeur&quot; face=&quot;isocpeur&quot;&gt;Отбражение справки&lt;/font&gt;" style="rounded=0;whiteSpace=wrap;html=1;" parent="eEPNA-gmXamEzi0rjirp-1" vertex="1">
          <mxGeometry x="601.1782945736434" y="1187.5524861878453" width="45.89147286821705" height="37.790055248618785" as="geometry" />
        </mxCell>
        <mxCell id="G5YHtdSnVFfNY6eWmLNl-135" value="" style="endArrow=none;html=1;rounded=0;" parent="eEPNA-gmXamEzi0rjirp-1" edge="1">
          <mxGeometry width="50" height="50" relative="1" as="geometry">
            <mxPoint x="623.9863565891472" y="1188.4972375690609" as="sourcePoint" />
            <mxPoint x="623.9863565891472" y="1150.707182320442" as="targetPoint" />
            <Array as="points" />
          </mxGeometry>
        </mxCell>
        <mxCell id="G5YHtdSnVFfNY6eWmLNl-136" value="&lt;font style=&quot;font-size: 9px;&quot; data-font-src=&quot;https://fonts.googleapis.com/css?family=isocpeur&quot; face=&quot;isocpeur&quot;&gt;Справка&lt;/font&gt;" style="shape=display;whiteSpace=wrap;html=1;" parent="eEPNA-gmXamEzi0rjirp-1" vertex="1">
          <mxGeometry x="601.1782945736434" y="1112.9171270718232" width="45.89147286821705" height="37.790055248618785" as="geometry" />
        </mxCell>
        <mxCell id="G5YHtdSnVFfNY6eWmLNl-137" value="" style="endArrow=none;html=1;rounded=0;" parent="eEPNA-gmXamEzi0rjirp-1" edge="1">
          <mxGeometry width="50" height="50" relative="1" as="geometry">
            <mxPoint x="623.9863565891472" y="1112.9171270718232" as="sourcePoint" />
            <mxPoint x="623.9863565891472" y="1075.1270718232045" as="targetPoint" />
          </mxGeometry>
        </mxCell>
        <mxCell id="G5YHtdSnVFfNY6eWmLNl-138" value="" style="endArrow=none;html=1;rounded=0;" parent="eEPNA-gmXamEzi0rjirp-1" edge="1">
          <mxGeometry width="50" height="50" relative="1" as="geometry">
            <mxPoint x="674.6046511627907" y="1187.5524861878453" as="sourcePoint" />
            <mxPoint x="826.046511627907" y="1187.5524861878453" as="targetPoint" />
          </mxGeometry>
        </mxCell>
        <mxCell id="G5YHtdSnVFfNY6eWmLNl-139" value="&lt;font style=&quot;font-size: 9px;&quot; face=&quot;isocpeur&quot;&gt;Главная&lt;/font&gt;" style="shape=display;whiteSpace=wrap;html=1;" parent="eEPNA-gmXamEzi0rjirp-1" vertex="1">
          <mxGeometry x="651.6589147286821" y="1263.132596685083" width="45.89147286821705" height="47.23756906077348" as="geometry" />
        </mxCell>
        <mxCell id="G5YHtdSnVFfNY6eWmLNl-140" value="&lt;font style=&quot;font-size: 9px;&quot; face=&quot;isocpeur&quot;&gt;Как развивать ЭИ&lt;/font&gt;" style="shape=display;whiteSpace=wrap;html=1;" parent="eEPNA-gmXamEzi0rjirp-1" vertex="1">
          <mxGeometry x="702.1395348837209" y="1262.1878453038673" width="45.89147286821705" height="48.18232044198895" as="geometry" />
        </mxCell>
        <mxCell id="G5YHtdSnVFfNY6eWmLNl-141" value="&lt;font style=&quot;font-size: 9px;&quot; face=&quot;isocpeur&quot;&gt;Элементы ЭИ&lt;/font&gt;" style="shape=display;whiteSpace=wrap;html=1;" parent="eEPNA-gmXamEzi0rjirp-1" vertex="1">
          <mxGeometry x="752.6201550387597" y="1262.1878453038673" width="45.89147286821705" height="47.23756906077348" as="geometry" />
        </mxCell>
        <mxCell id="G5YHtdSnVFfNY6eWmLNl-142" value="&lt;font style=&quot;font-size: 9px;&quot; face=&quot;isocpeur&quot;&gt;Игры&lt;/font&gt;" style="shape=display;whiteSpace=wrap;html=1;" parent="eEPNA-gmXamEzi0rjirp-1" vertex="1">
          <mxGeometry x="803.1007751937984" y="1262.1878453038673" width="45.89147286821705" height="47.23756906077348" as="geometry" />
        </mxCell>
        <mxCell id="G5YHtdSnVFfNY6eWmLNl-143" value="" style="endArrow=none;html=1;rounded=0;" parent="eEPNA-gmXamEzi0rjirp-1" edge="1">
          <mxGeometry width="50" height="50" relative="1" as="geometry">
            <mxPoint x="674.466976744186" y="1187.5524861878453" as="sourcePoint" />
            <mxPoint x="674.6046511627907" y="1263.132596685083" as="targetPoint" />
          </mxGeometry>
        </mxCell>
        <mxCell id="G5YHtdSnVFfNY6eWmLNl-144" value="" style="endArrow=none;html=1;rounded=0;" parent="eEPNA-gmXamEzi0rjirp-1" edge="1">
          <mxGeometry width="50" height="50" relative="1" as="geometry">
            <mxPoint x="725.0852713178294" y="1187.5524861878453" as="sourcePoint" />
            <mxPoint x="725.0806821705427" y="1262.1878453038673" as="targetPoint" />
          </mxGeometry>
        </mxCell>
        <mxCell id="G5YHtdSnVFfNY6eWmLNl-145" value="" style="endArrow=none;html=1;rounded=0;" parent="eEPNA-gmXamEzi0rjirp-1" edge="1">
          <mxGeometry width="50" height="50" relative="1" as="geometry">
            <mxPoint x="775.5658914728682" y="1187.5524861878453" as="sourcePoint" />
            <mxPoint x="775.4282170542635" y="1262.1878453038673" as="targetPoint" />
          </mxGeometry>
        </mxCell>
        <mxCell id="G5YHtdSnVFfNY6eWmLNl-146" value="" style="endArrow=none;html=1;rounded=0;" parent="eEPNA-gmXamEzi0rjirp-1" edge="1">
          <mxGeometry width="50" height="50" relative="1" as="geometry">
            <mxPoint x="826.046511627907" y="1187.5524861878453" as="sourcePoint" />
            <mxPoint x="825.9088372093023" y="1262.1878453038673" as="targetPoint" />
          </mxGeometry>
        </mxCell>
        <mxCell id="G5YHtdSnVFfNY6eWmLNl-147" value="" style="endArrow=none;html=1;rounded=0;" parent="eEPNA-gmXamEzi0rjirp-1" edge="1">
          <mxGeometry width="50" height="50" relative="1" as="geometry">
            <mxPoint x="596.5891472868217" y="935.3038674033149" as="sourcePoint" />
            <mxPoint x="697.5503875968992" y="935.3038674033149" as="targetPoint" />
          </mxGeometry>
        </mxCell>
        <mxCell id="G5YHtdSnVFfNY6eWmLNl-148" value="" style="endArrow=none;html=1;rounded=0;" parent="eEPNA-gmXamEzi0rjirp-1" edge="1">
          <mxGeometry width="50" height="50" relative="1" as="geometry">
            <mxPoint x="876.5271317829457" y="1113.8618784530388" as="sourcePoint" />
            <mxPoint x="876.5271317829457" y="1038.2817679558011" as="targetPoint" />
          </mxGeometry>
        </mxCell>
        <mxCell id="G5YHtdSnVFfNY6eWmLNl-149" value="&lt;font style=&quot;font-size: 9px;&quot; face=&quot;isocpeur&quot;&gt;Результаты теста по категориям&lt;br&gt;.txt&lt;/font&gt;" style="strokeWidth=1;html=1;shape=mxgraph.flowchart.direct_data;whiteSpace=wrap;" parent="eEPNA-gmXamEzi0rjirp-1" vertex="1">
          <mxGeometry x="853.5813953488372" y="1105.3591160220994" width="45.89147286821705" height="56.68508287292818" as="geometry" />
        </mxCell>
        <mxCell id="G5YHtdSnVFfNY6eWmLNl-150" value="&lt;font style=&quot;font-size: 9px;&quot; face=&quot;isocpeur&quot;&gt;Отображения баллов за каждый вопрос&lt;/font&gt;" style="rounded=0;whiteSpace=wrap;html=1;" parent="eEPNA-gmXamEzi0rjirp-1" vertex="1">
          <mxGeometry x="853.58" y="1180" width="45.89" height="59.51" as="geometry" />
        </mxCell>
        <mxCell id="G5YHtdSnVFfNY6eWmLNl-151" value="" style="endArrow=none;html=1;rounded=0;exitX=0.5;exitY=0;exitDx=0;exitDy=0;" parent="eEPNA-gmXamEzi0rjirp-1" edge="1" source="G5YHtdSnVFfNY6eWmLNl-150">
          <mxGeometry width="50" height="50" relative="1" as="geometry">
            <mxPoint x="880" y="1180" as="sourcePoint" />
            <mxPoint x="876.4169922480621" y="1162.0441988950276" as="targetPoint" />
            <Array as="points" />
          </mxGeometry>
        </mxCell>
        <mxCell id="G5YHtdSnVFfNY6eWmLNl-152" value="" style="endArrow=none;html=1;rounded=0;" parent="eEPNA-gmXamEzi0rjirp-1" edge="1">
          <mxGeometry width="50" height="50" relative="1" as="geometry">
            <mxPoint x="876.3711007751937" y="1267.8563535911603" as="sourcePoint" />
            <mxPoint x="876.3711007751937" y="1239.513812154696" as="targetPoint" />
            <Array as="points" />
          </mxGeometry>
        </mxCell>
        <mxCell id="G5YHtdSnVFfNY6eWmLNl-153" value="&lt;font style=&quot;font-size: 9px;&quot; face=&quot;isocpeur&quot;&gt;*.htm&lt;/font&gt;" style="strokeWidth=1;html=1;shape=mxgraph.flowchart.direct_data;whiteSpace=wrap;" parent="eEPNA-gmXamEzi0rjirp-1" vertex="1">
          <mxGeometry x="853.5813953488372" y="1264.0773480662983" width="45.89147286821705" height="30.23204419889503" as="geometry" />
        </mxCell>
        <mxCell id="G5YHtdSnVFfNY6eWmLNl-154" value="" style="endArrow=none;html=1;rounded=0;" parent="eEPNA-gmXamEzi0rjirp-1" edge="1">
          <mxGeometry width="50" height="50" relative="1" as="geometry">
            <mxPoint x="876.3711007751937" y="1322.6519337016575" as="sourcePoint" />
            <mxPoint x="876.3711007751937" y="1294.3093922651933" as="targetPoint" />
            <Array as="points" />
          </mxGeometry>
        </mxCell>
        <mxCell id="G5YHtdSnVFfNY6eWmLNl-155" value="&lt;font style=&quot;font-size: 9px;&quot; face=&quot;isocpeur&quot;&gt;результаты&lt;br&gt;.txt&lt;/font&gt;" style="strokeWidth=1;html=1;shape=mxgraph.flowchart.direct_data;whiteSpace=wrap;" parent="eEPNA-gmXamEzi0rjirp-1" vertex="1">
          <mxGeometry x="853.5813953488372" y="1322.6519337016575" width="45.89147286821705" height="37.790055248618785" as="geometry" />
        </mxCell>
        <mxCell id="G5YHtdSnVFfNY6eWmLNl-156" value="" style="endArrow=none;html=1;rounded=0;" parent="eEPNA-gmXamEzi0rjirp-1" edge="1">
          <mxGeometry width="50" height="50" relative="1" as="geometry">
            <mxPoint x="876.3711007751937" y="1388.7845303867405" as="sourcePoint" />
            <mxPoint x="876.3711007751937" y="1360.4419889502763" as="targetPoint" />
            <Array as="points" />
          </mxGeometry>
        </mxCell>
        <mxCell id="G5YHtdSnVFfNY6eWmLNl-157" value="&lt;font style=&quot;font-size: 9px;&quot; face=&quot;isocpeur&quot;&gt;Просмотр общих результатов и баллов за тест&lt;/font&gt;" style="rounded=0;whiteSpace=wrap;html=1;" parent="eEPNA-gmXamEzi0rjirp-1" vertex="1">
          <mxGeometry x="853.58" y="1388.78" width="45.89" height="71.22" as="geometry" />
        </mxCell>
        <mxCell id="G5YHtdSnVFfNY6eWmLNl-158" value="" style="endArrow=none;html=1;rounded=0;" parent="eEPNA-gmXamEzi0rjirp-1" edge="1">
          <mxGeometry width="50" height="50" relative="1" as="geometry">
            <mxPoint x="917" y="287" as="sourcePoint" />
            <mxPoint x="917" y="237" as="targetPoint" />
          </mxGeometry>
        </mxCell>
        <mxCell id="G5YHtdSnVFfNY6eWmLNl-159" value="&lt;font style=&quot;font-size: 9px;&quot; face=&quot;isocpeur&quot;&gt;Как развивать ЭИ&lt;/font&gt;" style="shape=display;whiteSpace=wrap;html=1;" parent="eEPNA-gmXamEzi0rjirp-1" vertex="1">
          <mxGeometry x="891.2124031007752" y="282.4806629834254" width="45.89147286821705" height="37.790055248618785" as="geometry" />
        </mxCell>
        <mxCell id="G5YHtdSnVFfNY6eWmLNl-160" value="" style="endArrow=none;html=1;rounded=0;" parent="eEPNA-gmXamEzi0rjirp-1" edge="1">
          <mxGeometry width="50" height="50" relative="1" as="geometry">
            <mxPoint x="915.9937984496124" y="350.50276243093924" as="sourcePoint" />
            <mxPoint x="915.9937984496124" y="321.2154696132597" as="targetPoint" />
          </mxGeometry>
        </mxCell>
        <mxCell id="G5YHtdSnVFfNY6eWmLNl-161" value="" style="endArrow=none;html=1;rounded=0;" parent="eEPNA-gmXamEzi0rjirp-1" edge="1">
          <mxGeometry width="50" height="50" relative="1" as="geometry">
            <mxPoint x="875.1503875968992" y="350.50276243093924" as="sourcePoint" />
            <mxPoint x="1084.874418604651" y="349.55801104972375" as="targetPoint" />
          </mxGeometry>
        </mxCell>
        <mxCell id="G5YHtdSnVFfNY6eWmLNl-162" value="" style="endArrow=none;html=1;rounded=0;" parent="eEPNA-gmXamEzi0rjirp-1" edge="1">
          <mxGeometry width="50" height="50" relative="1" as="geometry">
            <mxPoint x="875.1503875968992" y="388.292817679558" as="sourcePoint" />
            <mxPoint x="875.1503875968992" y="350.50276243093924" as="targetPoint" />
          </mxGeometry>
        </mxCell>
        <mxCell id="G5YHtdSnVFfNY6eWmLNl-163" value="" style="endArrow=none;html=1;rounded=0;" parent="eEPNA-gmXamEzi0rjirp-1" edge="1">
          <mxGeometry width="50" height="50" relative="1" as="geometry">
            <mxPoint x="843.9441860465116" y="388.292817679558" as="sourcePoint" />
            <mxPoint x="917.8294573643411" y="388.292817679558" as="targetPoint" />
          </mxGeometry>
        </mxCell>
        <mxCell id="G5YHtdSnVFfNY6eWmLNl-164" value="" style="endArrow=classic;html=1;rounded=0;" parent="eEPNA-gmXamEzi0rjirp-1" edge="1">
          <mxGeometry width="50" height="50" relative="1" as="geometry">
            <mxPoint x="844.4031007751938" y="651.878453038674" as="sourcePoint" />
            <mxPoint x="793.922480620155" y="651.878453038674" as="targetPoint" />
          </mxGeometry>
        </mxCell>
        <mxCell id="G5YHtdSnVFfNY6eWmLNl-165" value="" style="endArrow=classic;html=1;rounded=0;" parent="eEPNA-gmXamEzi0rjirp-1" edge="1">
          <mxGeometry width="50" height="50" relative="1" as="geometry">
            <mxPoint x="794" y="940" as="sourcePoint" />
            <mxPoint x="793.922480620155" y="255.0828729281768" as="targetPoint" />
          </mxGeometry>
        </mxCell>
        <mxCell id="G5YHtdSnVFfNY6eWmLNl-167" value="&lt;font style=&quot;font-size: 9px;&quot; face=&quot;isocpeur&quot;&gt;Приложение&lt;/font&gt;" style="shape=display;whiteSpace=wrap;html=1;" parent="eEPNA-gmXamEzi0rjirp-1" vertex="1">
          <mxGeometry x="894.8837209302326" y="427.02762430939225" width="45.89147286821705" height="37.790055248618785" as="geometry" />
        </mxCell>
        <mxCell id="G5YHtdSnVFfNY6eWmLNl-168" value="" style="endArrow=none;html=1;rounded=0;" parent="eEPNA-gmXamEzi0rjirp-1" edge="1">
          <mxGeometry width="50" height="50" relative="1" as="geometry">
            <mxPoint x="917.7330852713178" y="502.6077348066299" as="sourcePoint" />
            <mxPoint x="917.7330852713178" y="464.81767955801104" as="targetPoint" />
          </mxGeometry>
        </mxCell>
        <mxCell id="G5YHtdSnVFfNY6eWmLNl-169" value="&lt;font style=&quot;font-size: 9px;&quot; data-font-src=&quot;https://fonts.googleapis.com/css?family=isocpeur&quot; face=&quot;isocpeur&quot;&gt;справка&lt;br&gt;.chm&lt;/font&gt;" style="strokeWidth=1;html=1;shape=mxgraph.flowchart.direct_data;whiteSpace=wrap;" parent="eEPNA-gmXamEzi0rjirp-1" vertex="1">
          <mxGeometry x="821.4573643410853" y="576.2983425414365" width="45.89147286821705" height="37.790055248618785" as="geometry" />
        </mxCell>
        <mxCell id="G5YHtdSnVFfNY6eWmLNl-170" value="&lt;font style=&quot;font-size: 9px;&quot; data-font-src=&quot;https://fonts.googleapis.com/css?family=isocpeur&quot; face=&quot;isocpeur&quot;&gt;Отбражение справки&lt;/font&gt;" style="rounded=0;whiteSpace=wrap;html=1;" parent="eEPNA-gmXamEzi0rjirp-1" vertex="1">
          <mxGeometry x="821.4573643410853" y="501.6629834254144" width="45.89147286821705" height="37.790055248618785" as="geometry" />
        </mxCell>
        <mxCell id="G5YHtdSnVFfNY6eWmLNl-171" value="&lt;font style=&quot;font-size: 9px;&quot; data-font-src=&quot;https://fonts.googleapis.com/css?family=isocpeur&quot; face=&quot;isocpeur&quot;&gt;Справка&lt;/font&gt;" style="shape=display;whiteSpace=wrap;html=1;" parent="eEPNA-gmXamEzi0rjirp-1" vertex="1">
          <mxGeometry x="821.4573643410853" y="426.0828729281768" width="45.89147286821705" height="37.790055248618785" as="geometry" />
        </mxCell>
        <mxCell id="G5YHtdSnVFfNY6eWmLNl-172" value="" style="endArrow=none;html=1;rounded=0;" parent="eEPNA-gmXamEzi0rjirp-1" edge="1">
          <mxGeometry width="50" height="50" relative="1" as="geometry">
            <mxPoint x="895.0213953488372" y="501.6629834254144" as="sourcePoint" />
            <mxPoint x="1046.4632558139535" y="501.6629834254144" as="targetPoint" />
          </mxGeometry>
        </mxCell>
        <mxCell id="G5YHtdSnVFfNY6eWmLNl-173" value="&lt;font style=&quot;font-size: 9px;&quot; face=&quot;isocpeur&quot;&gt;Главная&lt;/font&gt;" style="shape=display;whiteSpace=wrap;html=1;" parent="eEPNA-gmXamEzi0rjirp-1" vertex="1">
          <mxGeometry x="871.937984496124" y="577.243093922652" width="45.89147286821705" height="36.84530386740332" as="geometry" />
        </mxCell>
        <mxCell id="G5YHtdSnVFfNY6eWmLNl-174" value="&lt;font style=&quot;font-size: 9px;&quot; face=&quot;isocpeur&quot;&gt;Тест&lt;/font&gt;" style="shape=display;whiteSpace=wrap;html=1;" parent="eEPNA-gmXamEzi0rjirp-1" vertex="1">
          <mxGeometry x="922.5562790697675" y="576.2983425414365" width="45.89147286821705" height="37.790055248618785" as="geometry" />
        </mxCell>
        <mxCell id="G5YHtdSnVFfNY6eWmLNl-175" value="&lt;font style=&quot;font-size: 9px;&quot; face=&quot;isocpeur&quot;&gt;Элементы ЭИ&lt;/font&gt;" style="shape=display;whiteSpace=wrap;html=1;" parent="eEPNA-gmXamEzi0rjirp-1" vertex="1">
          <mxGeometry x="973.0368992248062" y="576.2983425414365" width="45.89147286821705" height="37.790055248618785" as="geometry" />
        </mxCell>
        <mxCell id="G5YHtdSnVFfNY6eWmLNl-176" value="&lt;font style=&quot;font-size: 9px;&quot; face=&quot;isocpeur&quot;&gt;Игры&lt;/font&gt;" style="shape=display;whiteSpace=wrap;html=1;" parent="eEPNA-gmXamEzi0rjirp-1" vertex="1">
          <mxGeometry x="1023.3798449612403" y="576.2983425414365" width="45.89147286821705" height="37.790055248618785" as="geometry" />
        </mxCell>
        <mxCell id="G5YHtdSnVFfNY6eWmLNl-177" value="" style="endArrow=none;html=1;rounded=0;" parent="eEPNA-gmXamEzi0rjirp-1" edge="1">
          <mxGeometry width="50" height="50" relative="1" as="geometry">
            <mxPoint x="894.8837209302326" y="501.6629834254144" as="sourcePoint" />
            <mxPoint x="895.0213953488372" y="577.243093922652" as="targetPoint" />
          </mxGeometry>
        </mxCell>
        <mxCell id="G5YHtdSnVFfNY6eWmLNl-178" value="" style="endArrow=none;html=1;rounded=0;" parent="eEPNA-gmXamEzi0rjirp-1" edge="1">
          <mxGeometry width="50" height="50" relative="1" as="geometry">
            <mxPoint x="945.502015503876" y="501.6629834254144" as="sourcePoint" />
            <mxPoint x="945.4974263565891" y="576.2983425414365" as="targetPoint" />
          </mxGeometry>
        </mxCell>
        <mxCell id="G5YHtdSnVFfNY6eWmLNl-179" value="" style="endArrow=none;html=1;rounded=0;" parent="eEPNA-gmXamEzi0rjirp-1" edge="1">
          <mxGeometry width="50" height="50" relative="1" as="geometry">
            <mxPoint x="995.9826356589148" y="501.6629834254144" as="sourcePoint" />
            <mxPoint x="995.8449612403101" y="576.2983425414365" as="targetPoint" />
          </mxGeometry>
        </mxCell>
        <mxCell id="G5YHtdSnVFfNY6eWmLNl-180" value="" style="endArrow=none;html=1;rounded=0;" parent="eEPNA-gmXamEzi0rjirp-1" edge="1">
          <mxGeometry width="50" height="50" relative="1" as="geometry">
            <mxPoint x="1046.4632558139535" y="501.6629834254144" as="sourcePoint" />
            <mxPoint x="1046.3255813953488" y="576.2983425414365" as="targetPoint" />
          </mxGeometry>
        </mxCell>
        <mxCell id="G5YHtdSnVFfNY6eWmLNl-181" value="" style="endArrow=none;html=1;rounded=0;" parent="eEPNA-gmXamEzi0rjirp-1" edge="1">
          <mxGeometry width="50" height="50" relative="1" as="geometry">
            <mxPoint x="844.0772713178294" y="425.1381215469613" as="sourcePoint" />
            <mxPoint x="844.0772713178294" y="387.34806629834253" as="targetPoint" />
          </mxGeometry>
        </mxCell>
        <mxCell id="G5YHtdSnVFfNY6eWmLNl-182" value="" style="endArrow=none;html=1;rounded=0;" parent="eEPNA-gmXamEzi0rjirp-1" edge="1">
          <mxGeometry width="50" height="50" relative="1" as="geometry">
            <mxPoint x="917.5036279069767" y="426.0828729281768" as="sourcePoint" />
            <mxPoint x="917.5036279069767" y="388.292817679558" as="targetPoint" />
          </mxGeometry>
        </mxCell>
        <mxCell id="G5YHtdSnVFfNY6eWmLNl-183" value="" style="endArrow=none;html=1;rounded=0;" parent="eEPNA-gmXamEzi0rjirp-1" edge="1">
          <mxGeometry width="50" height="50" relative="1" as="geometry">
            <mxPoint x="844.2700155038759" y="501.6629834254144" as="sourcePoint" />
            <mxPoint x="844.2700155038759" y="463.8729281767956" as="targetPoint" />
          </mxGeometry>
        </mxCell>
        <mxCell id="G5YHtdSnVFfNY6eWmLNl-184" value="" style="endArrow=none;html=1;rounded=0;" parent="eEPNA-gmXamEzi0rjirp-1" edge="1">
          <mxGeometry width="50" height="50" relative="1" as="geometry">
            <mxPoint x="844.2700155038759" y="577.243093922652" as="sourcePoint" />
            <mxPoint x="844.2700155038759" y="539.4530386740331" as="targetPoint" />
          </mxGeometry>
        </mxCell>
        <mxCell id="G5YHtdSnVFfNY6eWmLNl-186" value="" style="endArrow=none;html=1;rounded=0;" parent="eEPNA-gmXamEzi0rjirp-1" edge="1">
          <mxGeometry width="50" height="50" relative="1" as="geometry">
            <mxPoint x="844.2700155038759" y="651.878453038674" as="sourcePoint" />
            <mxPoint x="844.2700155038759" y="614.0883977900553" as="targetPoint" />
            <Array as="points">
              <mxPoint x="844.4581705426356" y="651.878453038674" />
            </Array>
          </mxGeometry>
        </mxCell>
        <mxCell id="G5YHtdSnVFfNY6eWmLNl-187" value="" style="endArrow=none;html=1;rounded=0;" parent="eEPNA-gmXamEzi0rjirp-1" edge="1">
          <mxGeometry width="50" height="50" relative="1" as="geometry">
            <mxPoint x="1084.8790077519382" y="350.50276243093924" as="sourcePoint" />
            <mxPoint x="1084.874418604651" y="727.4585635359116" as="targetPoint" />
          </mxGeometry>
        </mxCell>
        <mxCell id="G5YHtdSnVFfNY6eWmLNl-188" value="&lt;font data-font-src=&quot;https://fonts.googleapis.com/css?family=isocpeur&quot; face=&quot;isocpeur&quot; style=&quot;font-size: 9px;&quot;&gt;&lt;br&gt;Выбор вкладки&lt;/font&gt;" style="shape=manualInput;whiteSpace=wrap;html=1;size=27;" parent="eEPNA-gmXamEzi0rjirp-1" vertex="1">
          <mxGeometry x="1061.9286821705425" y="708.5635359116022" width="45.89147286821705" height="56.68508287292818" as="geometry" />
        </mxCell>
        <mxCell id="G5YHtdSnVFfNY6eWmLNl-189" value="&lt;font style=&quot;font-size: 9px;&quot; face=&quot;isocpeur&quot;&gt;*.htm&lt;/font&gt;" style="strokeWidth=1;html=1;shape=mxgraph.flowchart.direct_data;whiteSpace=wrap;" parent="eEPNA-gmXamEzi0rjirp-1" vertex="1">
          <mxGeometry x="1061.9286821705425" y="793.5911602209945" width="45.89147286821705" height="37.790055248618785" as="geometry" />
        </mxCell>
        <mxCell id="G5YHtdSnVFfNY6eWmLNl-190" value="" style="endArrow=none;html=1;rounded=0;" parent="eEPNA-gmXamEzi0rjirp-1" edge="1">
          <mxGeometry width="50" height="50" relative="1" as="geometry">
            <mxPoint x="1085.4124031007752" y="793.5911602209945" as="sourcePoint" />
            <mxPoint x="1085.6005581395348" y="765.2486187845304" as="targetPoint" />
          </mxGeometry>
        </mxCell>
        <mxCell id="G5YHtdSnVFfNY6eWmLNl-191" value="&lt;font style=&quot;font-size: 9px;&quot; face=&quot;isocpeur&quot;&gt;Вывод информации&lt;/font&gt;" style="rounded=0;whiteSpace=wrap;html=1;" parent="eEPNA-gmXamEzi0rjirp-1" vertex="1">
          <mxGeometry x="1061.9286821705425" y="859.7237569060774" width="45.89147286821705" height="37.790055248618785" as="geometry" />
        </mxCell>
        <mxCell id="G5YHtdSnVFfNY6eWmLNl-192" value="" style="endArrow=none;html=1;rounded=0;" parent="eEPNA-gmXamEzi0rjirp-1" edge="1">
          <mxGeometry width="50" height="50" relative="1" as="geometry">
            <mxPoint x="1084.64496124031" y="859.7237569060774" as="sourcePoint" />
            <mxPoint x="1084.8331162790696" y="831.3812154696133" as="targetPoint" />
          </mxGeometry>
        </mxCell>
        <mxCell id="G5YHtdSnVFfNY6eWmLNl-193" value="" style="endArrow=none;html=1;rounded=0;" parent="eEPNA-gmXamEzi0rjirp-1" edge="1">
          <mxGeometry width="50" height="50" relative="1" as="geometry">
            <mxPoint x="1249.6844651162792" y="285.88176795580114" as="sourcePoint" />
            <mxPoint x="1249.744124031008" y="238.64419889502764" as="targetPoint" />
          </mxGeometry>
        </mxCell>
        <mxCell id="G5YHtdSnVFfNY6eWmLNl-194" value="&lt;font style=&quot;font-size: 9px;&quot; face=&quot;isocpeur&quot;&gt;Элементы ЭИ&lt;/font&gt;" style="shape=display;whiteSpace=wrap;html=1;" parent="eEPNA-gmXamEzi0rjirp-1" vertex="1">
          <mxGeometry x="1223.4666666666667" y="285.88176795580114" width="45.89147286821705" height="37.790055248618785" as="geometry" />
        </mxCell>
        <mxCell id="G5YHtdSnVFfNY6eWmLNl-195" value="" style="endArrow=none;html=1;rounded=0;" parent="eEPNA-gmXamEzi0rjirp-1" edge="1">
          <mxGeometry width="50" height="50" relative="1" as="geometry">
            <mxPoint x="1207.4046511627907" y="353.90386740331496" as="sourcePoint" />
            <mxPoint x="1418.046511627907" y="354.2817679558011" as="targetPoint" />
          </mxGeometry>
        </mxCell>
        <mxCell id="G5YHtdSnVFfNY6eWmLNl-196" value="" style="endArrow=none;html=1;rounded=0;" parent="eEPNA-gmXamEzi0rjirp-1" edge="1">
          <mxGeometry width="50" height="50" relative="1" as="geometry">
            <mxPoint x="1207.4046511627907" y="391.69392265193375" as="sourcePoint" />
            <mxPoint x="1207.4046511627907" y="353.90386740331496" as="targetPoint" />
          </mxGeometry>
        </mxCell>
        <mxCell id="G5YHtdSnVFfNY6eWmLNl-197" value="" style="endArrow=none;html=1;rounded=0;" parent="eEPNA-gmXamEzi0rjirp-1" edge="1">
          <mxGeometry width="50" height="50" relative="1" as="geometry">
            <mxPoint x="1176.198449612403" y="391.69392265193375" as="sourcePoint" />
            <mxPoint x="1250.0837209302326" y="391.69392265193375" as="targetPoint" />
          </mxGeometry>
        </mxCell>
        <mxCell id="G5YHtdSnVFfNY6eWmLNl-198" value="" style="endArrow=classic;html=1;rounded=0;" parent="eEPNA-gmXamEzi0rjirp-1" edge="1">
          <mxGeometry width="50" height="50" relative="1" as="geometry">
            <mxPoint x="1176.6573643410852" y="655.2795580110497" as="sourcePoint" />
            <mxPoint x="1128.9302325581396" y="655.6574585635359" as="targetPoint" />
          </mxGeometry>
        </mxCell>
        <mxCell id="G5YHtdSnVFfNY6eWmLNl-199" value="" style="endArrow=classic;html=1;rounded=0;" parent="eEPNA-gmXamEzi0rjirp-1" edge="1">
          <mxGeometry width="50" height="50" relative="1" as="geometry">
            <mxPoint x="1127" y="940" as="sourcePoint" />
            <mxPoint x="1128.9302325581396" y="255.0828729281768" as="targetPoint" />
          </mxGeometry>
        </mxCell>
        <mxCell id="G5YHtdSnVFfNY6eWmLNl-201" value="&lt;font style=&quot;font-size: 9px;&quot; face=&quot;isocpeur&quot;&gt;Приложение&lt;/font&gt;" style="shape=display;whiteSpace=wrap;html=1;" parent="eEPNA-gmXamEzi0rjirp-1" vertex="1">
          <mxGeometry x="1227.137984496124" y="430.42872928176797" width="45.89147286821705" height="37.790055248618785" as="geometry" />
        </mxCell>
        <mxCell id="G5YHtdSnVFfNY6eWmLNl-202" value="" style="endArrow=none;html=1;rounded=0;" parent="eEPNA-gmXamEzi0rjirp-1" edge="1">
          <mxGeometry width="50" height="50" relative="1" as="geometry">
            <mxPoint x="1249.9873488372093" y="506.00883977900554" as="sourcePoint" />
            <mxPoint x="1249.9873488372093" y="468.21878453038676" as="targetPoint" />
          </mxGeometry>
        </mxCell>
        <mxCell id="G5YHtdSnVFfNY6eWmLNl-203" value="&lt;font style=&quot;font-size: 9px;&quot; data-font-src=&quot;https://fonts.googleapis.com/css?family=isocpeur&quot; face=&quot;isocpeur&quot;&gt;справка&lt;br&gt;.chm&lt;/font&gt;" style="strokeWidth=1;html=1;shape=mxgraph.flowchart.direct_data;whiteSpace=wrap;" parent="eEPNA-gmXamEzi0rjirp-1" vertex="1">
          <mxGeometry x="1153.7116279069767" y="579.6994475138122" width="45.89147286821705" height="37.790055248618785" as="geometry" />
        </mxCell>
        <mxCell id="G5YHtdSnVFfNY6eWmLNl-204" value="&lt;font style=&quot;font-size: 9px;&quot; data-font-src=&quot;https://fonts.googleapis.com/css?family=isocpeur&quot; face=&quot;isocpeur&quot;&gt;Отбражение справки&lt;/font&gt;" style="rounded=0;whiteSpace=wrap;html=1;" parent="eEPNA-gmXamEzi0rjirp-1" vertex="1">
          <mxGeometry x="1153.7116279069767" y="505.0640883977901" width="45.89147286821705" height="37.790055248618785" as="geometry" />
        </mxCell>
        <mxCell id="G5YHtdSnVFfNY6eWmLNl-205" value="&lt;font style=&quot;font-size: 9px;&quot; data-font-src=&quot;https://fonts.googleapis.com/css?family=isocpeur&quot; face=&quot;isocpeur&quot;&gt;Справка&lt;/font&gt;" style="shape=display;whiteSpace=wrap;html=1;" parent="eEPNA-gmXamEzi0rjirp-1" vertex="1">
          <mxGeometry x="1153.7116279069767" y="429.48397790055253" width="45.89147286821705" height="37.790055248618785" as="geometry" />
        </mxCell>
        <mxCell id="G5YHtdSnVFfNY6eWmLNl-206" value="" style="endArrow=none;html=1;rounded=0;" parent="eEPNA-gmXamEzi0rjirp-1" edge="1">
          <mxGeometry width="50" height="50" relative="1" as="geometry">
            <mxPoint x="1227.2756589147286" y="505.0640883977901" as="sourcePoint" />
            <mxPoint x="1378.717519379845" y="505.0640883977901" as="targetPoint" />
          </mxGeometry>
        </mxCell>
        <mxCell id="G5YHtdSnVFfNY6eWmLNl-207" value="&lt;font style=&quot;font-size: 9px;&quot; face=&quot;isocpeur&quot;&gt;Главная&lt;/font&gt;" style="shape=display;whiteSpace=wrap;html=1;" parent="eEPNA-gmXamEzi0rjirp-1" vertex="1">
          <mxGeometry x="1204.1922480620156" y="580.6441988950277" width="45.89147286821705" height="36.84530386740332" as="geometry" />
        </mxCell>
        <mxCell id="G5YHtdSnVFfNY6eWmLNl-208" value="&lt;font style=&quot;font-size: 9px;&quot; face=&quot;isocpeur&quot;&gt;Тест&lt;/font&gt;" style="shape=display;whiteSpace=wrap;html=1;" parent="eEPNA-gmXamEzi0rjirp-1" vertex="1">
          <mxGeometry x="1254.810542635659" y="579.6994475138122" width="45.89147286821705" height="37.790055248618785" as="geometry" />
        </mxCell>
        <mxCell id="G5YHtdSnVFfNY6eWmLNl-209" value="&lt;font style=&quot;font-size: 9px;&quot; face=&quot;isocpeur&quot;&gt;Как развивать ЭИ&lt;/font&gt;" style="shape=display;whiteSpace=wrap;html=1;" parent="eEPNA-gmXamEzi0rjirp-1" vertex="1">
          <mxGeometry x="1305.2911627906976" y="579.6994475138122" width="45.89147286821705" height="37.790055248618785" as="geometry" />
        </mxCell>
        <mxCell id="G5YHtdSnVFfNY6eWmLNl-210" value="&lt;font style=&quot;font-size: 9px;&quot; face=&quot;isocpeur&quot;&gt;Игры&lt;/font&gt;" style="shape=display;whiteSpace=wrap;html=1;" parent="eEPNA-gmXamEzi0rjirp-1" vertex="1">
          <mxGeometry x="1355.6341085271317" y="579.6994475138122" width="45.89147286821705" height="37.790055248618785" as="geometry" />
        </mxCell>
        <mxCell id="G5YHtdSnVFfNY6eWmLNl-211" value="" style="endArrow=none;html=1;rounded=0;" parent="eEPNA-gmXamEzi0rjirp-1" edge="1">
          <mxGeometry width="50" height="50" relative="1" as="geometry">
            <mxPoint x="1227.137984496124" y="505.0640883977901" as="sourcePoint" />
            <mxPoint x="1227.2756589147286" y="580.6441988950277" as="targetPoint" />
          </mxGeometry>
        </mxCell>
        <mxCell id="G5YHtdSnVFfNY6eWmLNl-212" value="" style="endArrow=none;html=1;rounded=0;" parent="eEPNA-gmXamEzi0rjirp-1" edge="1">
          <mxGeometry width="50" height="50" relative="1" as="geometry">
            <mxPoint x="1277.7562790697675" y="505.0640883977901" as="sourcePoint" />
            <mxPoint x="1277.7516899224806" y="579.6994475138122" as="targetPoint" />
          </mxGeometry>
        </mxCell>
        <mxCell id="G5YHtdSnVFfNY6eWmLNl-213" value="" style="endArrow=none;html=1;rounded=0;" parent="eEPNA-gmXamEzi0rjirp-1" edge="1">
          <mxGeometry width="50" height="50" relative="1" as="geometry">
            <mxPoint x="1328.2368992248062" y="505.0640883977901" as="sourcePoint" />
            <mxPoint x="1328.0992248062016" y="579.6994475138122" as="targetPoint" />
          </mxGeometry>
        </mxCell>
        <mxCell id="G5YHtdSnVFfNY6eWmLNl-214" value="" style="endArrow=none;html=1;rounded=0;" parent="eEPNA-gmXamEzi0rjirp-1" edge="1">
          <mxGeometry width="50" height="50" relative="1" as="geometry">
            <mxPoint x="1378.717519379845" y="505.0640883977901" as="sourcePoint" />
            <mxPoint x="1378.5798449612403" y="579.6994475138122" as="targetPoint" />
          </mxGeometry>
        </mxCell>
        <mxCell id="G5YHtdSnVFfNY6eWmLNl-215" value="" style="endArrow=none;html=1;rounded=0;" parent="eEPNA-gmXamEzi0rjirp-1" edge="1">
          <mxGeometry width="50" height="50" relative="1" as="geometry">
            <mxPoint x="1176.331534883721" y="428.53922651933703" as="sourcePoint" />
            <mxPoint x="1176.331534883721" y="390.74917127071825" as="targetPoint" />
          </mxGeometry>
        </mxCell>
        <mxCell id="G5YHtdSnVFfNY6eWmLNl-216" value="" style="endArrow=none;html=1;rounded=0;" parent="eEPNA-gmXamEzi0rjirp-1" edge="1">
          <mxGeometry width="50" height="50" relative="1" as="geometry">
            <mxPoint x="1249.757891472868" y="429.48397790055253" as="sourcePoint" />
            <mxPoint x="1249.757891472868" y="391.69392265193375" as="targetPoint" />
          </mxGeometry>
        </mxCell>
        <mxCell id="G5YHtdSnVFfNY6eWmLNl-217" value="" style="endArrow=none;html=1;rounded=0;" parent="eEPNA-gmXamEzi0rjirp-1" edge="1">
          <mxGeometry width="50" height="50" relative="1" as="geometry">
            <mxPoint x="1176.5242790697675" y="505.0640883977901" as="sourcePoint" />
            <mxPoint x="1176.5242790697675" y="467.2740331491713" as="targetPoint" />
          </mxGeometry>
        </mxCell>
        <mxCell id="G5YHtdSnVFfNY6eWmLNl-218" value="" style="endArrow=none;html=1;rounded=0;" parent="eEPNA-gmXamEzi0rjirp-1" edge="1">
          <mxGeometry width="50" height="50" relative="1" as="geometry">
            <mxPoint x="1176.5242790697675" y="580.6441988950277" as="sourcePoint" />
            <mxPoint x="1176.5242790697675" y="542.8541436464088" as="targetPoint" />
          </mxGeometry>
        </mxCell>
        <mxCell id="G5YHtdSnVFfNY6eWmLNl-219" value="" style="endArrow=none;html=1;rounded=0;" parent="eEPNA-gmXamEzi0rjirp-1" edge="1">
          <mxGeometry width="50" height="50" relative="1" as="geometry">
            <mxPoint x="1176.5242790697675" y="655.2795580110497" as="sourcePoint" />
            <mxPoint x="1176.5242790697675" y="617.489502762431" as="targetPoint" />
            <Array as="points">
              <mxPoint x="1176.712434108527" y="655.2795580110497" />
            </Array>
          </mxGeometry>
        </mxCell>
        <mxCell id="G5YHtdSnVFfNY6eWmLNl-220" value="" style="endArrow=none;html=1;rounded=0;" parent="eEPNA-gmXamEzi0rjirp-1" edge="1">
          <mxGeometry width="50" height="50" relative="1" as="geometry">
            <mxPoint x="1418.046511627907" y="354.2817679558011" as="sourcePoint" />
            <mxPoint x="1417.862945736434" y="721.7900552486188" as="targetPoint" />
          </mxGeometry>
        </mxCell>
        <mxCell id="G5YHtdSnVFfNY6eWmLNl-221" value="&lt;font data-font-src=&quot;https://fonts.googleapis.com/css?family=isocpeur&quot; face=&quot;isocpeur&quot; style=&quot;font-size: 9px;&quot;&gt;&lt;br&gt;Выбор вкладки&lt;/font&gt;" style="shape=manualInput;whiteSpace=wrap;html=1;size=27;" parent="eEPNA-gmXamEzi0rjirp-1" vertex="1">
          <mxGeometry x="1395.1007751937984" y="708.5635359116022" width="45.89147286821705" height="56.68508287292818" as="geometry" />
        </mxCell>
        <mxCell id="G5YHtdSnVFfNY6eWmLNl-222" value="&lt;font style=&quot;font-size: 9px;&quot; face=&quot;isocpeur&quot;&gt;*.htm&lt;/font&gt;" style="strokeWidth=1;html=1;shape=mxgraph.flowchart.direct_data;whiteSpace=wrap;" parent="eEPNA-gmXamEzi0rjirp-1" vertex="1">
          <mxGeometry x="1395.1007751937984" y="793.5911602209945" width="45.89147286821705" height="37.790055248618785" as="geometry" />
        </mxCell>
        <mxCell id="G5YHtdSnVFfNY6eWmLNl-224" value="&lt;font style=&quot;font-size: 9px;&quot; face=&quot;isocpeur&quot;&gt;Вывод информации&lt;/font&gt;" style="rounded=0;whiteSpace=wrap;html=1;" parent="eEPNA-gmXamEzi0rjirp-1" vertex="1">
          <mxGeometry x="1395.1007751937984" y="859.7237569060774" width="45.89147286821705" height="37.790055248618785" as="geometry" />
        </mxCell>
        <mxCell id="G5YHtdSnVFfNY6eWmLNl-226" value="" style="endArrow=none;html=1;rounded=0;" parent="eEPNA-gmXamEzi0rjirp-1" edge="1">
          <mxGeometry width="50" height="50" relative="1" as="geometry">
            <mxPoint x="1249.4274728682171" y="353.90386740331496" as="sourcePoint" />
            <mxPoint x="1249.4274728682171" y="324.6165745856354" as="targetPoint" />
          </mxGeometry>
        </mxCell>
        <mxCell id="G5YHtdSnVFfNY6eWmLNl-227" value="" style="endArrow=none;html=1;rounded=0;" parent="eEPNA-gmXamEzi0rjirp-1" edge="1">
          <mxGeometry width="50" height="50" relative="1" as="geometry">
            <mxPoint x="1607.7906976744187" y="277.70165745856355" as="sourcePoint" />
            <mxPoint x="1607.7906976744187" y="240.85635359116023" as="targetPoint" />
          </mxGeometry>
        </mxCell>
        <mxCell id="G5YHtdSnVFfNY6eWmLNl-228" value="&lt;font style=&quot;font-size: 9px;&quot; face=&quot;isocpeur&quot;&gt;Игры&lt;/font&gt;" style="shape=display;whiteSpace=wrap;html=1;" parent="eEPNA-gmXamEzi0rjirp-1" vertex="1">
          <mxGeometry x="1587.84496124031" y="273.9779005524862" width="45.89147286821705" height="46.29281767955801" as="geometry" />
        </mxCell>
        <mxCell id="G5YHtdSnVFfNY6eWmLNl-229" value="" style="endArrow=none;html=1;rounded=0;" parent="eEPNA-gmXamEzi0rjirp-1" edge="1">
          <mxGeometry width="50" height="50" relative="1" as="geometry">
            <mxPoint x="1568.1116279069768" y="378.84530386740335" as="sourcePoint" />
            <mxPoint x="2707.5968992248063" y="377.90055248618785" as="targetPoint" />
          </mxGeometry>
        </mxCell>
        <mxCell id="G5YHtdSnVFfNY6eWmLNl-230" value="" style="endArrow=none;html=1;rounded=0;" parent="eEPNA-gmXamEzi0rjirp-1" edge="1">
          <mxGeometry width="50" height="50" relative="1" as="geometry">
            <mxPoint x="1568.1116279069768" y="416.63535911602213" as="sourcePoint" />
            <mxPoint x="1568.1116279069768" y="378.84530386740335" as="targetPoint" />
          </mxGeometry>
        </mxCell>
        <mxCell id="G5YHtdSnVFfNY6eWmLNl-231" value="" style="endArrow=none;html=1;rounded=0;" parent="eEPNA-gmXamEzi0rjirp-1" edge="1">
          <mxGeometry width="50" height="50" relative="1" as="geometry">
            <mxPoint x="1536.905426356589" y="416.63535911602213" as="sourcePoint" />
            <mxPoint x="1610.7906976744187" y="416.63535911602213" as="targetPoint" />
          </mxGeometry>
        </mxCell>
        <mxCell id="G5YHtdSnVFfNY6eWmLNl-232" value="" style="endArrow=classic;html=1;rounded=0;" parent="eEPNA-gmXamEzi0rjirp-1" edge="1">
          <mxGeometry width="50" height="50" relative="1" as="geometry">
            <mxPoint x="1537.3643410852712" y="680.2209944751381" as="sourcePoint" />
            <mxPoint x="1486.8837209302326" y="680.2209944751381" as="targetPoint" />
          </mxGeometry>
        </mxCell>
        <mxCell id="G5YHtdSnVFfNY6eWmLNl-233" value="" style="endArrow=classic;html=1;rounded=0;" parent="eEPNA-gmXamEzi0rjirp-1" edge="1">
          <mxGeometry width="50" height="50" relative="1" as="geometry">
            <mxPoint x="1487" y="1080" as="sourcePoint" />
            <mxPoint x="1487" y="256" as="targetPoint" />
          </mxGeometry>
        </mxCell>
        <mxCell id="G5YHtdSnVFfNY6eWmLNl-235" value="&lt;font style=&quot;font-size: 9px;&quot; face=&quot;isocpeur&quot;&gt;Приложение&lt;/font&gt;" style="shape=display;whiteSpace=wrap;html=1;" parent="eEPNA-gmXamEzi0rjirp-1" vertex="1">
          <mxGeometry x="1587.84496124031" y="455.37016574585635" width="45.89147286821705" height="37.790055248618785" as="geometry" />
        </mxCell>
        <mxCell id="G5YHtdSnVFfNY6eWmLNl-236" value="" style="endArrow=none;html=1;rounded=0;" parent="eEPNA-gmXamEzi0rjirp-1" edge="1">
          <mxGeometry width="50" height="50" relative="1" as="geometry">
            <mxPoint x="1610.6943255813953" y="530.950276243094" as="sourcePoint" />
            <mxPoint x="1610.6943255813953" y="493.16022099447514" as="targetPoint" />
          </mxGeometry>
        </mxCell>
        <mxCell id="G5YHtdSnVFfNY6eWmLNl-237" value="&lt;font style=&quot;font-size: 9px;&quot; data-font-src=&quot;https://fonts.googleapis.com/css?family=isocpeur&quot; face=&quot;isocpeur&quot;&gt;справка&lt;br&gt;.chm&lt;/font&gt;" style="strokeWidth=1;html=1;shape=mxgraph.flowchart.direct_data;whiteSpace=wrap;" parent="eEPNA-gmXamEzi0rjirp-1" vertex="1">
          <mxGeometry x="1514.4186046511627" y="604.6408839779006" width="45.89147286821705" height="37.790055248618785" as="geometry" />
        </mxCell>
        <mxCell id="G5YHtdSnVFfNY6eWmLNl-238" value="&lt;font style=&quot;font-size: 9px;&quot; data-font-src=&quot;https://fonts.googleapis.com/css?family=isocpeur&quot; face=&quot;isocpeur&quot;&gt;Отбражение справки&lt;/font&gt;" style="rounded=0;whiteSpace=wrap;html=1;" parent="eEPNA-gmXamEzi0rjirp-1" vertex="1">
          <mxGeometry x="1514.4186046511627" y="530.0055248618785" width="45.89147286821705" height="37.790055248618785" as="geometry" />
        </mxCell>
        <mxCell id="G5YHtdSnVFfNY6eWmLNl-239" value="&lt;font style=&quot;font-size: 9px;&quot; data-font-src=&quot;https://fonts.googleapis.com/css?family=isocpeur&quot; face=&quot;isocpeur&quot;&gt;Справка&lt;/font&gt;" style="shape=display;whiteSpace=wrap;html=1;" parent="eEPNA-gmXamEzi0rjirp-1" vertex="1">
          <mxGeometry x="1514.4186046511627" y="454.4254143646409" width="45.89147286821705" height="37.790055248618785" as="geometry" />
        </mxCell>
        <mxCell id="G5YHtdSnVFfNY6eWmLNl-240" value="" style="endArrow=none;html=1;rounded=0;" parent="eEPNA-gmXamEzi0rjirp-1" edge="1">
          <mxGeometry width="50" height="50" relative="1" as="geometry">
            <mxPoint x="1587.982635658915" y="530.0055248618785" as="sourcePoint" />
            <mxPoint x="1739.424496124031" y="530.0055248618785" as="targetPoint" />
          </mxGeometry>
        </mxCell>
        <mxCell id="G5YHtdSnVFfNY6eWmLNl-241" value="&lt;font style=&quot;font-size: 9px;&quot; face=&quot;isocpeur&quot;&gt;Главная&lt;/font&gt;" style="shape=display;whiteSpace=wrap;html=1;" parent="eEPNA-gmXamEzi0rjirp-1" vertex="1">
          <mxGeometry x="1564.8992248062016" y="605.585635359116" width="45.89147286821705" height="36.84530386740332" as="geometry" />
        </mxCell>
        <mxCell id="G5YHtdSnVFfNY6eWmLNl-242" value="&lt;font style=&quot;font-size: 9px;&quot; face=&quot;isocpeur&quot;&gt;Тест&lt;/font&gt;" style="shape=display;whiteSpace=wrap;html=1;" parent="eEPNA-gmXamEzi0rjirp-1" vertex="1">
          <mxGeometry x="1615.517519379845" y="604.6408839779006" width="45.89147286821705" height="37.790055248618785" as="geometry" />
        </mxCell>
        <mxCell id="G5YHtdSnVFfNY6eWmLNl-243" value="&lt;font style=&quot;font-size: 9px;&quot; face=&quot;isocpeur&quot;&gt;Элементы ЭИ&lt;/font&gt;" style="shape=display;whiteSpace=wrap;html=1;" parent="eEPNA-gmXamEzi0rjirp-1" vertex="1">
          <mxGeometry x="1665.9981395348839" y="604.6408839779006" width="45.89147286821705" height="37.790055248618785" as="geometry" />
        </mxCell>
        <mxCell id="G5YHtdSnVFfNY6eWmLNl-244" value="&lt;font style=&quot;font-size: 9px;&quot; face=&quot;isocpeur&quot;&gt;Как развивать ЭИ&lt;/font&gt;" style="shape=display;whiteSpace=wrap;html=1;" parent="eEPNA-gmXamEzi0rjirp-1" vertex="1">
          <mxGeometry x="1716.3410852713178" y="604.6408839779006" width="45.89147286821705" height="37.790055248618785" as="geometry" />
        </mxCell>
        <mxCell id="G5YHtdSnVFfNY6eWmLNl-245" value="" style="endArrow=none;html=1;rounded=0;" parent="eEPNA-gmXamEzi0rjirp-1" edge="1">
          <mxGeometry width="50" height="50" relative="1" as="geometry">
            <mxPoint x="1587.84496124031" y="530.0055248618785" as="sourcePoint" />
            <mxPoint x="1587.982635658915" y="605.585635359116" as="targetPoint" />
          </mxGeometry>
        </mxCell>
        <mxCell id="G5YHtdSnVFfNY6eWmLNl-246" value="" style="endArrow=none;html=1;rounded=0;" parent="eEPNA-gmXamEzi0rjirp-1" edge="1">
          <mxGeometry width="50" height="50" relative="1" as="geometry">
            <mxPoint x="1638.4632558139535" y="530.0055248618785" as="sourcePoint" />
            <mxPoint x="1638.4586666666667" y="604.6408839779006" as="targetPoint" />
          </mxGeometry>
        </mxCell>
        <mxCell id="G5YHtdSnVFfNY6eWmLNl-247" value="" style="endArrow=none;html=1;rounded=0;" parent="eEPNA-gmXamEzi0rjirp-1" edge="1">
          <mxGeometry width="50" height="50" relative="1" as="geometry">
            <mxPoint x="1688.9438759689924" y="530.0055248618785" as="sourcePoint" />
            <mxPoint x="1688.8062015503876" y="604.6408839779006" as="targetPoint" />
          </mxGeometry>
        </mxCell>
        <mxCell id="G5YHtdSnVFfNY6eWmLNl-248" value="" style="endArrow=none;html=1;rounded=0;" parent="eEPNA-gmXamEzi0rjirp-1" edge="1">
          <mxGeometry width="50" height="50" relative="1" as="geometry">
            <mxPoint x="1739.424496124031" y="530.0055248618785" as="sourcePoint" />
            <mxPoint x="1739.2868217054263" y="604.6408839779006" as="targetPoint" />
          </mxGeometry>
        </mxCell>
        <mxCell id="G5YHtdSnVFfNY6eWmLNl-249" value="" style="endArrow=none;html=1;rounded=0;" parent="eEPNA-gmXamEzi0rjirp-1" edge="1">
          <mxGeometry width="50" height="50" relative="1" as="geometry">
            <mxPoint x="1537.038511627907" y="453.4806629834254" as="sourcePoint" />
            <mxPoint x="1537.038511627907" y="415.69060773480663" as="targetPoint" />
          </mxGeometry>
        </mxCell>
        <mxCell id="G5YHtdSnVFfNY6eWmLNl-250" value="" style="endArrow=none;html=1;rounded=0;" parent="eEPNA-gmXamEzi0rjirp-1" edge="1">
          <mxGeometry width="50" height="50" relative="1" as="geometry">
            <mxPoint x="1610.4648682170541" y="454.4254143646409" as="sourcePoint" />
            <mxPoint x="1610.4648682170541" y="416.63535911602213" as="targetPoint" />
          </mxGeometry>
        </mxCell>
        <mxCell id="G5YHtdSnVFfNY6eWmLNl-251" value="" style="endArrow=none;html=1;rounded=0;" parent="eEPNA-gmXamEzi0rjirp-1" edge="1">
          <mxGeometry width="50" height="50" relative="1" as="geometry">
            <mxPoint x="1537.2312558139536" y="530.0055248618785" as="sourcePoint" />
            <mxPoint x="1537.2312558139536" y="492.2154696132597" as="targetPoint" />
          </mxGeometry>
        </mxCell>
        <mxCell id="G5YHtdSnVFfNY6eWmLNl-252" value="" style="endArrow=none;html=1;rounded=0;" parent="eEPNA-gmXamEzi0rjirp-1" edge="1">
          <mxGeometry width="50" height="50" relative="1" as="geometry">
            <mxPoint x="1537.2312558139536" y="605.585635359116" as="sourcePoint" />
            <mxPoint x="1537.2312558139536" y="567.7955801104972" as="targetPoint" />
          </mxGeometry>
        </mxCell>
        <mxCell id="G5YHtdSnVFfNY6eWmLNl-253" value="" style="endArrow=none;html=1;rounded=0;" parent="eEPNA-gmXamEzi0rjirp-1" edge="1">
          <mxGeometry width="50" height="50" relative="1" as="geometry">
            <mxPoint x="1537.2312558139536" y="680.2209944751381" as="sourcePoint" />
            <mxPoint x="1537.2312558139536" y="642.4309392265194" as="targetPoint" />
            <Array as="points">
              <mxPoint x="1537.419410852713" y="680.2209944751381" />
            </Array>
          </mxGeometry>
        </mxCell>
        <mxCell id="G5YHtdSnVFfNY6eWmLNl-254" value="" style="endArrow=none;html=1;rounded=0;" parent="eEPNA-gmXamEzi0rjirp-1" edge="1">
          <mxGeometry width="50" height="50" relative="1" as="geometry">
            <mxPoint x="1417.862945736434" y="859.7237569060774" as="sourcePoint" />
            <mxPoint x="1418.0511007751936" y="831.3812154696133" as="targetPoint" />
          </mxGeometry>
        </mxCell>
        <mxCell id="G5YHtdSnVFfNY6eWmLNl-255" value="" style="endArrow=none;html=1;rounded=0;" parent="eEPNA-gmXamEzi0rjirp-1" edge="1">
          <mxGeometry width="50" height="50" relative="1" as="geometry">
            <mxPoint x="1417.862945736434" y="793.5911602209945" as="sourcePoint" />
            <mxPoint x="1418.0511007751936" y="765.2486187845304" as="targetPoint" />
          </mxGeometry>
        </mxCell>
        <mxCell id="G5YHtdSnVFfNY6eWmLNl-256" value="" style="endArrow=none;html=1;rounded=0;" parent="eEPNA-gmXamEzi0rjirp-1" edge="1">
          <mxGeometry width="50" height="50" relative="1" as="geometry">
            <mxPoint x="1608.3317829457364" y="379.47828729281764" as="sourcePoint" />
            <mxPoint x="1608.3317829457364" y="321.2154696132597" as="targetPoint" />
          </mxGeometry>
        </mxCell>
        <mxCell id="G5YHtdSnVFfNY6eWmLNl-257" value="&lt;font style=&quot;font-size: 9px;&quot; face=&quot;isocpeur&quot;&gt;Тест &quot;Угадай эмоцию&quot;&lt;/font&gt;" style="shape=display;whiteSpace=wrap;html=1;" parent="eEPNA-gmXamEzi0rjirp-1" vertex="1">
          <mxGeometry x="1876.96" y="418" width="45.89" height="50" as="geometry" />
        </mxCell>
        <mxCell id="G5YHtdSnVFfNY6eWmLNl-258" value="" style="endArrow=none;html=1;rounded=0;" parent="eEPNA-gmXamEzi0rjirp-1" edge="1">
          <mxGeometry width="50" height="50" relative="1" as="geometry">
            <mxPoint x="1899.5811472868218" y="417.2683425414364" as="sourcePoint" />
            <mxPoint x="1899.5811472868218" y="379.47828729281764" as="targetPoint" />
          </mxGeometry>
        </mxCell>
        <mxCell id="G5YHtdSnVFfNY6eWmLNl-259" value="&lt;font style=&quot;font-size: 9px;&quot; face=&quot;isocpeur&quot;&gt;Форма с &lt;br&gt;тестом &quot;Угадай&lt;br&gt;&amp;nbsp;эмоцию&quot;&lt;/font&gt;" style="shape=display;whiteSpace=wrap;html=1;" parent="eEPNA-gmXamEzi0rjirp-1" vertex="1">
          <mxGeometry x="1876.9612403100775" y="493.7932044198895" width="45.89147286821705" height="65.1878453038674" as="geometry" />
        </mxCell>
        <mxCell id="G5YHtdSnVFfNY6eWmLNl-260" value="" style="endArrow=none;html=1;rounded=0;" parent="eEPNA-gmXamEzi0rjirp-1" edge="1">
          <mxGeometry width="50" height="50" relative="1" as="geometry">
            <mxPoint x="1899.5811472868218" y="494.848453038674" as="sourcePoint" />
            <mxPoint x="1900" y="468" as="targetPoint" />
          </mxGeometry>
        </mxCell>
        <mxCell id="G5YHtdSnVFfNY6eWmLNl-261" value="" style="endArrow=none;html=1;rounded=0;" parent="eEPNA-gmXamEzi0rjirp-1" edge="1">
          <mxGeometry width="50" height="50" relative="1" as="geometry">
            <mxPoint x="1866.4062015503876" y="568.4285635359116" as="sourcePoint" />
            <mxPoint x="2129.3643410852715" y="569.373314917127" as="targetPoint" />
          </mxGeometry>
        </mxCell>
        <mxCell id="G5YHtdSnVFfNY6eWmLNl-262" value="" style="endArrow=none;html=1;rounded=0;" parent="eEPNA-gmXamEzi0rjirp-1" edge="1">
          <mxGeometry width="50" height="50" relative="1" as="geometry">
            <mxPoint x="1866.4062015503876" y="606.1633701657458" as="sourcePoint" />
            <mxPoint x="1866.4062015503876" y="568.373314917127" as="targetPoint" />
          </mxGeometry>
        </mxCell>
        <mxCell id="G5YHtdSnVFfNY6eWmLNl-264" value="" style="endArrow=classic;html=1;rounded=0;" parent="eEPNA-gmXamEzi0rjirp-1" edge="1">
          <mxGeometry width="50" height="50" relative="1" as="geometry">
            <mxPoint x="2886.5736434108526" y="1077.9613259668508" as="sourcePoint" />
            <mxPoint x="1486.8837209302326" y="1077.5739779005526" as="targetPoint" />
          </mxGeometry>
        </mxCell>
        <mxCell id="G5YHtdSnVFfNY6eWmLNl-265" value="" style="endArrow=classic;html=1;rounded=0;" parent="eEPNA-gmXamEzi0rjirp-1" edge="1">
          <mxGeometry width="50" height="50" relative="1" as="geometry">
            <mxPoint x="1785.1782945736434" y="1077.0165745856355" as="sourcePoint" />
            <mxPoint x="1785.1782945736434" y="473.95342541436463" as="targetPoint" />
          </mxGeometry>
        </mxCell>
        <mxCell id="G5YHtdSnVFfNY6eWmLNl-266" value="" style="endArrow=none;html=1;rounded=0;" parent="eEPNA-gmXamEzi0rjirp-1" edge="1">
          <mxGeometry width="50" height="50" relative="1" as="geometry">
            <mxPoint x="1785.0961240310078" y="477.95342541436463" as="sourcePoint" />
            <mxPoint x="1898.906976744186" y="477.95342541436463" as="targetPoint" />
          </mxGeometry>
        </mxCell>
        <mxCell id="G5YHtdSnVFfNY6eWmLNl-270" value="&lt;font style=&quot;font-size: 14px;&quot; data-font-src=&quot;https://fonts.googleapis.com/css?family=isocpeur&quot; face=&quot;isocpeur&quot;&gt;Справка&lt;/font&gt;" style="shape=display;whiteSpace=wrap;html=1;" parent="eEPNA-gmXamEzi0rjirp-1" vertex="1">
          <mxGeometry x="1812.7131782945737" y="644.9534254143646" width="45.89147286821705" height="37.790055248618785" as="geometry" />
        </mxCell>
        <mxCell id="G5YHtdSnVFfNY6eWmLNl-271" value="" style="endArrow=none;html=1;rounded=0;exitX=0.491;exitY=-0.007;exitDx=0;exitDy=0;exitPerimeter=0;" parent="eEPNA-gmXamEzi0rjirp-1" edge="1" source="G5YHtdSnVFfNY6eWmLNl-285">
          <mxGeometry width="50" height="50" relative="1" as="geometry">
            <mxPoint x="1835.3330852713177" y="644.0086740331492" as="sourcePoint" />
            <mxPoint x="1835.3330852713177" y="606.2186187845303" as="targetPoint" />
          </mxGeometry>
        </mxCell>
        <mxCell id="G5YHtdSnVFfNY6eWmLNl-272" value="" style="endArrow=none;html=1;rounded=0;" parent="eEPNA-gmXamEzi0rjirp-1" edge="1">
          <mxGeometry width="50" height="50" relative="1" as="geometry">
            <mxPoint x="1908.7594418604651" y="644.9534254143646" as="sourcePoint" />
            <mxPoint x="1908.7594418604651" y="607.1633701657458" as="targetPoint" />
          </mxGeometry>
        </mxCell>
        <mxCell id="G5YHtdSnVFfNY6eWmLNl-278" value="" style="endArrow=none;html=1;rounded=0;" parent="eEPNA-gmXamEzi0rjirp-1" edge="1">
          <mxGeometry width="50" height="50" relative="1" as="geometry">
            <mxPoint x="1834.99" y="606.5833701657459" as="sourcePoint" />
            <mxPoint x="1988" y="608" as="targetPoint" />
          </mxGeometry>
        </mxCell>
        <mxCell id="G5YHtdSnVFfNY6eWmLNl-282" value="&lt;font style=&quot;font-size: 9px;&quot; face=&quot;isocpeur&quot;&gt;Справка&lt;/font&gt;" style="shape=display;whiteSpace=wrap;html=1;" parent="eEPNA-gmXamEzi0rjirp-1" vertex="1">
          <mxGeometry x="1886.139534883721" y="644.95817679558" width="45.89147286821705" height="37.790055248618785" as="geometry" />
        </mxCell>
        <mxCell id="G5YHtdSnVFfNY6eWmLNl-283" value="&lt;font style=&quot;font-size: 9px;&quot; data-font-src=&quot;https://fonts.googleapis.com/css?family=isocpeur&quot; face=&quot;isocpeur&quot;&gt;справка&lt;br&gt;.chm&lt;/font&gt;" style="strokeWidth=1;html=1;shape=mxgraph.flowchart.direct_data;whiteSpace=wrap;" parent="eEPNA-gmXamEzi0rjirp-1" vertex="1">
          <mxGeometry x="1886.139534883721" y="796.1136464088399" width="45.89147286821705" height="37.790055248618785" as="geometry" />
        </mxCell>
        <mxCell id="G5YHtdSnVFfNY6eWmLNl-284" value="&lt;font style=&quot;font-size: 9px;&quot; data-font-src=&quot;https://fonts.googleapis.com/css?family=isocpeur&quot; face=&quot;isocpeur&quot;&gt;Отбражение справки&lt;/font&gt;" style="rounded=0;whiteSpace=wrap;html=1;" parent="eEPNA-gmXamEzi0rjirp-1" vertex="1">
          <mxGeometry x="1886.139534883721" y="721.4782872928176" width="45.89147286821705" height="37.790055248618785" as="geometry" />
        </mxCell>
        <mxCell id="G5YHtdSnVFfNY6eWmLNl-285" value="&lt;font style=&quot;font-size: 9px;&quot; data-font-src=&quot;https://fonts.googleapis.com/css?family=isocpeur&quot; face=&quot;isocpeur&quot;&gt;Назад&lt;/font&gt;" style="shape=display;whiteSpace=wrap;html=1;" parent="eEPNA-gmXamEzi0rjirp-1" vertex="1">
          <mxGeometry x="1812.7131782945737" y="644.9534254143646" width="45.89147286821705" height="37.790055248618785" as="geometry" />
        </mxCell>
        <mxCell id="G5YHtdSnVFfNY6eWmLNl-287" value="" style="endArrow=none;html=1;rounded=0;" parent="eEPNA-gmXamEzi0rjirp-1" edge="1">
          <mxGeometry width="50" height="50" relative="1" as="geometry">
            <mxPoint x="1908.7594418604651" y="644.9534254143646" as="sourcePoint" />
            <mxPoint x="1908.7594418604651" y="607.1633701657458" as="targetPoint" />
          </mxGeometry>
        </mxCell>
        <mxCell id="G5YHtdSnVFfNY6eWmLNl-288" value="" style="endArrow=none;html=1;rounded=0;" parent="eEPNA-gmXamEzi0rjirp-1" edge="1">
          <mxGeometry width="50" height="50" relative="1" as="geometry">
            <mxPoint x="1908.9521860465115" y="721.4782872928176" as="sourcePoint" />
            <mxPoint x="1908.9521860465115" y="683.6882320441989" as="targetPoint" />
          </mxGeometry>
        </mxCell>
        <mxCell id="G5YHtdSnVFfNY6eWmLNl-289" value="" style="endArrow=none;html=1;rounded=0;" parent="eEPNA-gmXamEzi0rjirp-1" edge="1">
          <mxGeometry width="50" height="50" relative="1" as="geometry">
            <mxPoint x="1908.9521860465115" y="797.0583977900554" as="sourcePoint" />
            <mxPoint x="1908.9521860465115" y="759.2683425414365" as="targetPoint" />
          </mxGeometry>
        </mxCell>
        <mxCell id="G5YHtdSnVFfNY6eWmLNl-290" value="" style="endArrow=none;html=1;rounded=0;" parent="eEPNA-gmXamEzi0rjirp-1" edge="1">
          <mxGeometry width="50" height="50" relative="1" as="geometry">
            <mxPoint x="1908.9521860465115" y="871.6937569060776" as="sourcePoint" />
            <mxPoint x="1908.9521860465115" y="833.9037016574589" as="targetPoint" />
            <Array as="points">
              <mxPoint x="1909.0852713178294" y="1077.0165745856355" />
              <mxPoint x="1909.1403410852713" y="871.6937569060776" />
            </Array>
          </mxGeometry>
        </mxCell>
        <mxCell id="G5YHtdSnVFfNY6eWmLNl-291" value="" style="endArrow=none;html=1;rounded=0;" parent="eEPNA-gmXamEzi0rjirp-1" edge="1">
          <mxGeometry width="50" height="50" relative="1" as="geometry">
            <mxPoint x="1835.6589147286822" y="1077.0165745856355" as="sourcePoint" />
            <mxPoint x="1835.3881550387596" y="683.6882320441989" as="targetPoint" />
          </mxGeometry>
        </mxCell>
        <mxCell id="G5YHtdSnVFfNY6eWmLNl-292" value="" style="endArrow=none;html=1;rounded=0;" parent="eEPNA-gmXamEzi0rjirp-1" edge="1">
          <mxGeometry width="50" height="50" relative="1" as="geometry">
            <mxPoint x="1899.906976744186" y="568.4285635359116" as="sourcePoint" />
            <mxPoint x="1899.82896124031" y="558.9810497237569" as="targetPoint" />
          </mxGeometry>
        </mxCell>
        <mxCell id="G5YHtdSnVFfNY6eWmLNl-293" value="" style="endArrow=none;html=1;rounded=0;" parent="eEPNA-gmXamEzi0rjirp-1" edge="1">
          <mxGeometry width="50" height="50" relative="1" as="geometry">
            <mxPoint x="2129.038511627907" y="614.7213812154696" as="sourcePoint" />
            <mxPoint x="2128.905426356589" y="568.4285635359116" as="targetPoint" />
          </mxGeometry>
        </mxCell>
        <mxCell id="G5YHtdSnVFfNY6eWmLNl-294" value="&lt;font data-font-src=&quot;https://fonts.googleapis.com/css?family=isocpeur&quot; face=&quot;isocpeur&quot; style=&quot;font-size: 9px;&quot;&gt;&lt;br&gt;Выбор варианта ответа&lt;/font&gt;" style="shape=manualInput;whiteSpace=wrap;html=1;size=27;" parent="eEPNA-gmXamEzi0rjirp-1" vertex="1">
          <mxGeometry x="2106.4186046511627" y="602.4396132596685" width="45.89147286821705" height="56.68508287292818" as="geometry" />
        </mxCell>
        <mxCell id="G5YHtdSnVFfNY6eWmLNl-295" value="&lt;font face=&quot;isocpeur&quot;&gt;&lt;span style=&quot;font-size: 14px;&quot;&gt;Далее&lt;/span&gt;&lt;/font&gt;" style="shape=display;whiteSpace=wrap;html=1;" parent="eEPNA-gmXamEzi0rjirp-1" vertex="1">
          <mxGeometry x="2106.4186046511627" y="686.994861878453" width="45.89147286821705" height="37.790055248618785" as="geometry" />
        </mxCell>
        <mxCell id="G5YHtdSnVFfNY6eWmLNl-296" value="" style="endArrow=none;html=1;rounded=0;" parent="eEPNA-gmXamEzi0rjirp-1" edge="1">
          <mxGeometry width="50" height="50" relative="1" as="geometry">
            <mxPoint x="2129.2542015503877" y="687.4672375690608" as="sourcePoint" />
            <mxPoint x="2129.4423565891475" y="659.1246961325967" as="targetPoint" />
          </mxGeometry>
        </mxCell>
        <mxCell id="G5YHtdSnVFfNY6eWmLNl-297" value="&lt;font data-font-src=&quot;https://fonts.googleapis.com/css?family=isocpeur&quot; face=&quot;isocpeur&quot; style=&quot;font-size: 9px;&quot;&gt;Последний вопрос?&lt;/font&gt;" style="rhombus;whiteSpace=wrap;html=1;" parent="eEPNA-gmXamEzi0rjirp-1" vertex="1">
          <mxGeometry x="2106.42" y="753.6" width="45.89" height="66.4" as="geometry" />
        </mxCell>
        <mxCell id="G5YHtdSnVFfNY6eWmLNl-298" value="" style="endArrow=none;html=1;rounded=0;" parent="eEPNA-gmXamEzi0rjirp-1" edge="1">
          <mxGeometry width="50" height="50" relative="1" as="geometry">
            <mxPoint x="2129.2312558139533" y="753.5998342541436" as="sourcePoint" />
            <mxPoint x="2129.419410852713" y="725.2572928176795" as="targetPoint" />
          </mxGeometry>
        </mxCell>
        <mxCell id="G5YHtdSnVFfNY6eWmLNl-299" value="" style="endArrow=classic;html=1;rounded=0;" parent="eEPNA-gmXamEzi0rjirp-1" edge="1">
          <mxGeometry width="50" height="50" relative="1" as="geometry">
            <mxPoint x="2106.4186046511627" y="787.6683977900552" as="sourcePoint" />
            <mxPoint x="2083.4728682170544" y="787.9423756906077" as="targetPoint" />
          </mxGeometry>
        </mxCell>
        <mxCell id="G5YHtdSnVFfNY6eWmLNl-300" value="" style="endArrow=classic;html=1;rounded=0;" parent="eEPNA-gmXamEzi0rjirp-1" edge="1">
          <mxGeometry width="50" height="50" relative="1" as="geometry">
            <mxPoint x="2083.4728682170544" y="787.9423756906077" as="sourcePoint" />
            <mxPoint x="2083" y="600" as="targetPoint" />
          </mxGeometry>
        </mxCell>
        <mxCell id="G5YHtdSnVFfNY6eWmLNl-301" value="" style="endArrow=none;html=1;rounded=0;" parent="eEPNA-gmXamEzi0rjirp-1" edge="1">
          <mxGeometry width="50" height="50" relative="1" as="geometry">
            <mxPoint x="2083.4728682170544" y="602.4396132596685" as="sourcePoint" />
            <mxPoint x="2129.3643410852715" y="602.4396132596685" as="targetPoint" />
          </mxGeometry>
        </mxCell>
        <mxCell id="G5YHtdSnVFfNY6eWmLNl-302" value="&lt;font style=&quot;font-size: 9px;&quot; data-font-src=&quot;https://fonts.googleapis.com/css?family=isocpeur&quot; face=&quot;isocpeur&quot;&gt;Нет&lt;/font&gt;" style="text;html=1;align=center;verticalAlign=middle;resizable=0;points=[];autosize=1;strokeColor=none;fillColor=none;" parent="eEPNA-gmXamEzi0rjirp-1" vertex="1">
          <mxGeometry x="2080.002015503876" y="762.9798342541436" width="40" height="30" as="geometry" />
        </mxCell>
        <mxCell id="G5YHtdSnVFfNY6eWmLNl-303" value="&lt;font style=&quot;font-size: 9px;&quot; face=&quot;isocpeur&quot;&gt;Вывод баллов за тест&lt;/font&gt;" style="rounded=0;whiteSpace=wrap;html=1;" parent="eEPNA-gmXamEzi0rjirp-1" vertex="1">
          <mxGeometry x="2106.42" y="859.72" width="45.89" height="41.93" as="geometry" />
        </mxCell>
        <mxCell id="G5YHtdSnVFfNY6eWmLNl-304" value="" style="endArrow=none;html=1;rounded=0;exitX=0.495;exitY=-0.027;exitDx=0;exitDy=0;exitPerimeter=0;" parent="eEPNA-gmXamEzi0rjirp-1" edge="1" source="G5YHtdSnVFfNY6eWmLNl-303">
          <mxGeometry width="50" height="50" relative="1" as="geometry">
            <mxPoint x="2129.2312558139533" y="857.5249723756907" as="sourcePoint" />
            <mxPoint x="2129.2312558139533" y="819.734917127072" as="targetPoint" />
          </mxGeometry>
        </mxCell>
        <mxCell id="G5YHtdSnVFfNY6eWmLNl-307" value="&lt;font style=&quot;font-size: 9px;&quot; face=&quot;isocpeur&quot;&gt;Приложение&lt;/font&gt;" style="shape=display;whiteSpace=wrap;html=1;" parent="eEPNA-gmXamEzi0rjirp-1" vertex="1">
          <mxGeometry x="1964.15503875969" y="646.8429281767956" width="45.89147286821705" height="37.790055248618785" as="geometry" />
        </mxCell>
        <mxCell id="G5YHtdSnVFfNY6eWmLNl-308" value="" style="endArrow=none;html=1;rounded=0;" parent="eEPNA-gmXamEzi0rjirp-1" edge="1">
          <mxGeometry width="50" height="50" relative="1" as="geometry">
            <mxPoint x="1987.004403100775" y="722.4230386740331" as="sourcePoint" />
            <mxPoint x="1987.004403100775" y="684.6329834254143" as="targetPoint" />
          </mxGeometry>
        </mxCell>
        <mxCell id="G5YHtdSnVFfNY6eWmLNl-309" value="" style="endArrow=none;html=1;rounded=0;" parent="eEPNA-gmXamEzi0rjirp-1" edge="1">
          <mxGeometry width="50" height="50" relative="1" as="geometry">
            <mxPoint x="1964.2927131782947" y="721.4782872928176" as="sourcePoint" />
            <mxPoint x="2065.116279069767" y="721.4782872928176" as="targetPoint" />
          </mxGeometry>
        </mxCell>
        <mxCell id="G5YHtdSnVFfNY6eWmLNl-310" value="&lt;font style=&quot;font-size: 9px;&quot; face=&quot;isocpeur&quot;&gt;Главная&lt;/font&gt;" style="shape=display;whiteSpace=wrap;html=1;" parent="eEPNA-gmXamEzi0rjirp-1" vertex="1">
          <mxGeometry x="1941.21" y="797.06" width="45.89" height="42.94" as="geometry" />
        </mxCell>
        <mxCell id="G5YHtdSnVFfNY6eWmLNl-312" value="&lt;font style=&quot;font-size: 9px;&quot; face=&quot;isocpeur&quot;&gt;Элементы ЭИ&lt;/font&gt;" style="shape=display;whiteSpace=wrap;html=1;" parent="eEPNA-gmXamEzi0rjirp-1" vertex="1">
          <mxGeometry x="1991.69" y="796.11" width="45.89" height="43.89" as="geometry" />
        </mxCell>
        <mxCell id="G5YHtdSnVFfNY6eWmLNl-313" value="&lt;font style=&quot;font-size: 9px;&quot; face=&quot;isocpeur&quot;&gt;Как развивать ЭИ&lt;/font&gt;" style="shape=display;whiteSpace=wrap;html=1;" parent="eEPNA-gmXamEzi0rjirp-1" vertex="1">
          <mxGeometry x="2042.03" y="796.11" width="45.89" height="43.89" as="geometry" />
        </mxCell>
        <mxCell id="G5YHtdSnVFfNY6eWmLNl-314" value="" style="endArrow=none;html=1;rounded=0;" parent="eEPNA-gmXamEzi0rjirp-1" edge="1">
          <mxGeometry width="50" height="50" relative="1" as="geometry">
            <mxPoint x="1964.15503875969" y="721.4782872928176" as="sourcePoint" />
            <mxPoint x="1964.2927131782947" y="797.0583977900552" as="targetPoint" />
          </mxGeometry>
        </mxCell>
        <mxCell id="G5YHtdSnVFfNY6eWmLNl-316" value="" style="endArrow=none;html=1;rounded=0;" parent="eEPNA-gmXamEzi0rjirp-1" edge="1">
          <mxGeometry width="50" height="50" relative="1" as="geometry">
            <mxPoint x="2014.6356589147288" y="721.4782872928176" as="sourcePoint" />
            <mxPoint x="2014.497984496124" y="796.1136464088397" as="targetPoint" />
          </mxGeometry>
        </mxCell>
        <mxCell id="G5YHtdSnVFfNY6eWmLNl-317" value="" style="endArrow=none;html=1;rounded=0;" parent="eEPNA-gmXamEzi0rjirp-1" edge="1">
          <mxGeometry width="50" height="50" relative="1" as="geometry">
            <mxPoint x="2065.116279069767" y="721.4782872928176" as="sourcePoint" />
            <mxPoint x="2064.9786046511626" y="796.1136464088397" as="targetPoint" />
          </mxGeometry>
        </mxCell>
        <mxCell id="G5YHtdSnVFfNY6eWmLNl-318" value="" style="endArrow=none;html=1;rounded=0;" parent="eEPNA-gmXamEzi0rjirp-1" edge="1">
          <mxGeometry width="50" height="50" relative="1" as="geometry">
            <mxPoint x="1986.7749457364341" y="645.8981767955801" as="sourcePoint" />
            <mxPoint x="1986.7749457364341" y="608.1081215469613" as="targetPoint" />
          </mxGeometry>
        </mxCell>
        <mxCell id="G5YHtdSnVFfNY6eWmLNl-319" value="&lt;font style=&quot;font-size: 9px;&quot; face=&quot;isocpeur&quot;&gt;Тест &quot;Тип личности&quot;&lt;/font&gt;" style="shape=display;whiteSpace=wrap;html=1;" parent="eEPNA-gmXamEzi0rjirp-1" vertex="1">
          <mxGeometry x="2289.984496124031" y="407.82082872928174" width="45.89147286821705" height="48.18232044198895" as="geometry" />
        </mxCell>
        <mxCell id="G5YHtdSnVFfNY6eWmLNl-320" value="" style="endArrow=none;html=1;rounded=0;" parent="eEPNA-gmXamEzi0rjirp-1" edge="1">
          <mxGeometry width="50" height="50" relative="1" as="geometry">
            <mxPoint x="2312.4713178294573" y="407.82082872928174" as="sourcePoint" />
            <mxPoint x="2312.604403100775" y="379.47828729281764" as="targetPoint" />
          </mxGeometry>
        </mxCell>
        <mxCell id="G5YHtdSnVFfNY6eWmLNl-321" value="&lt;font style=&quot;font-size: 9px;&quot; face=&quot;isocpeur&quot;&gt;Форма с &lt;br&gt;тестом &quot;Тип личности&quot;&lt;/font&gt;" style="shape=display;whiteSpace=wrap;html=1;size=0.21824324324324318;" parent="eEPNA-gmXamEzi0rjirp-1" vertex="1">
          <mxGeometry x="2287.93" y="493.04" width="50.01" height="66.69" as="geometry" />
        </mxCell>
        <mxCell id="G5YHtdSnVFfNY6eWmLNl-322" value="" style="endArrow=none;html=1;rounded=0;" parent="eEPNA-gmXamEzi0rjirp-1" edge="1">
          <mxGeometry width="50" height="50" relative="1" as="geometry">
            <mxPoint x="2312.604403100775" y="492.848453038674" as="sourcePoint" />
            <mxPoint x="2312.604403100775" y="455.0583977900552" as="targetPoint" />
          </mxGeometry>
        </mxCell>
        <mxCell id="G5YHtdSnVFfNY6eWmLNl-323" value="" style="endArrow=none;html=1;rounded=0;" parent="eEPNA-gmXamEzi0rjirp-1" edge="1">
          <mxGeometry width="50" height="50" relative="1" as="geometry">
            <mxPoint x="2279.429457364341" y="596.1381215469613" as="sourcePoint" />
            <mxPoint x="2542.3875968992247" y="597.0828729281768" as="targetPoint" />
          </mxGeometry>
        </mxCell>
        <mxCell id="G5YHtdSnVFfNY6eWmLNl-324" value="" style="endArrow=none;html=1;rounded=0;" parent="eEPNA-gmXamEzi0rjirp-1" edge="1">
          <mxGeometry width="50" height="50" relative="1" as="geometry">
            <mxPoint x="2279.429457364341" y="633.9281767955802" as="sourcePoint" />
            <mxPoint x="2279.429457364341" y="596.1381215469613" as="targetPoint" />
          </mxGeometry>
        </mxCell>
        <mxCell id="G5YHtdSnVFfNY6eWmLNl-325" value="" style="endArrow=none;html=1;rounded=0;" parent="eEPNA-gmXamEzi0rjirp-1" edge="1">
          <mxGeometry width="50" height="50" relative="1" as="geometry">
            <mxPoint x="2248.2232558139535" y="633.9281767955802" as="sourcePoint" />
            <mxPoint x="2322.108527131783" y="633.9281767955802" as="targetPoint" />
          </mxGeometry>
        </mxCell>
        <mxCell id="G5YHtdSnVFfNY6eWmLNl-326" value="" style="endArrow=classic;html=1;rounded=0;" parent="eEPNA-gmXamEzi0rjirp-1" edge="1">
          <mxGeometry width="50" height="50" relative="1" as="geometry">
            <mxPoint x="2199.1193798449613" y="1077.0165745856355" as="sourcePoint" />
            <mxPoint x="2199.1193798449613" y="473.95342541436463" as="targetPoint" />
          </mxGeometry>
        </mxCell>
        <mxCell id="G5YHtdSnVFfNY6eWmLNl-327" value="" style="endArrow=none;html=1;rounded=0;" parent="eEPNA-gmXamEzi0rjirp-1" edge="1">
          <mxGeometry width="50" height="50" relative="1" as="geometry">
            <mxPoint x="2199.1193798449613" y="473.95342541436463" as="sourcePoint" />
            <mxPoint x="2312.9302325581393" y="473.95342541436463" as="targetPoint" />
          </mxGeometry>
        </mxCell>
        <mxCell id="G5YHtdSnVFfNY6eWmLNl-329" value="&lt;font style=&quot;font-size: 14px;&quot; data-font-src=&quot;https://fonts.googleapis.com/css?family=isocpeur&quot; face=&quot;isocpeur&quot;&gt;Справка&lt;/font&gt;" style="shape=display;whiteSpace=wrap;html=1;" parent="eEPNA-gmXamEzi0rjirp-1" vertex="1">
          <mxGeometry x="2225.736434108527" y="671.7182320441989" width="45.89147286821705" height="37.790055248618785" as="geometry" />
        </mxCell>
        <mxCell id="G5YHtdSnVFfNY6eWmLNl-330" value="" style="endArrow=none;html=1;rounded=0;" parent="eEPNA-gmXamEzi0rjirp-1" edge="1">
          <mxGeometry width="50" height="50" relative="1" as="geometry">
            <mxPoint x="2248.356341085271" y="670.7734806629835" as="sourcePoint" />
            <mxPoint x="2248.356341085271" y="632.9834254143647" as="targetPoint" />
          </mxGeometry>
        </mxCell>
        <mxCell id="G5YHtdSnVFfNY6eWmLNl-331" value="" style="endArrow=none;html=1;rounded=0;" parent="eEPNA-gmXamEzi0rjirp-1" edge="1">
          <mxGeometry width="50" height="50" relative="1" as="geometry">
            <mxPoint x="2321.7826976744186" y="671.7182320441989" as="sourcePoint" />
            <mxPoint x="2321.7826976744186" y="633.9281767955802" as="targetPoint" />
          </mxGeometry>
        </mxCell>
        <mxCell id="G5YHtdSnVFfNY6eWmLNl-332" value="" style="endArrow=none;html=1;rounded=0;" parent="eEPNA-gmXamEzi0rjirp-1" edge="1">
          <mxGeometry width="50" height="50" relative="1" as="geometry">
            <mxPoint x="2279.429457364341" y="633.9281767955802" as="sourcePoint" />
            <mxPoint x="2279.429457364341" y="596.1381215469613" as="targetPoint" />
          </mxGeometry>
        </mxCell>
        <mxCell id="G5YHtdSnVFfNY6eWmLNl-333" value="" style="endArrow=none;html=1;rounded=0;" parent="eEPNA-gmXamEzi0rjirp-1" edge="1">
          <mxGeometry width="50" height="50" relative="1" as="geometry">
            <mxPoint x="2248.2232558139535" y="633.9281767955802" as="sourcePoint" />
            <mxPoint x="2400.124031007752" y="632.9834254143647" as="targetPoint" />
          </mxGeometry>
        </mxCell>
        <mxCell id="G5YHtdSnVFfNY6eWmLNl-334" value="&lt;font style=&quot;font-size: 9px;&quot; face=&quot;isocpeur&quot;&gt;Справка&lt;/font&gt;" style="shape=display;whiteSpace=wrap;html=1;" parent="eEPNA-gmXamEzi0rjirp-1" vertex="1">
          <mxGeometry x="2299.1627906976746" y="671.7229834254143" width="45.89147286821705" height="37.790055248618785" as="geometry" />
        </mxCell>
        <mxCell id="G5YHtdSnVFfNY6eWmLNl-335" value="&lt;font style=&quot;font-size: 9px;&quot; data-font-src=&quot;https://fonts.googleapis.com/css?family=isocpeur&quot; face=&quot;isocpeur&quot;&gt;справка&lt;br&gt;.chm&lt;/font&gt;" style="strokeWidth=1;html=1;shape=mxgraph.flowchart.direct_data;whiteSpace=wrap;" parent="eEPNA-gmXamEzi0rjirp-1" vertex="1">
          <mxGeometry x="2299.1627906976746" y="822.8784530386743" width="45.89147286821705" height="37.790055248618785" as="geometry" />
        </mxCell>
        <mxCell id="G5YHtdSnVFfNY6eWmLNl-336" value="&lt;font style=&quot;font-size: 9px;&quot; data-font-src=&quot;https://fonts.googleapis.com/css?family=isocpeur&quot; face=&quot;isocpeur&quot;&gt;Отбражение справки&lt;/font&gt;" style="rounded=0;whiteSpace=wrap;html=1;" parent="eEPNA-gmXamEzi0rjirp-1" vertex="1">
          <mxGeometry x="2299.1627906976746" y="748.243093922652" width="45.89147286821705" height="37.790055248618785" as="geometry" />
        </mxCell>
        <mxCell id="G5YHtdSnVFfNY6eWmLNl-337" value="&lt;font style=&quot;font-size: 9px;&quot; data-font-src=&quot;https://fonts.googleapis.com/css?family=isocpeur&quot; face=&quot;isocpeur&quot;&gt;Назад&lt;/font&gt;" style="shape=display;whiteSpace=wrap;html=1;" parent="eEPNA-gmXamEzi0rjirp-1" vertex="1">
          <mxGeometry x="2225.736434108527" y="671.7182320441989" width="45.89147286821705" height="37.790055248618785" as="geometry" />
        </mxCell>
        <mxCell id="G5YHtdSnVFfNY6eWmLNl-338" value="" style="endArrow=none;html=1;rounded=0;" parent="eEPNA-gmXamEzi0rjirp-1" edge="1">
          <mxGeometry width="50" height="50" relative="1" as="geometry">
            <mxPoint x="2248.356341085271" y="670.7734806629835" as="sourcePoint" />
            <mxPoint x="2248.356341085271" y="632.9834254143647" as="targetPoint" />
          </mxGeometry>
        </mxCell>
        <mxCell id="G5YHtdSnVFfNY6eWmLNl-339" value="" style="endArrow=none;html=1;rounded=0;" parent="eEPNA-gmXamEzi0rjirp-1" edge="1">
          <mxGeometry width="50" height="50" relative="1" as="geometry">
            <mxPoint x="2321.7826976744186" y="671.7182320441989" as="sourcePoint" />
            <mxPoint x="2321.7826976744186" y="633.9281767955802" as="targetPoint" />
          </mxGeometry>
        </mxCell>
        <mxCell id="G5YHtdSnVFfNY6eWmLNl-340" value="" style="endArrow=none;html=1;rounded=0;" parent="eEPNA-gmXamEzi0rjirp-1" edge="1">
          <mxGeometry width="50" height="50" relative="1" as="geometry">
            <mxPoint x="2321.9754418604653" y="748.243093922652" as="sourcePoint" />
            <mxPoint x="2321.9754418604653" y="710.4530386740332" as="targetPoint" />
          </mxGeometry>
        </mxCell>
        <mxCell id="G5YHtdSnVFfNY6eWmLNl-341" value="" style="endArrow=none;html=1;rounded=0;" parent="eEPNA-gmXamEzi0rjirp-1" edge="1">
          <mxGeometry width="50" height="50" relative="1" as="geometry">
            <mxPoint x="2321.9754418604653" y="823.8232044198897" as="sourcePoint" />
            <mxPoint x="2321.9754418604653" y="786.0331491712708" as="targetPoint" />
          </mxGeometry>
        </mxCell>
        <mxCell id="G5YHtdSnVFfNY6eWmLNl-342" value="" style="endArrow=none;html=1;rounded=0;" parent="eEPNA-gmXamEzi0rjirp-1" edge="1">
          <mxGeometry width="50" height="50" relative="1" as="geometry">
            <mxPoint x="2321.9754418604653" y="898.4585635359118" as="sourcePoint" />
            <mxPoint x="2321.9754418604653" y="860.6685082872931" as="targetPoint" />
            <Array as="points">
              <mxPoint x="2322.108527131783" y="1077.0165745856355" />
              <mxPoint x="2322.1635968992246" y="898.4585635359118" />
            </Array>
          </mxGeometry>
        </mxCell>
        <mxCell id="G5YHtdSnVFfNY6eWmLNl-343" value="" style="endArrow=none;html=1;rounded=0;" parent="eEPNA-gmXamEzi0rjirp-1" edge="1">
          <mxGeometry width="50" height="50" relative="1" as="geometry">
            <mxPoint x="2248.2232558139535" y="1077.0165745856355" as="sourcePoint" />
            <mxPoint x="2248.4114108527133" y="710.4530386740332" as="targetPoint" />
          </mxGeometry>
        </mxCell>
        <mxCell id="G5YHtdSnVFfNY6eWmLNl-344" value="" style="endArrow=none;html=1;rounded=0;" parent="eEPNA-gmXamEzi0rjirp-1" edge="1">
          <mxGeometry width="50" height="50" relative="1" as="geometry">
            <mxPoint x="2312.9302325581393" y="595.1933701657458" as="sourcePoint" />
            <mxPoint x="2312.8522170542633" y="585.7458563535912" as="targetPoint" />
            <Array as="points">
              <mxPoint x="2313" y="558" />
            </Array>
          </mxGeometry>
        </mxCell>
        <mxCell id="G5YHtdSnVFfNY6eWmLNl-345" value="" style="endArrow=none;html=1;rounded=0;" parent="eEPNA-gmXamEzi0rjirp-1" edge="1">
          <mxGeometry width="50" height="50" relative="1" as="geometry">
            <mxPoint x="2542.0617674418604" y="636.7624309392265" as="sourcePoint" />
            <mxPoint x="2542.0617674418604" y="598.9723756906078" as="targetPoint" />
          </mxGeometry>
        </mxCell>
        <mxCell id="G5YHtdSnVFfNY6eWmLNl-346" value="&lt;font data-font-src=&quot;https://fonts.googleapis.com/css?family=isocpeur&quot; face=&quot;isocpeur&quot; style=&quot;font-size: 9px;&quot;&gt;&lt;br&gt;Выбор варианта ответа&lt;/font&gt;" style="shape=manualInput;whiteSpace=wrap;html=1;size=27;" parent="eEPNA-gmXamEzi0rjirp-1" vertex="1">
          <mxGeometry x="2519.4418604651164" y="622.4305524861879" width="45.89147286821705" height="56.68508287292818" as="geometry" />
        </mxCell>
        <mxCell id="G5YHtdSnVFfNY6eWmLNl-348" value="" style="endArrow=none;html=1;rounded=0;" parent="eEPNA-gmXamEzi0rjirp-1" edge="1">
          <mxGeometry width="50" height="50" relative="1" as="geometry">
            <mxPoint x="2542.277457364341" y="707.6187845303867" as="sourcePoint" />
            <mxPoint x="2542.4656124031007" y="679.2762430939226" as="targetPoint" />
          </mxGeometry>
        </mxCell>
        <mxCell id="G5YHtdSnVFfNY6eWmLNl-350" value="" style="endArrow=none;html=1;rounded=0;" parent="eEPNA-gmXamEzi0rjirp-1" edge="1">
          <mxGeometry width="50" height="50" relative="1" as="geometry">
            <mxPoint x="2542.3875968992247" y="812.4861878453039" as="sourcePoint" />
            <mxPoint x="2542.4426666666664" y="747.2983425414365" as="targetPoint" />
          </mxGeometry>
        </mxCell>
        <mxCell id="G5YHtdSnVFfNY6eWmLNl-355" value="&lt;font style=&quot;font-size: 9px;&quot; face=&quot;isocpeur&quot;&gt;Вывод результата теста&lt;/font&gt;" style="rounded=0;whiteSpace=wrap;html=1;" parent="eEPNA-gmXamEzi0rjirp-1" vertex="1">
          <mxGeometry x="2524.031007751938" y="813.4309392265194" width="45.89147286821705" height="47.23756906077348" as="geometry" />
        </mxCell>
        <mxCell id="G5YHtdSnVFfNY6eWmLNl-357" value="&lt;font style=&quot;font-size: 9px;&quot; face=&quot;isocpeur&quot;&gt;Приложение&lt;/font&gt;" style="shape=display;whiteSpace=wrap;html=1;" parent="eEPNA-gmXamEzi0rjirp-1" vertex="1">
          <mxGeometry x="2377.1782945736436" y="673.6077348066299" width="45.89147286821705" height="37.790055248618785" as="geometry" />
        </mxCell>
        <mxCell id="G5YHtdSnVFfNY6eWmLNl-358" value="" style="endArrow=none;html=1;rounded=0;" parent="eEPNA-gmXamEzi0rjirp-1" edge="1">
          <mxGeometry width="50" height="50" relative="1" as="geometry">
            <mxPoint x="2400.027658914729" y="749.1878453038674" as="sourcePoint" />
            <mxPoint x="2400.027658914729" y="711.3977900552486" as="targetPoint" />
          </mxGeometry>
        </mxCell>
        <mxCell id="G5YHtdSnVFfNY6eWmLNl-359" value="" style="endArrow=none;html=1;rounded=0;" parent="eEPNA-gmXamEzi0rjirp-1" edge="1">
          <mxGeometry width="50" height="50" relative="1" as="geometry">
            <mxPoint x="2377.315968992248" y="748.243093922652" as="sourcePoint" />
            <mxPoint x="2478.139534883721" y="748.243093922652" as="targetPoint" />
          </mxGeometry>
        </mxCell>
        <mxCell id="G5YHtdSnVFfNY6eWmLNl-360" value="&lt;font style=&quot;font-size: 9px;&quot; face=&quot;isocpeur&quot;&gt;Главная&lt;/font&gt;" style="shape=display;whiteSpace=wrap;html=1;" parent="eEPNA-gmXamEzi0rjirp-1" vertex="1">
          <mxGeometry x="2354.232558139535" y="823.8232044198895" width="45.89147286821705" height="36.84530386740332" as="geometry" />
        </mxCell>
        <mxCell id="G5YHtdSnVFfNY6eWmLNl-361" value="&lt;font style=&quot;font-size: 9px;&quot; face=&quot;isocpeur&quot;&gt;Элементы ЭИ&lt;/font&gt;" style="shape=display;whiteSpace=wrap;html=1;" parent="eEPNA-gmXamEzi0rjirp-1" vertex="1">
          <mxGeometry x="2404.7131782945735" y="822.878453038674" width="45.89147286821705" height="37.790055248618785" as="geometry" />
        </mxCell>
        <mxCell id="G5YHtdSnVFfNY6eWmLNl-362" value="&lt;font style=&quot;font-size: 9px;&quot; face=&quot;isocpeur&quot;&gt;Как развивать ЭИ&lt;/font&gt;" style="shape=display;whiteSpace=wrap;html=1;" parent="eEPNA-gmXamEzi0rjirp-1" vertex="1">
          <mxGeometry x="2455.0561240310076" y="822.878453038674" width="45.89147286821705" height="37.790055248618785" as="geometry" />
        </mxCell>
        <mxCell id="G5YHtdSnVFfNY6eWmLNl-363" value="" style="endArrow=none;html=1;rounded=0;" parent="eEPNA-gmXamEzi0rjirp-1" edge="1">
          <mxGeometry width="50" height="50" relative="1" as="geometry">
            <mxPoint x="2377.1782945736436" y="748.243093922652" as="sourcePoint" />
            <mxPoint x="2377.315968992248" y="823.8232044198895" as="targetPoint" />
          </mxGeometry>
        </mxCell>
        <mxCell id="G5YHtdSnVFfNY6eWmLNl-364" value="" style="endArrow=none;html=1;rounded=0;" parent="eEPNA-gmXamEzi0rjirp-1" edge="1">
          <mxGeometry width="50" height="50" relative="1" as="geometry">
            <mxPoint x="2427.6589147286822" y="748.243093922652" as="sourcePoint" />
            <mxPoint x="2427.5212403100772" y="822.878453038674" as="targetPoint" />
          </mxGeometry>
        </mxCell>
        <mxCell id="G5YHtdSnVFfNY6eWmLNl-365" value="" style="endArrow=none;html=1;rounded=0;" parent="eEPNA-gmXamEzi0rjirp-1" edge="1">
          <mxGeometry width="50" height="50" relative="1" as="geometry">
            <mxPoint x="2478.139534883721" y="748.243093922652" as="sourcePoint" />
            <mxPoint x="2478.0018604651164" y="822.878453038674" as="targetPoint" />
          </mxGeometry>
        </mxCell>
        <mxCell id="G5YHtdSnVFfNY6eWmLNl-366" value="" style="endArrow=none;html=1;rounded=0;" parent="eEPNA-gmXamEzi0rjirp-1" edge="1">
          <mxGeometry width="50" height="50" relative="1" as="geometry">
            <mxPoint x="2399.7982015503876" y="672.6629834254144" as="sourcePoint" />
            <mxPoint x="2399.7982015503876" y="634.8729281767957" as="targetPoint" />
          </mxGeometry>
        </mxCell>
        <mxCell id="G5YHtdSnVFfNY6eWmLNl-367" value="&lt;font style=&quot;font-size: 9px;&quot; data-font-src=&quot;https://fonts.googleapis.com/css?family=isocpeur&quot; face=&quot;isocpeur&quot;&gt;*.htm&lt;/font&gt;" style="strokeWidth=1;html=1;shape=mxgraph.flowchart.direct_data;whiteSpace=wrap;" parent="eEPNA-gmXamEzi0rjirp-1" vertex="1">
          <mxGeometry x="2519.4418604651164" y="708.5635359116025" width="45.89147286821705" height="37.790055248618785" as="geometry" />
        </mxCell>
        <mxCell id="G5YHtdSnVFfNY6eWmLNl-368" value="&lt;font style=&quot;font-size: 9px;&quot; face=&quot;isocpeur&quot;&gt;Игра&lt;br&gt;&amp;nbsp;&quot;Парные картинки&quot;&lt;/font&gt;" style="shape=display;whiteSpace=wrap;html=1;" parent="eEPNA-gmXamEzi0rjirp-1" vertex="1">
          <mxGeometry x="2679.62" y="401.91" width="53" height="60" as="geometry" />
        </mxCell>
        <mxCell id="G5YHtdSnVFfNY6eWmLNl-369" value="" style="endArrow=none;html=1;rounded=0;" parent="eEPNA-gmXamEzi0rjirp-1" edge="1">
          <mxGeometry width="50" height="50" relative="1" as="geometry">
            <mxPoint x="2707.28" y="401.91" as="sourcePoint" />
            <mxPoint x="2707" y="378.41" as="targetPoint" />
          </mxGeometry>
        </mxCell>
        <mxCell id="G5YHtdSnVFfNY6eWmLNl-370" value="&lt;font style=&quot;font-size: 9px;&quot; face=&quot;isocpeur&quot;&gt;Игра &quot;Парные картинки&quot;&lt;/font&gt;" style="shape=display;whiteSpace=wrap;html=1;" parent="eEPNA-gmXamEzi0rjirp-1" vertex="1">
          <mxGeometry x="2679.62" y="490.81" width="50" height="59.19" as="geometry" />
        </mxCell>
        <mxCell id="G5YHtdSnVFfNY6eWmLNl-371" value="" style="endArrow=none;html=1;rounded=0;entryX=0.496;entryY=1.014;entryDx=0;entryDy=0;entryPerimeter=0;" parent="eEPNA-gmXamEzi0rjirp-1" edge="1" target="G5YHtdSnVFfNY6eWmLNl-368">
          <mxGeometry width="50" height="50" relative="1" as="geometry">
            <mxPoint x="2706.3532403100776" y="490.32596685082876" as="sourcePoint" />
            <mxPoint x="2706.3532403100776" y="452.53591160221" as="targetPoint" />
          </mxGeometry>
        </mxCell>
        <mxCell id="G5YHtdSnVFfNY6eWmLNl-372" value="" style="endArrow=none;html=1;rounded=0;" parent="eEPNA-gmXamEzi0rjirp-1" edge="1">
          <mxGeometry width="50" height="50" relative="1" as="geometry">
            <mxPoint x="2673.1782945736436" y="568.8508287292818" as="sourcePoint" />
            <mxPoint x="2845.2713178294575" y="568.8508287292818" as="targetPoint" />
          </mxGeometry>
        </mxCell>
        <mxCell id="G5YHtdSnVFfNY6eWmLNl-373" value="" style="endArrow=none;html=1;rounded=0;" parent="eEPNA-gmXamEzi0rjirp-1" edge="1">
          <mxGeometry width="50" height="50" relative="1" as="geometry">
            <mxPoint x="2844.353488372093" y="605.585635359116" as="sourcePoint" />
            <mxPoint x="2844.353488372093" y="567.7955801104972" as="targetPoint" />
          </mxGeometry>
        </mxCell>
        <mxCell id="G5YHtdSnVFfNY6eWmLNl-374" value="" style="endArrow=none;html=1;rounded=0;" parent="eEPNA-gmXamEzi0rjirp-1" edge="1">
          <mxGeometry width="50" height="50" relative="1" as="geometry">
            <mxPoint x="2762.6666666666665" y="605.585635359116" as="sourcePoint" />
            <mxPoint x="2887.032558139535" y="605.585635359116" as="targetPoint" />
          </mxGeometry>
        </mxCell>
        <mxCell id="G5YHtdSnVFfNY6eWmLNl-375" value="" style="endArrow=classic;html=1;rounded=0;" parent="eEPNA-gmXamEzi0rjirp-1" edge="1">
          <mxGeometry width="50" height="50" relative="1" as="geometry">
            <mxPoint x="2592.8682170542634" y="1077.0165745856355" as="sourcePoint" />
            <mxPoint x="2592.8682170542634" y="471.43093922651934" as="targetPoint" />
          </mxGeometry>
        </mxCell>
        <mxCell id="G5YHtdSnVFfNY6eWmLNl-376" value="" style="endArrow=none;html=1;rounded=0;" parent="eEPNA-gmXamEzi0rjirp-1" edge="1">
          <mxGeometry width="50" height="50" relative="1" as="geometry">
            <mxPoint x="2592.8682170542634" y="471.43093922651934" as="sourcePoint" />
            <mxPoint x="2706.679069767442" y="471.43093922651934" as="targetPoint" />
          </mxGeometry>
        </mxCell>
        <mxCell id="G5YHtdSnVFfNY6eWmLNl-379" value="" style="endArrow=none;html=1;rounded=0;" parent="eEPNA-gmXamEzi0rjirp-1" edge="1">
          <mxGeometry width="50" height="50" relative="1" as="geometry">
            <mxPoint x="2822.4586666666664" y="642.4309392265194" as="sourcePoint" />
            <mxPoint x="2822.4586666666664" y="604.6408839779006" as="targetPoint" />
          </mxGeometry>
        </mxCell>
        <mxCell id="G5YHtdSnVFfNY6eWmLNl-380" value="" style="endArrow=none;html=1;rounded=0;" parent="eEPNA-gmXamEzi0rjirp-1" edge="1">
          <mxGeometry width="50" height="50" relative="1" as="geometry">
            <mxPoint x="2886.7067286821707" y="643.3756906077348" as="sourcePoint" />
            <mxPoint x="2886.7067286821707" y="605.585635359116" as="targetPoint" />
          </mxGeometry>
        </mxCell>
        <mxCell id="G5YHtdSnVFfNY6eWmLNl-381" value="" style="endArrow=none;html=1;rounded=0;" parent="eEPNA-gmXamEzi0rjirp-1" edge="1">
          <mxGeometry width="50" height="50" relative="1" as="geometry">
            <mxPoint x="2844.353488372093" y="605.585635359116" as="sourcePoint" />
            <mxPoint x="2844.353488372093" y="567.7955801104972" as="targetPoint" />
          </mxGeometry>
        </mxCell>
        <mxCell id="G5YHtdSnVFfNY6eWmLNl-384" value="&lt;font style=&quot;font-size: 9px;&quot; data-font-src=&quot;https://fonts.googleapis.com/css?family=isocpeur&quot; face=&quot;isocpeur&quot;&gt;справка&lt;br&gt;.chm&lt;/font&gt;" style="strokeWidth=1;html=1;shape=mxgraph.flowchart.direct_data;whiteSpace=wrap;" parent="eEPNA-gmXamEzi0rjirp-1" vertex="1">
          <mxGeometry x="2864.0868217054262" y="794.53591160221" width="45.89147286821705" height="37.790055248618785" as="geometry" />
        </mxCell>
        <mxCell id="G5YHtdSnVFfNY6eWmLNl-385" value="&lt;font style=&quot;font-size: 9px;&quot; data-font-src=&quot;https://fonts.googleapis.com/css?family=isocpeur&quot; face=&quot;isocpeur&quot;&gt;Отбражение справки&lt;/font&gt;" style="rounded=0;whiteSpace=wrap;html=1;" parent="eEPNA-gmXamEzi0rjirp-1" vertex="1">
          <mxGeometry x="2864.0868217054262" y="719.9005524861878" width="45.89147286821705" height="37.790055248618785" as="geometry" />
        </mxCell>
        <mxCell id="G5YHtdSnVFfNY6eWmLNl-386" value="&lt;font style=&quot;font-size: 9px;&quot; data-font-src=&quot;https://fonts.googleapis.com/css?family=isocpeur&quot; face=&quot;isocpeur&quot;&gt;Назад&lt;/font&gt;" style="shape=display;whiteSpace=wrap;html=1;" parent="eEPNA-gmXamEzi0rjirp-1" vertex="1">
          <mxGeometry x="2799.3798449612405" y="641.3255801104973" width="45.89147286821705" height="37.790055248618785" as="geometry" />
        </mxCell>
        <mxCell id="G5YHtdSnVFfNY6eWmLNl-388" value="" style="endArrow=none;html=1;rounded=0;" parent="eEPNA-gmXamEzi0rjirp-1" edge="1">
          <mxGeometry width="50" height="50" relative="1" as="geometry">
            <mxPoint x="2886.7067286821707" y="643.3756906077348" as="sourcePoint" />
            <mxPoint x="2886.7067286821707" y="605.585635359116" as="targetPoint" />
          </mxGeometry>
        </mxCell>
        <mxCell id="G5YHtdSnVFfNY6eWmLNl-389" value="" style="endArrow=none;html=1;rounded=0;" parent="eEPNA-gmXamEzi0rjirp-1" edge="1">
          <mxGeometry width="50" height="50" relative="1" as="geometry">
            <mxPoint x="2886.899472868217" y="719.9005524861878" as="sourcePoint" />
            <mxPoint x="2886.899472868217" y="682.1104972375691" as="targetPoint" />
          </mxGeometry>
        </mxCell>
        <mxCell id="G5YHtdSnVFfNY6eWmLNl-390" value="" style="endArrow=none;html=1;rounded=0;" parent="eEPNA-gmXamEzi0rjirp-1" edge="1">
          <mxGeometry width="50" height="50" relative="1" as="geometry">
            <mxPoint x="2886.899472868217" y="795.4806629834255" as="sourcePoint" />
            <mxPoint x="2886.899472868217" y="757.6906077348067" as="targetPoint" />
          </mxGeometry>
        </mxCell>
        <mxCell id="G5YHtdSnVFfNY6eWmLNl-391" value="" style="endArrow=none;html=1;rounded=0;" parent="eEPNA-gmXamEzi0rjirp-1" edge="1">
          <mxGeometry width="50" height="50" relative="1" as="geometry">
            <mxPoint x="2886.899472868217" y="871.6937569060776" as="sourcePoint" />
            <mxPoint x="2886.899472868217" y="833.9037016574589" as="targetPoint" />
            <Array as="points">
              <mxPoint x="2886.5736434108526" y="1077.0165745856355" />
              <mxPoint x="2887.0876279069766" y="871.6937569060776" />
            </Array>
          </mxGeometry>
        </mxCell>
        <mxCell id="G5YHtdSnVFfNY6eWmLNl-392" value="" style="endArrow=none;html=1;rounded=0;" parent="eEPNA-gmXamEzi0rjirp-1" edge="1">
          <mxGeometry width="50" height="50" relative="1" as="geometry">
            <mxPoint x="2822.3255813953488" y="1077.0165745856355" as="sourcePoint" />
            <mxPoint x="2822.1695503875967" y="679.2762430939226" as="targetPoint" />
          </mxGeometry>
        </mxCell>
        <mxCell id="G5YHtdSnVFfNY6eWmLNl-393" value="" style="endArrow=none;html=1;rounded=0;" parent="eEPNA-gmXamEzi0rjirp-1" edge="1">
          <mxGeometry width="50" height="50" relative="1" as="geometry">
            <mxPoint x="2706.54" y="569.8" as="sourcePoint" />
            <mxPoint x="2706.54" y="549.8" as="targetPoint" />
          </mxGeometry>
        </mxCell>
        <mxCell id="G5YHtdSnVFfNY6eWmLNl-394" value="" style="endArrow=none;html=1;rounded=0;" parent="eEPNA-gmXamEzi0rjirp-1" edge="1">
          <mxGeometry width="50" height="50" relative="1" as="geometry">
            <mxPoint x="2673.3113798449613" y="605.585635359116" as="sourcePoint" />
            <mxPoint x="2673.3113798449613" y="567.7955801104972" as="targetPoint" />
          </mxGeometry>
        </mxCell>
        <mxCell id="G5YHtdSnVFfNY6eWmLNl-396" value="" style="endArrow=none;html=1;rounded=0;" parent="eEPNA-gmXamEzi0rjirp-1" edge="1">
          <mxGeometry width="50" height="50" relative="1" as="geometry">
            <mxPoint x="2673.6372093023256" y="651.878453038674" as="sourcePoint" />
            <mxPoint x="2673.692279069767" y="635.817679558011" as="targetPoint" />
          </mxGeometry>
        </mxCell>
        <mxCell id="G5YHtdSnVFfNY6eWmLNl-409" value="&lt;font style=&quot;font-size: 9px;&quot; data-font-src=&quot;https://fonts.googleapis.com/css?family=isocpeur&quot; face=&quot;isocpeur&quot;&gt;pic.bmp&lt;/font&gt;" style="strokeWidth=1;html=1;shape=mxgraph.flowchart.direct_data;whiteSpace=wrap;" parent="eEPNA-gmXamEzi0rjirp-1" vertex="1">
          <mxGeometry x="2650.691472868217" y="604.6408839779006" width="45.89147286821705" height="31.176795580110497" as="geometry" />
        </mxCell>
        <mxCell id="G5YHtdSnVFfNY6eWmLNl-410" value="&lt;font style=&quot;font-size: 9px;&quot; data-font-src=&quot;https://fonts.googleapis.com/css?family=isocpeur&quot; face=&quot;isocpeur&quot;&gt;Клик по картинке&lt;/font&gt;" style="rounded=0;whiteSpace=wrap;html=1;" parent="eEPNA-gmXamEzi0rjirp-1" vertex="1">
          <mxGeometry x="2650.691472868217" y="651.878453038674" width="45.89147286821705" height="37.790055248618785" as="geometry" />
        </mxCell>
        <mxCell id="G5YHtdSnVFfNY6eWmLNl-411" value="&lt;font style=&quot;font-size: 9px;&quot; data-font-src=&quot;https://fonts.googleapis.com/css?family=isocpeur&quot; face=&quot;isocpeur&quot;&gt;Клик по картинке&lt;/font&gt;" style="rounded=0;whiteSpace=wrap;html=1;" parent="eEPNA-gmXamEzi0rjirp-1" vertex="1">
          <mxGeometry x="2650.691472868217" y="705.7292817679559" width="45.89147286821705" height="37.790055248618785" as="geometry" />
        </mxCell>
        <mxCell id="G5YHtdSnVFfNY6eWmLNl-413" value="" style="endArrow=none;html=1;rounded=0;" parent="eEPNA-gmXamEzi0rjirp-1" edge="1">
          <mxGeometry width="50" height="50" relative="1" as="geometry">
            <mxPoint x="2673.5729612403097" y="705.7292817679559" as="sourcePoint" />
            <mxPoint x="2673.628031007752" y="689.6685082872929" as="targetPoint" />
          </mxGeometry>
        </mxCell>
        <mxCell id="G5YHtdSnVFfNY6eWmLNl-414" value="" style="endArrow=none;html=1;rounded=0;" parent="eEPNA-gmXamEzi0rjirp-1" edge="1">
          <mxGeometry width="50" height="50" relative="1" as="geometry">
            <mxPoint x="2673.5729612403097" y="759.5801104972376" as="sourcePoint" />
            <mxPoint x="2673.628031007752" y="743.5193370165746" as="targetPoint" />
          </mxGeometry>
        </mxCell>
        <mxCell id="G5YHtdSnVFfNY6eWmLNl-415" value="&lt;font style=&quot;font-size: 9px;&quot; face=&quot;isocpeur&quot;&gt;Картинки одинаковые&lt;br&gt;?&lt;/font&gt;" style="rhombus;whiteSpace=wrap;html=1;" parent="eEPNA-gmXamEzi0rjirp-1" vertex="1">
          <mxGeometry x="2650.69" y="759.27" width="45.89" height="90.73" as="geometry" />
        </mxCell>
        <mxCell id="G5YHtdSnVFfNY6eWmLNl-416" value="" style="endArrow=classic;html=1;rounded=0;" parent="eEPNA-gmXamEzi0rjirp-1" edge="1">
          <mxGeometry width="50" height="50" relative="1" as="geometry">
            <mxPoint x="2650.691472868217" y="805.0497790055248" as="sourcePoint" />
            <mxPoint x="2627.7457364341085" y="805.3237569060772" as="targetPoint" />
          </mxGeometry>
        </mxCell>
        <mxCell id="G5YHtdSnVFfNY6eWmLNl-417" value="" style="endArrow=classic;html=1;rounded=0;" parent="eEPNA-gmXamEzi0rjirp-1" edge="1">
          <mxGeometry width="50" height="50" relative="1" as="geometry">
            <mxPoint x="2630" y="965" as="sourcePoint" />
            <mxPoint x="2630" y="640" as="targetPoint" />
          </mxGeometry>
        </mxCell>
        <mxCell id="G5YHtdSnVFfNY6eWmLNl-418" value="&lt;font style=&quot;font-size: 9px;&quot; data-font-src=&quot;https://fonts.googleapis.com/css?family=isocpeur&quot; face=&quot;isocpeur&quot;&gt;Нет&lt;/font&gt;" style="text;html=1;align=center;verticalAlign=middle;resizable=0;points=[];autosize=1;strokeColor=none;fillColor=none;" parent="eEPNA-gmXamEzi0rjirp-1" vertex="1">
          <mxGeometry x="2623.33488372093" y="778.9812154696131" width="40" height="30" as="geometry" />
        </mxCell>
        <mxCell id="G5YHtdSnVFfNY6eWmLNl-419" value="" style="endArrow=none;html=1;rounded=0;" parent="eEPNA-gmXamEzi0rjirp-1" edge="1">
          <mxGeometry width="50" height="50" relative="1" as="geometry">
            <mxPoint x="2630" y="640" as="sourcePoint" />
            <mxPoint x="2674" y="640" as="targetPoint" />
          </mxGeometry>
        </mxCell>
        <mxCell id="G5YHtdSnVFfNY6eWmLNl-420" value="" style="endArrow=none;html=1;rounded=0;" parent="eEPNA-gmXamEzi0rjirp-1" edge="1">
          <mxGeometry width="50" height="50" relative="1" as="geometry">
            <mxPoint x="2673.5561240310076" y="875.8367403314918" as="sourcePoint" />
            <mxPoint x="2673.546945736434" y="849.3837016574587" as="targetPoint" />
          </mxGeometry>
        </mxCell>
        <mxCell id="G5YHtdSnVFfNY6eWmLNl-421" value="&lt;font style=&quot;font-size: 9px;&quot; data-font-src=&quot;https://fonts.googleapis.com/css?family=isocpeur&quot; face=&quot;isocpeur&quot;&gt;Да&lt;/font&gt;" style="text;html=1;align=center;verticalAlign=middle;resizable=0;points=[];autosize=1;strokeColor=none;fillColor=none;" parent="eEPNA-gmXamEzi0rjirp-1" vertex="1">
          <mxGeometry x="2667.0028682170546" y="845.6224309392264" width="30" height="30" as="geometry" />
        </mxCell>
        <mxCell id="G5YHtdSnVFfNY6eWmLNl-422" value="&lt;font style=&quot;font-size: 9px;&quot; data-font-src=&quot;https://fonts.googleapis.com/css?family=isocpeur&quot; face=&quot;isocpeur&quot;&gt;&quot;Стереть&quot; пару картинок&lt;/font&gt;" style="rounded=0;whiteSpace=wrap;html=1;" parent="eEPNA-gmXamEzi0rjirp-1" vertex="1">
          <mxGeometry x="2652.58" y="875.62" width="45.89" height="41.38" as="geometry" />
        </mxCell>
        <mxCell id="G5YHtdSnVFfNY6eWmLNl-423" value="" style="endArrow=none;html=1;rounded=0;" parent="eEPNA-gmXamEzi0rjirp-1" edge="1">
          <mxGeometry width="50" height="50" relative="1" as="geometry">
            <mxPoint x="2675.33296124031" y="1015.3323204419889" as="sourcePoint" />
            <mxPoint x="2675.388031007752" y="999.271546961326" as="targetPoint" />
          </mxGeometry>
        </mxCell>
        <mxCell id="G5YHtdSnVFfNY6eWmLNl-424" value="&lt;font style=&quot;font-size: 9px;&quot; face=&quot;isocpeur&quot;&gt;Есть&lt;br&gt;ещё&lt;br&gt;картинки&lt;br&gt;?&lt;/font&gt;" style="rhombus;whiteSpace=wrap;html=1;" parent="eEPNA-gmXamEzi0rjirp-1" vertex="1">
          <mxGeometry x="2651.62" y="929.4399999999999" width="47.8" height="70" as="geometry" />
        </mxCell>
        <mxCell id="G5YHtdSnVFfNY6eWmLNl-425" value="" style="endArrow=classic;html=1;rounded=0;" parent="eEPNA-gmXamEzi0rjirp-1" edge="1">
          <mxGeometry width="50" height="50" relative="1" as="geometry">
            <mxPoint x="2652.5814728682167" y="964.3019889502763" as="sourcePoint" />
            <mxPoint x="2629.6357364341084" y="964.5759668508288" as="targetPoint" />
          </mxGeometry>
        </mxCell>
        <mxCell id="G5YHtdSnVFfNY6eWmLNl-427" value="" style="endArrow=none;html=1;rounded=0;exitX=0.5;exitY=0;exitDx=0;exitDy=0;" parent="eEPNA-gmXamEzi0rjirp-1" edge="1" source="G5YHtdSnVFfNY6eWmLNl-424">
          <mxGeometry width="50" height="50" relative="1" as="geometry">
            <mxPoint x="2675" y="930" as="sourcePoint" />
            <mxPoint x="2675.4769457364337" y="916.99591160221" as="targetPoint" />
          </mxGeometry>
        </mxCell>
        <mxCell id="G5YHtdSnVFfNY6eWmLNl-428" value="&lt;font style=&quot;font-size: 12px;&quot; data-font-src=&quot;https://fonts.googleapis.com/css?family=isocpeur&quot; face=&quot;isocpeur&quot;&gt;Да&lt;/font&gt;" style="text;html=1;align=center;verticalAlign=middle;resizable=0;points=[];autosize=1;strokeColor=none;fillColor=none;" parent="eEPNA-gmXamEzi0rjirp-1" vertex="1">
          <mxGeometry x="2667.0028682170546" y="990.0046408839778" width="40" height="30" as="geometry" />
        </mxCell>
        <mxCell id="G5YHtdSnVFfNY6eWmLNl-429" value="&lt;font style=&quot;font-size: 9px;&quot; data-font-src=&quot;https://fonts.googleapis.com/css?family=isocpeur&quot; face=&quot;isocpeur&quot;&gt;Вывод &quot;Победа!&quot;&lt;/font&gt;" style="rounded=0;whiteSpace=wrap;html=1;" parent="eEPNA-gmXamEzi0rjirp-1" vertex="1">
          <mxGeometry x="2652.57" y="1015" width="45.89" height="29.79" as="geometry" />
        </mxCell>
        <mxCell id="G5YHtdSnVFfNY6eWmLNl-430" value="&lt;font style=&quot;font-size: 9px;&quot; data-font-src=&quot;https://fonts.googleapis.com/css?family=isocpeur&quot; face=&quot;isocpeur&quot;&gt;Новая игра&lt;/font&gt;" style="shape=display;whiteSpace=wrap;html=1;" parent="eEPNA-gmXamEzi0rjirp-1" vertex="1">
          <mxGeometry x="2739.720930232558" y="642.7427071823205" width="45.89147286821705" height="37.790055248618785" as="geometry" />
        </mxCell>
        <mxCell id="G5YHtdSnVFfNY6eWmLNl-431" value="" style="endArrow=none;html=1;rounded=0;" parent="eEPNA-gmXamEzi0rjirp-1" edge="1">
          <mxGeometry width="50" height="50" relative="1" as="geometry">
            <mxPoint x="2762.7997519379846" y="643.8480662983426" as="sourcePoint" />
            <mxPoint x="2762.7997519379846" y="606.0580110497237" as="targetPoint" />
          </mxGeometry>
        </mxCell>
        <mxCell id="G5YHtdSnVFfNY6eWmLNl-432" value="" style="endArrow=none;html=1;rounded=0;" parent="eEPNA-gmXamEzi0rjirp-1" edge="1">
          <mxGeometry width="50" height="50" relative="1" as="geometry">
            <mxPoint x="2762.6666666666665" y="1078.4337016574586" as="sourcePoint" />
            <mxPoint x="2762.5106356589145" y="680.6933701657459" as="targetPoint" />
          </mxGeometry>
        </mxCell>
        <mxCell id="G5YHtdSnVFfNY6eWmLNl-435" value="" style="endArrow=none;html=1;rounded=0;" parent="eEPNA-gmXamEzi0rjirp-1" edge="1">
          <mxGeometry width="50" height="50" relative="1" as="geometry">
            <mxPoint x="2937.0542635658912" y="273.9779005524862" as="sourcePoint" />
            <mxPoint x="2936.957891472868" y="245.6353591160221" as="targetPoint" />
          </mxGeometry>
        </mxCell>
        <mxCell id="G5YHtdSnVFfNY6eWmLNl-436" value="&lt;font style=&quot;font-size: 9px;&quot; data-font-src=&quot;https://fonts.googleapis.com/css?family=isocpeur&quot; face=&quot;isocpeur&quot;&gt;Выход&lt;/font&gt;" style="shape=display;whiteSpace=wrap;html=1;" parent="eEPNA-gmXamEzi0rjirp-1" vertex="1">
          <mxGeometry x="2914.108527131783" y="273.9779005524862" width="45.89147286821705" height="37.790055248618785" as="geometry" />
        </mxCell>
        <mxCell id="G5YHtdSnVFfNY6eWmLNl-437" value="" style="endArrow=none;html=1;rounded=0;" parent="eEPNA-gmXamEzi0rjirp-1" edge="1">
          <mxGeometry width="50" height="50" relative="1" as="geometry">
            <mxPoint x="2937.0542635658912" y="1568.2872928176796" as="sourcePoint" />
            <mxPoint x="2937.0542635658912" y="311.7679558011049" as="targetPoint" />
          </mxGeometry>
        </mxCell>
        <mxCell id="G5YHtdSnVFfNY6eWmLNl-438" value="&lt;font size=&quot;3&quot; face=&quot;isocpeur&quot;&gt;Конец&lt;/font&gt;" style="ellipse;whiteSpace=wrap;html=1;" parent="eEPNA-gmXamEzi0rjirp-1" vertex="1">
          <mxGeometry x="647.07" y="1662.76" width="41.3" height="27.24" as="geometry" />
        </mxCell>
        <mxCell id="G5YHtdSnVFfNY6eWmLNl-439" value="" style="endArrow=none;html=1;rounded=0;" parent="eEPNA-gmXamEzi0rjirp-1" edge="1">
          <mxGeometry width="50" height="50" relative="1" as="geometry">
            <mxPoint x="667.0922170542636" y="1662.7624309392265" as="sourcePoint" />
            <mxPoint x="667.262015503876" y="1568.2872928176796" as="targetPoint" />
            <Array as="points">
              <mxPoint x="667.2803720930233" y="1662.7624309392265" />
            </Array>
          </mxGeometry>
        </mxCell>
        <mxCell id="G5YHtdSnVFfNY6eWmLNl-440" value="" style="endArrow=none;html=1;rounded=0;" parent="eEPNA-gmXamEzi0rjirp-1" edge="1">
          <mxGeometry width="50" height="50" relative="1" as="geometry">
            <mxPoint x="27.53488372093023" y="500.7182320441989" as="sourcePoint" />
            <mxPoint x="27.53488372093023" y="330.6629834254144" as="targetPoint" />
          </mxGeometry>
        </mxCell>
        <mxCell id="G5YHtdSnVFfNY6eWmLNl-441" value="" style="shape=requiredInterface;html=1;verticalLabelPosition=bottom;sketch=0;rotation=-185;" parent="eEPNA-gmXamEzi0rjirp-1" vertex="1">
          <mxGeometry x="23.404651162790696" y="501.6629834254144" width="4.589147286821706" height="18.895027624309392" as="geometry" />
        </mxCell>
        <mxCell id="G5YHtdSnVFfNY6eWmLNl-442" value="" style="endArrow=none;html=1;rounded=0;" parent="eEPNA-gmXamEzi0rjirp-1" edge="1">
          <mxGeometry width="50" height="50" relative="1" as="geometry">
            <mxPoint x="28.452713178294573" y="1483.2596685082874" as="sourcePoint" />
            <mxPoint x="28.452713178294573" y="520.5580110497237" as="targetPoint" />
          </mxGeometry>
        </mxCell>
        <mxCell id="G5YHtdSnVFfNY6eWmLNl-443" value="" style="endArrow=none;html=1;rounded=0;" parent="eEPNA-gmXamEzi0rjirp-1" edge="1">
          <mxGeometry width="50" height="50" relative="1" as="geometry">
            <mxPoint x="27.53488372093023" y="1568.2872928176796" as="sourcePoint" />
            <mxPoint x="670.015503875969" y="1568.2872928176796" as="targetPoint" />
          </mxGeometry>
        </mxCell>
        <mxCell id="G5YHtdSnVFfNY6eWmLNl-444" value="" style="endArrow=classic;html=1;rounded=0;" parent="eEPNA-gmXamEzi0rjirp-1" edge="1">
          <mxGeometry width="50" height="50" relative="1" as="geometry">
            <mxPoint x="2937.0542635658912" y="1568.2872928176796" as="sourcePoint" />
            <mxPoint x="665.4263565891473" y="1568.2872928176796" as="targetPoint" />
          </mxGeometry>
        </mxCell>
        <mxCell id="G5YHtdSnVFfNY6eWmLNl-449" value="" style="endArrow=classic;html=1;rounded=0;" parent="eEPNA-gmXamEzi0rjirp-1" edge="1">
          <mxGeometry width="50" height="50" relative="1" as="geometry">
            <mxPoint x="2427.6589147286822" y="1490.7071823204421" as="sourcePoint" />
            <mxPoint y="1490.7071823204421" as="targetPoint" />
          </mxGeometry>
        </mxCell>
        <mxCell id="G5YHtdSnVFfNY6eWmLNl-451" value="" style="shape=requiredInterface;html=1;verticalLabelPosition=bottom;sketch=0;rotation=-185;" parent="eEPNA-gmXamEzi0rjirp-1" vertex="1">
          <mxGeometry x="24.322480620155037" y="1483.2596685082874" width="4.589147286821706" height="18.895027624309392" as="geometry" />
        </mxCell>
        <mxCell id="G5YHtdSnVFfNY6eWmLNl-453" value="" style="endArrow=none;html=1;rounded=0;" parent="eEPNA-gmXamEzi0rjirp-1" edge="1">
          <mxGeometry width="50" height="50" relative="1" as="geometry">
            <mxPoint x="28.911627906976744" y="1568.2872928176796" as="sourcePoint" />
            <mxPoint x="28.911627906976744" y="1502.1546961325967" as="targetPoint" />
          </mxGeometry>
        </mxCell>
        <mxCell id="G5YHtdSnVFfNY6eWmLNl-458" value="" style="endArrow=none;html=1;rounded=0;" parent="eEPNA-gmXamEzi0rjirp-1" edge="1">
          <mxGeometry width="50" height="50" relative="1" as="geometry">
            <mxPoint x="284.29767441860463" y="481.8232044198895" as="sourcePoint" />
            <mxPoint x="284.52713178294573" y="623.5359116022099" as="targetPoint" />
          </mxGeometry>
        </mxCell>
        <mxCell id="G5YHtdSnVFfNY6eWmLNl-459" value="" style="endArrow=none;html=1;rounded=0;" parent="eEPNA-gmXamEzi0rjirp-1" edge="1">
          <mxGeometry width="50" height="50" relative="1" as="geometry">
            <mxPoint x="233.5371162790697" y="481.8232044198895" as="sourcePoint" />
            <mxPoint x="234.04651162790697" y="623.5359116022099" as="targetPoint" />
          </mxGeometry>
        </mxCell>
        <mxCell id="G5YHtdSnVFfNY6eWmLNl-460" value="" style="endArrow=none;html=1;rounded=0;" parent="eEPNA-gmXamEzi0rjirp-1" edge="1">
          <mxGeometry width="50" height="50" relative="1" as="geometry">
            <mxPoint x="183.05649612403096" y="481.8232044198895" as="sourcePoint" />
            <mxPoint x="183.5658914728682" y="623.5359116022099" as="targetPoint" />
          </mxGeometry>
        </mxCell>
        <mxCell id="G5YHtdSnVFfNY6eWmLNl-461" value="" style="endArrow=none;html=1;rounded=0;" parent="eEPNA-gmXamEzi0rjirp-1" edge="1">
          <mxGeometry width="50" height="50" relative="1" as="geometry">
            <mxPoint x="132.5758759689922" y="481.8232044198895" as="sourcePoint" />
            <mxPoint x="133.08527131782947" y="623.5359116022099" as="targetPoint" />
          </mxGeometry>
        </mxCell>
        <mxCell id="G5YHtdSnVFfNY6eWmLNl-462" value="" style="endArrow=none;html=1;rounded=0;" parent="eEPNA-gmXamEzi0rjirp-1" edge="1">
          <mxGeometry width="50" height="50" relative="1" as="geometry">
            <mxPoint y="256.0828729281768" as="sourcePoint" />
            <mxPoint x="77" y="256" as="targetPoint" />
          </mxGeometry>
        </mxCell>
        <mxCell id="G5YHtdSnVFfNY6eWmLNl-463" value="" style="endArrow=none;html=1;rounded=0;" parent="eEPNA-gmXamEzi0rjirp-1" edge="1">
          <mxGeometry width="50" height="50" relative="1" as="geometry">
            <mxPoint x="133.08527131782947" y="624.4806629834254" as="sourcePoint" />
            <mxPoint x="211.10077519379846" y="623.5359116022099" as="targetPoint" />
          </mxGeometry>
        </mxCell>
        <mxCell id="G5YHtdSnVFfNY6eWmLNl-464" value="" style="endArrow=none;html=1;rounded=0;" parent="eEPNA-gmXamEzi0rjirp-1" edge="1">
          <mxGeometry width="50" height="50" relative="1" as="geometry">
            <mxPoint x="211.1007751937984" y="624.4806629834254" as="sourcePoint" />
            <mxPoint x="211.55968992248063" y="1492.7071823204421" as="targetPoint" />
          </mxGeometry>
        </mxCell>
        <mxCell id="G5YHtdSnVFfNY6eWmLNl-465" value="" style="endArrow=none;html=1;rounded=0;" parent="eEPNA-gmXamEzi0rjirp-1" edge="1">
          <mxGeometry width="50" height="50" relative="1" as="geometry">
            <mxPoint x="564.745054263566" y="632.0386740331492" as="sourcePoint" />
            <mxPoint x="564.9745116279071" y="773.7513812154697" as="targetPoint" />
          </mxGeometry>
        </mxCell>
        <mxCell id="G5YHtdSnVFfNY6eWmLNl-466" value="" style="endArrow=none;html=1;rounded=0;" parent="eEPNA-gmXamEzi0rjirp-1" edge="1">
          <mxGeometry width="50" height="50" relative="1" as="geometry">
            <mxPoint x="513.984496124031" y="632.0386740331492" as="sourcePoint" />
            <mxPoint x="514.4938914728683" y="773.7513812154697" as="targetPoint" />
          </mxGeometry>
        </mxCell>
        <mxCell id="G5YHtdSnVFfNY6eWmLNl-467" value="" style="endArrow=none;html=1;rounded=0;" parent="eEPNA-gmXamEzi0rjirp-1" edge="1">
          <mxGeometry width="50" height="50" relative="1" as="geometry">
            <mxPoint x="463.50387596899225" y="632.0386740331492" as="sourcePoint" />
            <mxPoint x="464.0132713178295" y="773.7513812154697" as="targetPoint" />
          </mxGeometry>
        </mxCell>
        <mxCell id="G5YHtdSnVFfNY6eWmLNl-468" value="" style="endArrow=none;html=1;rounded=0;" parent="eEPNA-gmXamEzi0rjirp-1" edge="1">
          <mxGeometry width="50" height="50" relative="1" as="geometry">
            <mxPoint x="413.0232558139535" y="632.0386740331492" as="sourcePoint" />
            <mxPoint x="413.5326511627907" y="773.7513812154697" as="targetPoint" />
          </mxGeometry>
        </mxCell>
        <mxCell id="G5YHtdSnVFfNY6eWmLNl-469" value="" style="endArrow=none;html=1;rounded=0;" parent="eEPNA-gmXamEzi0rjirp-1" edge="1">
          <mxGeometry width="50" height="50" relative="1" as="geometry">
            <mxPoint x="413.5326511627907" y="774.6961325966851" as="sourcePoint" />
            <mxPoint x="491.0387596899225" y="774.6961325966851" as="targetPoint" />
          </mxGeometry>
        </mxCell>
        <mxCell id="G5YHtdSnVFfNY6eWmLNl-470" value="" style="endArrow=none;html=1;rounded=0;" parent="eEPNA-gmXamEzi0rjirp-1" edge="1">
          <mxGeometry width="50" height="50" relative="1" as="geometry">
            <mxPoint x="491.54815503875966" y="774.6961325966851" as="sourcePoint" />
            <mxPoint x="491.9565891472868" y="1492.7071823204421" as="targetPoint" />
          </mxGeometry>
        </mxCell>
        <mxCell id="G5YHtdSnVFfNY6eWmLNl-471" value="" style="endArrow=none;html=1;rounded=0;" parent="eEPNA-gmXamEzi0rjirp-1" edge="1">
          <mxGeometry width="50" height="50" relative="1" as="geometry">
            <mxPoint x="826.326449612403" y="1309.425414364641" as="sourcePoint" />
            <mxPoint x="826.5054263565892" y="1454.9171270718232" as="targetPoint" />
          </mxGeometry>
        </mxCell>
        <mxCell id="G5YHtdSnVFfNY6eWmLNl-472" value="" style="endArrow=none;html=1;rounded=0;" parent="eEPNA-gmXamEzi0rjirp-1" edge="1">
          <mxGeometry width="50" height="50" relative="1" as="geometry">
            <mxPoint x="775.5658914728681" y="1309.425414364641" as="sourcePoint" />
            <mxPoint x="776.0248062015504" y="1454.9171270718232" as="targetPoint" />
          </mxGeometry>
        </mxCell>
        <mxCell id="G5YHtdSnVFfNY6eWmLNl-473" value="" style="endArrow=none;html=1;rounded=0;" parent="eEPNA-gmXamEzi0rjirp-1" edge="1">
          <mxGeometry width="50" height="50" relative="1" as="geometry">
            <mxPoint x="725.0852713178293" y="1309.425414364641" as="sourcePoint" />
            <mxPoint x="725.5441860465116" y="1454.9171270718232" as="targetPoint" />
          </mxGeometry>
        </mxCell>
        <mxCell id="G5YHtdSnVFfNY6eWmLNl-474" value="" style="endArrow=none;html=1;rounded=0;" parent="eEPNA-gmXamEzi0rjirp-1" edge="1">
          <mxGeometry width="50" height="50" relative="1" as="geometry">
            <mxPoint x="674.6046511627906" y="1309.425414364641" as="sourcePoint" />
            <mxPoint x="675.0635658914729" y="1454.9171270718232" as="targetPoint" />
          </mxGeometry>
        </mxCell>
        <mxCell id="G5YHtdSnVFfNY6eWmLNl-475" value="" style="endArrow=none;html=1;rounded=0;" parent="eEPNA-gmXamEzi0rjirp-1" edge="1">
          <mxGeometry width="50" height="50" relative="1" as="geometry">
            <mxPoint x="675.0635658914729" y="1454.9171270718232" as="sourcePoint" />
            <mxPoint x="752.6201550387597" y="1454.9171270718232" as="targetPoint" />
          </mxGeometry>
        </mxCell>
        <mxCell id="G5YHtdSnVFfNY6eWmLNl-476" value="" style="endArrow=none;html=1;rounded=0;" parent="eEPNA-gmXamEzi0rjirp-1" edge="1">
          <mxGeometry width="50" height="50" relative="1" as="geometry">
            <mxPoint x="753" y="1455" as="sourcePoint" />
            <mxPoint x="753" y="1490" as="targetPoint" />
          </mxGeometry>
        </mxCell>
        <mxCell id="G5YHtdSnVFfNY6eWmLNl-478" value="" style="endArrow=none;html=1;rounded=0;" parent="eEPNA-gmXamEzi0rjirp-1" edge="1">
          <mxGeometry width="50" height="50" relative="1" as="geometry">
            <mxPoint x="1046.6055193798447" y="615.6" as="sourcePoint" />
            <mxPoint x="1046.834976744186" y="757.3127071823205" as="targetPoint" />
          </mxGeometry>
        </mxCell>
        <mxCell id="G5YHtdSnVFfNY6eWmLNl-479" value="" style="endArrow=none;html=1;rounded=0;" parent="eEPNA-gmXamEzi0rjirp-1" edge="1">
          <mxGeometry width="50" height="50" relative="1" as="geometry">
            <mxPoint x="995.8449612403101" y="615.6" as="sourcePoint" />
            <mxPoint x="996.3543565891471" y="757.3127071823205" as="targetPoint" />
          </mxGeometry>
        </mxCell>
        <mxCell id="G5YHtdSnVFfNY6eWmLNl-480" value="" style="endArrow=none;html=1;rounded=0;" parent="eEPNA-gmXamEzi0rjirp-1" edge="1">
          <mxGeometry width="50" height="50" relative="1" as="geometry">
            <mxPoint x="945.3643410852713" y="615.6" as="sourcePoint" />
            <mxPoint x="945.8737364341083" y="757.3127071823205" as="targetPoint" />
          </mxGeometry>
        </mxCell>
        <mxCell id="G5YHtdSnVFfNY6eWmLNl-481" value="" style="endArrow=none;html=1;rounded=0;" parent="eEPNA-gmXamEzi0rjirp-1" edge="1">
          <mxGeometry width="50" height="50" relative="1" as="geometry">
            <mxPoint x="894.8837209302326" y="615.6" as="sourcePoint" />
            <mxPoint x="895.3931162790697" y="757.3127071823205" as="targetPoint" />
          </mxGeometry>
        </mxCell>
        <mxCell id="G5YHtdSnVFfNY6eWmLNl-482" value="" style="endArrow=none;html=1;rounded=0;" parent="eEPNA-gmXamEzi0rjirp-1" edge="1">
          <mxGeometry width="50" height="50" relative="1" as="geometry">
            <mxPoint x="895.3931162790697" y="758.2574585635359" as="sourcePoint" />
            <mxPoint x="972.8992248062016" y="758.6353591160221" as="targetPoint" />
          </mxGeometry>
        </mxCell>
        <mxCell id="G5YHtdSnVFfNY6eWmLNl-483" value="" style="endArrow=none;html=1;rounded=0;" parent="eEPNA-gmXamEzi0rjirp-1" edge="1">
          <mxGeometry width="50" height="50" relative="1" as="geometry">
            <mxPoint x="973.4086201550386" y="758.2574585635359" as="sourcePoint" />
            <mxPoint x="973.8170542635659" y="1490.8176795580112" as="targetPoint" />
          </mxGeometry>
        </mxCell>
        <mxCell id="G5YHtdSnVFfNY6eWmLNl-485" value="" style="endArrow=none;html=1;rounded=0;" parent="eEPNA-gmXamEzi0rjirp-1" edge="1">
          <mxGeometry width="50" height="50" relative="1" as="geometry">
            <mxPoint x="1378.8597829457365" y="617.489502762431" as="sourcePoint" />
            <mxPoint x="1379.0892403100775" y="759.2022099447514" as="targetPoint" />
          </mxGeometry>
        </mxCell>
        <mxCell id="G5YHtdSnVFfNY6eWmLNl-486" value="" style="endArrow=none;html=1;rounded=0;" parent="eEPNA-gmXamEzi0rjirp-1" edge="1">
          <mxGeometry width="50" height="50" relative="1" as="geometry">
            <mxPoint x="1328.0992248062016" y="617.489502762431" as="sourcePoint" />
            <mxPoint x="1328.6086201550388" y="759.2022099447514" as="targetPoint" />
          </mxGeometry>
        </mxCell>
        <mxCell id="G5YHtdSnVFfNY6eWmLNl-487" value="" style="endArrow=none;html=1;rounded=0;" parent="eEPNA-gmXamEzi0rjirp-1" edge="1">
          <mxGeometry width="50" height="50" relative="1" as="geometry">
            <mxPoint x="1277.6186046511627" y="617.489502762431" as="sourcePoint" />
            <mxPoint x="1278.128" y="759.2022099447514" as="targetPoint" />
          </mxGeometry>
        </mxCell>
        <mxCell id="G5YHtdSnVFfNY6eWmLNl-488" value="" style="endArrow=none;html=1;rounded=0;" parent="eEPNA-gmXamEzi0rjirp-1" edge="1">
          <mxGeometry width="50" height="50" relative="1" as="geometry">
            <mxPoint x="1227.137984496124" y="617.489502762431" as="sourcePoint" />
            <mxPoint x="1227.6473798449613" y="759.2022099447514" as="targetPoint" />
          </mxGeometry>
        </mxCell>
        <mxCell id="G5YHtdSnVFfNY6eWmLNl-489" value="" style="endArrow=none;html=1;rounded=0;" parent="eEPNA-gmXamEzi0rjirp-1" edge="1">
          <mxGeometry width="50" height="50" relative="1" as="geometry">
            <mxPoint x="1227.6473798449613" y="760.1469613259669" as="sourcePoint" />
            <mxPoint x="1307.906976744186" y="760.5248618784531" as="targetPoint" />
          </mxGeometry>
        </mxCell>
        <mxCell id="G5YHtdSnVFfNY6eWmLNl-490" value="" style="endArrow=none;html=1;rounded=0;" parent="eEPNA-gmXamEzi0rjirp-1" edge="1">
          <mxGeometry width="50" height="50" relative="1" as="geometry">
            <mxPoint x="1305.6628837209303" y="760.1469613259669" as="sourcePoint" />
            <mxPoint x="1306.0713178294573" y="1492.7071823204421" as="targetPoint" />
          </mxGeometry>
        </mxCell>
        <mxCell id="G5YHtdSnVFfNY6eWmLNl-491" value="" style="endArrow=none;html=1;rounded=0;exitX=0.497;exitY=1.001;exitDx=0;exitDy=0;exitPerimeter=0;" parent="eEPNA-gmXamEzi0rjirp-1" edge="1" source="G5YHtdSnVFfNY6eWmLNl-244">
          <mxGeometry width="50" height="50" relative="1" as="geometry">
            <mxPoint x="1739.5667596899225" y="644.0086740331492" as="sourcePoint" />
            <mxPoint x="1739.7962170542637" y="785.7213812154696" as="targetPoint" />
          </mxGeometry>
        </mxCell>
        <mxCell id="G5YHtdSnVFfNY6eWmLNl-492" value="" style="endArrow=none;html=1;rounded=0;exitX=0.485;exitY=1.021;exitDx=0;exitDy=0;exitPerimeter=0;" parent="eEPNA-gmXamEzi0rjirp-1" edge="1" source="G5YHtdSnVFfNY6eWmLNl-243">
          <mxGeometry width="50" height="50" relative="1" as="geometry">
            <mxPoint x="1688.8062015503876" y="644.0086740331492" as="sourcePoint" />
            <mxPoint x="1689.3155968992248" y="785.7213812154696" as="targetPoint" />
          </mxGeometry>
        </mxCell>
        <mxCell id="G5YHtdSnVFfNY6eWmLNl-493" value="" style="endArrow=none;html=1;rounded=0;exitX=0.48;exitY=1.028;exitDx=0;exitDy=0;exitPerimeter=0;" parent="eEPNA-gmXamEzi0rjirp-1" edge="1" source="G5YHtdSnVFfNY6eWmLNl-242">
          <mxGeometry width="50" height="50" relative="1" as="geometry">
            <mxPoint x="1638.3255813953488" y="644.0086740331492" as="sourcePoint" />
            <mxPoint x="1638.8349767441862" y="785.7213812154696" as="targetPoint" />
          </mxGeometry>
        </mxCell>
        <mxCell id="G5YHtdSnVFfNY6eWmLNl-494" value="" style="endArrow=none;html=1;rounded=0;" parent="eEPNA-gmXamEzi0rjirp-1" edge="1">
          <mxGeometry width="50" height="50" relative="1" as="geometry">
            <mxPoint x="1587.84496124031" y="644.0086740331492" as="sourcePoint" />
            <mxPoint x="1588.3543565891473" y="785.7213812154696" as="targetPoint" />
          </mxGeometry>
        </mxCell>
        <mxCell id="G5YHtdSnVFfNY6eWmLNl-495" value="" style="endArrow=none;html=1;rounded=0;" parent="eEPNA-gmXamEzi0rjirp-1" edge="1">
          <mxGeometry width="50" height="50" relative="1" as="geometry">
            <mxPoint x="1588.3543565891473" y="786.6661325966851" as="sourcePoint" />
            <mxPoint x="1665.860465116279" y="786.9779005524862" as="targetPoint" />
          </mxGeometry>
        </mxCell>
        <mxCell id="G5YHtdSnVFfNY6eWmLNl-496" value="" style="endArrow=none;html=1;rounded=0;entryX=0.116;entryY=1.064;entryDx=0;entryDy=0;entryPerimeter=0;" parent="eEPNA-gmXamEzi0rjirp-1" target="G5YHtdSnVFfNY6eWmLNl-500" edge="1">
          <mxGeometry width="50" height="50" relative="1" as="geometry">
            <mxPoint x="1666.3698604651163" y="786.6661325966851" as="sourcePoint" />
            <mxPoint x="1666.7782945736433" y="1039.2265193370165" as="targetPoint" />
          </mxGeometry>
        </mxCell>
        <mxCell id="G5YHtdSnVFfNY6eWmLNl-500" value="" style="shape=requiredInterface;html=1;verticalLabelPosition=bottom;sketch=0;rotation=-185;" parent="eEPNA-gmXamEzi0rjirp-1" vertex="1">
          <mxGeometry x="1661.408992248062" y="1067.5690607734807" width="4.589147286821706" height="18.895027624309392" as="geometry" />
        </mxCell>
        <mxCell id="G5YHtdSnVFfNY6eWmLNl-501" value="" style="endArrow=none;html=1;rounded=0;" parent="eEPNA-gmXamEzi0rjirp-1" edge="1">
          <mxGeometry width="50" height="50" relative="1" as="geometry">
            <mxPoint x="1665.9981395348839" y="1086.4640883977902" as="sourcePoint" />
            <mxPoint x="1665.860465116279" y="1492.7071823204421" as="targetPoint" />
          </mxGeometry>
        </mxCell>
        <mxCell id="G5YHtdSnVFfNY6eWmLNl-503" value="" style="endArrow=none;html=1;rounded=0;" parent="eEPNA-gmXamEzi0rjirp-1" edge="1">
          <mxGeometry width="50" height="50" relative="1" as="geometry">
            <mxPoint x="2065" y="840" as="sourcePoint" />
            <mxPoint x="2065.116279069767" y="973.0939226519338" as="targetPoint" />
          </mxGeometry>
        </mxCell>
        <mxCell id="G5YHtdSnVFfNY6eWmLNl-504" value="" style="endArrow=none;html=1;rounded=0;" parent="eEPNA-gmXamEzi0rjirp-1" edge="1">
          <mxGeometry width="50" height="50" relative="1" as="geometry">
            <mxPoint x="2015" y="840" as="sourcePoint" />
            <mxPoint x="2015.1450542635662" y="975.6164088397791" as="targetPoint" />
          </mxGeometry>
        </mxCell>
        <mxCell id="G5YHtdSnVFfNY6eWmLNl-505" value="" style="endArrow=none;html=1;rounded=0;" parent="eEPNA-gmXamEzi0rjirp-1" edge="1">
          <mxGeometry width="50" height="50" relative="1" as="geometry">
            <mxPoint x="1964" y="840" as="sourcePoint" />
            <mxPoint x="1964.613953488372" y="973.0939226519338" as="targetPoint" />
          </mxGeometry>
        </mxCell>
        <mxCell id="G5YHtdSnVFfNY6eWmLNl-506" value="" style="endArrow=none;html=1;rounded=0;" parent="eEPNA-gmXamEzi0rjirp-1" edge="1">
          <mxGeometry width="50" height="50" relative="1" as="geometry">
            <mxPoint x="1965.2610232558143" y="973.0939226519338" as="sourcePoint" />
            <mxPoint x="2015.2322480620155" y="973.4056906077348" as="targetPoint" />
          </mxGeometry>
        </mxCell>
        <mxCell id="G5YHtdSnVFfNY6eWmLNl-511" value="" style="endArrow=none;html=1;rounded=0;" parent="eEPNA-gmXamEzi0rjirp-1" edge="1">
          <mxGeometry width="50" height="50" relative="1" as="geometry">
            <mxPoint x="2015.0945736434107" y="1067.5690607734807" as="sourcePoint" />
            <mxPoint x="2015.0945736434107" y="974.0386740331492" as="targetPoint" />
          </mxGeometry>
        </mxCell>
        <mxCell id="G5YHtdSnVFfNY6eWmLNl-512" value="" style="shape=requiredInterface;html=1;verticalLabelPosition=bottom;sketch=0;rotation=-185;" parent="eEPNA-gmXamEzi0rjirp-1" vertex="1">
          <mxGeometry x="2010.643100775194" y="1067.5690607734807" width="4.589147286821706" height="18.895027624309392" as="geometry" />
        </mxCell>
        <mxCell id="G5YHtdSnVFfNY6eWmLNl-513" value="" style="endArrow=none;html=1;rounded=0;" parent="eEPNA-gmXamEzi0rjirp-1" edge="1">
          <mxGeometry width="50" height="50" relative="1" as="geometry">
            <mxPoint x="2014.6356589147288" y="1492.7071823204421" as="sourcePoint" />
            <mxPoint x="2015.2322480620155" y="1086.9364640883978" as="targetPoint" />
          </mxGeometry>
        </mxCell>
        <mxCell id="G5YHtdSnVFfNY6eWmLNl-514" value="" style="endArrow=none;html=1;rounded=0;" parent="eEPNA-gmXamEzi0rjirp-1" edge="1">
          <mxGeometry width="50" height="50" relative="1" as="geometry">
            <mxPoint x="2478.139534883721" y="860.6685082872929" as="sourcePoint" />
            <mxPoint x="2478.190015503876" y="974.9834254143647" as="targetPoint" />
          </mxGeometry>
        </mxCell>
        <mxCell id="G5YHtdSnVFfNY6eWmLNl-515" value="" style="endArrow=none;html=1;rounded=0;" parent="eEPNA-gmXamEzi0rjirp-1" edge="1">
          <mxGeometry width="50" height="50" relative="1" as="geometry">
            <mxPoint x="2427.6589147286822" y="860.6685082872929" as="sourcePoint" />
            <mxPoint x="2427.7093953488375" y="974.9834254143647" as="targetPoint" />
          </mxGeometry>
        </mxCell>
        <mxCell id="G5YHtdSnVFfNY6eWmLNl-516" value="" style="endArrow=none;html=1;rounded=0;" parent="eEPNA-gmXamEzi0rjirp-1" edge="1">
          <mxGeometry width="50" height="50" relative="1" as="geometry">
            <mxPoint x="2377.1782945736436" y="860.6685082872929" as="sourcePoint" />
            <mxPoint x="2377.1782945736436" y="973.0939226519338" as="targetPoint" />
          </mxGeometry>
        </mxCell>
        <mxCell id="G5YHtdSnVFfNY6eWmLNl-517" value="" style="endArrow=none;html=1;rounded=0;" parent="eEPNA-gmXamEzi0rjirp-1" edge="1">
          <mxGeometry width="50" height="50" relative="1" as="geometry">
            <mxPoint x="2377.1782945736436" y="973.0939226519338" as="sourcePoint" />
            <mxPoint x="2427.6589147286822" y="973.0939226519338" as="targetPoint" />
          </mxGeometry>
        </mxCell>
        <mxCell id="G5YHtdSnVFfNY6eWmLNl-518" value="" style="endArrow=none;html=1;rounded=0;" parent="eEPNA-gmXamEzi0rjirp-1" edge="1">
          <mxGeometry width="50" height="50" relative="1" as="geometry">
            <mxPoint x="2427.6589147286822" y="1066.9360773480662" as="sourcePoint" />
            <mxPoint x="2427.6589147286822" y="973.4056906077348" as="targetPoint" />
          </mxGeometry>
        </mxCell>
        <mxCell id="G5YHtdSnVFfNY6eWmLNl-519" value="" style="shape=requiredInterface;html=1;verticalLabelPosition=bottom;sketch=0;rotation=-185;" parent="eEPNA-gmXamEzi0rjirp-1" vertex="1">
          <mxGeometry x="2423.207441860465" y="1066.9360773480662" width="4.589147286821706" height="18.895027624309392" as="geometry" />
        </mxCell>
        <mxCell id="G5YHtdSnVFfNY6eWmLNl-520" value="" style="endArrow=none;html=1;rounded=0;" parent="eEPNA-gmXamEzi0rjirp-1" edge="1">
          <mxGeometry width="50" height="50" relative="1" as="geometry">
            <mxPoint x="2427.2" y="1492.0741988950276" as="sourcePoint" />
            <mxPoint x="2427.796589147287" y="1086.3034806629835" as="targetPoint" />
          </mxGeometry>
        </mxCell>
        <mxCell id="3vO8OeJP92U8l20AnmFu-1" value="" style="endArrow=classic;html=1;rounded=0;" parent="eEPNA-gmXamEzi0rjirp-1" edge="1">
          <mxGeometry width="50" height="50" relative="1" as="geometry">
            <mxPoint x="564.4651162790698" y="774.6961325966851" as="sourcePoint" />
            <mxPoint x="491.0387596899225" y="774.696132596685" as="targetPoint" />
          </mxGeometry>
        </mxCell>
        <mxCell id="3vO8OeJP92U8l20AnmFu-2" value="" style="endArrow=classic;html=1;rounded=0;" parent="eEPNA-gmXamEzi0rjirp-1" edge="1">
          <mxGeometry width="50" height="50" relative="1" as="geometry">
            <mxPoint x="284.52713178294573" y="623.1296685082873" as="sourcePoint" />
            <mxPoint x="211.10077519379846" y="623.1296685082872" as="targetPoint" />
          </mxGeometry>
        </mxCell>
        <mxCell id="3vO8OeJP92U8l20AnmFu-3" value="" style="endArrow=classic;html=1;rounded=0;" parent="eEPNA-gmXamEzi0rjirp-1" edge="1">
          <mxGeometry width="50" height="50" relative="1" as="geometry">
            <mxPoint x="826.046511627907" y="1454.9171270718232" as="sourcePoint" />
            <mxPoint x="752.6201550387597" y="1454.9171270718232" as="targetPoint" />
          </mxGeometry>
        </mxCell>
        <mxCell id="3vO8OeJP92U8l20AnmFu-4" value="" style="endArrow=classic;html=1;rounded=0;" parent="eEPNA-gmXamEzi0rjirp-1" edge="1">
          <mxGeometry width="50" height="50" relative="1" as="geometry">
            <mxPoint x="1378.717519379845" y="759.2683425414365" as="sourcePoint" />
            <mxPoint x="1305.2911627906976" y="759.2683425414365" as="targetPoint" />
          </mxGeometry>
        </mxCell>
        <mxCell id="3vO8OeJP92U8l20AnmFu-5" value="" style="endArrow=classic;html=1;rounded=0;" parent="eEPNA-gmXamEzi0rjirp-1" edge="1">
          <mxGeometry width="50" height="50" relative="1" as="geometry">
            <mxPoint x="1046.4632558139535" y="757.6906077348067" as="sourcePoint" />
            <mxPoint x="973.0368992248062" y="757.6906077348067" as="targetPoint" />
          </mxGeometry>
        </mxCell>
        <mxCell id="3vO8OeJP92U8l20AnmFu-6" value="" style="endArrow=classic;html=1;rounded=0;" parent="eEPNA-gmXamEzi0rjirp-1" edge="1">
          <mxGeometry width="50" height="50" relative="1" as="geometry">
            <mxPoint x="1739.424496124031" y="786.0331491712707" as="sourcePoint" />
            <mxPoint x="1665.9981395348839" y="786.0331491712707" as="targetPoint" />
          </mxGeometry>
        </mxCell>
        <mxCell id="3vO8OeJP92U8l20AnmFu-7" value="" style="endArrow=classic;html=1;rounded=0;" parent="eEPNA-gmXamEzi0rjirp-1" edge="1">
          <mxGeometry width="50" height="50" relative="1" as="geometry">
            <mxPoint x="2065.712868217054" y="973.4151381215469" as="sourcePoint" />
            <mxPoint x="2015.2322480620155" y="973.0939226519336" as="targetPoint" />
          </mxGeometry>
        </mxCell>
        <mxCell id="3vO8OeJP92U8l20AnmFu-8" value="" style="endArrow=classic;html=1;rounded=0;" parent="eEPNA-gmXamEzi0rjirp-1" edge="1">
          <mxGeometry width="50" height="50" relative="1" as="geometry">
            <mxPoint x="2478.2772093023254" y="973.8875138121547" as="sourcePoint" />
            <mxPoint x="2427.796589147287" y="973.5662983425412" as="targetPoint" />
          </mxGeometry>
        </mxCell>
        <mxCell id="G5YHtdSnVFfNY6eWmLNl-383" value="&lt;font style=&quot;font-size: 9px;&quot; face=&quot;isocpeur&quot;&gt;Справка&lt;/font&gt;" style="shape=display;whiteSpace=wrap;html=1;" parent="eEPNA-gmXamEzi0rjirp-1" vertex="1">
          <mxGeometry x="2864.0868217054262" y="644.9604419889503" width="45.89147286821705" height="37.790055248618785" as="geometry" />
        </mxCell>
        <mxCell id="eEPNA-gmXamEzi0rjirp-8" value="" style="endArrow=none;html=1;rounded=0;" edge="1" parent="eEPNA-gmXamEzi0rjirp-1">
          <mxGeometry width="50" height="50" relative="1" as="geometry">
            <mxPoint x="876" y="1490" as="sourcePoint" />
            <mxPoint x="876.37" y="1460" as="targetPoint" />
          </mxGeometry>
        </mxCell>
        <mxCell id="eEPNA-gmXamEzi0rjirp-432" value="" style="shape=requiredInterface;html=1;verticalLabelPosition=bottom;sketch=0;rotation=-180;direction=south;" vertex="1" parent="eEPNA-gmXamEzi0rjirp-1">
          <mxGeometry x="965.045" y="936.495" width="18.9" height="3.91" as="geometry" />
        </mxCell>
        <mxCell id="eEPNA-gmXamEzi0rjirp-433" value="" style="endArrow=none;html=1;rounded=0;" edge="1" parent="eEPNA-gmXamEzi0rjirp-1">
          <mxGeometry width="50" height="50" relative="1" as="geometry">
            <mxPoint x="983.95" y="940.4000000000001" as="sourcePoint" />
            <mxPoint x="1088" y="940" as="targetPoint" />
          </mxGeometry>
        </mxCell>
        <mxCell id="eEPNA-gmXamEzi0rjirp-440" value="" style="endArrow=none;html=1;rounded=0;" edge="1" parent="eEPNA-gmXamEzi0rjirp-1">
          <mxGeometry width="50" height="50" relative="1" as="geometry">
            <mxPoint x="95" y="256" as="sourcePoint" />
            <mxPoint x="450" y="256" as="targetPoint" />
          </mxGeometry>
        </mxCell>
        <mxCell id="eEPNA-gmXamEzi0rjirp-9" value="" style="endArrow=none;html=1;rounded=0;" edge="1" parent="1">
          <mxGeometry width="50" height="50" relative="1" as="geometry">
            <mxPoint x="-2053" y="1097" as="sourcePoint" />
            <mxPoint x="-2053.1668837209304" y="1055.3812154696134" as="targetPoint" />
          </mxGeometry>
        </mxCell>
        <mxCell id="eEPNA-gmXamEzi0rjirp-10" value="" style="endArrow=none;html=1;rounded=0;entryX=0.147;entryY=-0.008;entryDx=0;entryDy=0;entryPerimeter=0;" edge="1" parent="1" target="eEPNA-gmXamEzi0rjirp-432">
          <mxGeometry width="50" height="50" relative="1" as="geometry">
            <mxPoint x="-2347" y="1097" as="sourcePoint" />
            <mxPoint x="-2180.9945" y="1096.4001299999998" as="targetPoint" />
          </mxGeometry>
        </mxCell>
        <mxCell id="eEPNA-gmXamEzi0rjirp-435" value="" style="shape=requiredInterface;html=1;verticalLabelPosition=bottom;sketch=0;rotation=-180;direction=south;" vertex="1" parent="1">
          <mxGeometry x="-1842.955" y="1093.495" width="18.9" height="3.91" as="geometry" />
        </mxCell>
        <mxCell id="eEPNA-gmXamEzi0rjirp-436" value="" style="endArrow=none;html=1;rounded=0;" edge="1" parent="1">
          <mxGeometry width="50" height="50" relative="1" as="geometry">
            <mxPoint x="-1824.05" y="1097.4" as="sourcePoint" />
            <mxPoint x="-1720" y="1097" as="targetPoint" />
          </mxGeometry>
        </mxCell>
        <mxCell id="eEPNA-gmXamEzi0rjirp-437" value="" style="endArrow=none;html=1;rounded=0;" edge="1" parent="1">
          <mxGeometry width="50" height="50" relative="1" as="geometry">
            <mxPoint x="-1721" y="1097" as="sourcePoint" />
            <mxPoint x="-1721.1668837209304" y="1055.3812154696134" as="targetPoint" />
          </mxGeometry>
        </mxCell>
        <mxCell id="eEPNA-gmXamEzi0rjirp-438" value="" style="endArrow=none;html=1;rounded=0;entryX=0.147;entryY=-0.008;entryDx=0;entryDy=0;entryPerimeter=0;" edge="1" parent="1" target="eEPNA-gmXamEzi0rjirp-435">
          <mxGeometry width="50" height="50" relative="1" as="geometry">
            <mxPoint x="-2013" y="1097" as="sourcePoint" />
            <mxPoint x="-1848.9944999999998" y="1096.4001299999998" as="targetPoint" />
          </mxGeometry>
        </mxCell>
        <mxCell id="eEPNA-gmXamEzi0rjirp-441" value="" style="shape=requiredInterface;html=1;verticalLabelPosition=bottom;sketch=0;rotation=-180;direction=south;" vertex="1" parent="1">
          <mxGeometry x="-3063.748289005953" y="411.8159235941582" width="18.895027624309392" height="4.589147286821706" as="geometry" />
        </mxCell>
        <mxCell id="eEPNA-gmXamEzi0rjirp-443" value="" style="endArrow=none;html=1;rounded=0;" edge="1" parent="1">
          <mxGeometry width="50" height="50" relative="1" as="geometry">
            <mxPoint x="-2710" y="416" as="sourcePoint" />
            <mxPoint x="-1530" y="417" as="targetPoint" />
          </mxGeometry>
        </mxCell>
      </root>
    </mxGraphModel>
  </diagram>
</mxfile>
